<svg width="48" height="42" viewBox="0 0 48 42" fill="none" xmlns="http://www.w3.org/2000/svg">
<path d="M15.7853 5.61989C15.8473 5.59719 15.8983 5.57938 15.9453 5.56384C15.8863 5.5356 15.4253 5.67677 15.7853 5.61989Z" fill="#042898"/>
<path d="M26.0934 40.1847C25.3584 39.997 26.2733 40.4035 26.3423 40.3389C26.2463 40.2911 25.8254 40.1619 26.0934 40.1847Z" fill="#042898"/>
<path d="M25.3883 39.7084C34.4733 45.7739 41.8383 35.6182 40.4973 26.7911C45.2403 18.8896 44.0343 6.95106 34.0463 4.16793C22.8473 -0.578605 19.1253 4.41363 10.0323 4.9953C0.344337 5.61492 4.99935 12.2972 1.59435 19.4821C-6.29365 36.1216 17.2293 41.7648 25.3883 39.7084Z" fill="#009B85"/>
<path d="M19.2883 3.00611C19.3503 2.98342 19.4013 2.9656 19.4483 2.95007C19.3893 2.92183 18.9283 3.063 19.2883 3.00611Z" fill="#75B1F7"/>
<path d="M29.5963 37.5692C38.6813 43.6347 46.0463 33.479 44.7053 24.6519C49.4483 16.7505 48.2423 4.8119 38.2543 2.02877C27.0553 -2.71777 23.3333 2.27447 14.2403 2.85614C4.55231 3.47576 9.20729 10.158 5.80229 17.3429C-2.08571 33.9824 21.4373 39.6256 29.5963 37.5692Z" fill="#42FCCC"/>
<path d="M29.5953 37.5709C28.8613 37.3833 29.7763 37.7897 29.8453 37.7252C29.7493 37.6773 29.3283 37.5481 29.5953 37.5709Z" fill="#75B1F7"/>
<path d="M41.8853 16.7783C40.6373 18.2107 38.9564 19.1976 37.0984 19.5897C35.2394 19.9817 33.3044 19.7577 31.5844 18.9514C35.1124 18.7871 38.5913 18.0533 41.8853 16.7783Z" fill="#0D003D"/>
<path d="M32.0294 11.8674L33.3344 10.9662C33.2154 10.6374 32.9904 10.3575 32.6944 10.1704C32.3994 9.98337 32.0504 9.8998 31.7024 9.93284C31.2784 10.1116 30.9394 10.4465 30.7554 10.8682C30.5714 11.29 30.5564 11.7664 30.7144 12.1987C30.9524 13.2769 31.7804 14.0105 32.5644 13.8372C32.9024 13.7673 33.2014 13.5691 33.3964 13.2841C33.5924 12.9992 33.6704 12.6496 33.6134 12.3085L32.0294 11.8674Z" fill="#0D003D"/>
<path d="M38.5604 9.61099L39.8654 8.70987C39.7464 8.38103 39.5214 8.10111 39.2264 7.91406C38.9304 7.72702 38.5814 7.64345 38.2334 7.67649C37.8094 7.85523 37.4704 8.19013 37.2864 8.6119C37.1034 9.03367 37.0884 9.51002 37.2454 9.94239C37.4834 11.0206 38.3124 11.7541 39.0954 11.5809C39.4304 11.5177 39.7274 11.3252 39.9224 11.045C40.1164 10.7648 40.1934 10.4193 40.1354 10.0831L38.5604 9.61099Z" fill="#0D003D"/>
</svg>
