<svg xmlns="http://www.w3.org/2000/svg" width="311" height="109" viewBox="0 0 311 109" fill="none">
<path d="M255.497 47.6454L244.995 63.177L262.007 55.9826C264.432 54.316 267.75 55.1774 269.129 57.831L274.238 66.9464L278.279 55.2759C279.002 53.1635 279.606 52.3545 282.895 51.9777L302.35 48.2649L292.26 45.4776C289.378 43.336 289.572 38.8928 292.627 37.0636L303.677 25.7706L287.048 28.8906C284.354 28.7212 282.278 26.3703 282.392 23.6165L281.129 7.80847L273.251 20.1336C271.599 22.274 268.567 22.6635 266.422 21.011L259.074 14.9255L258.571 25.2798C259.019 28.159 256.993 30.8079 254.154 31.054L240.208 27.9091L253.733 40.928C255.977 42.3414 256.753 45.2963 255.497 47.6454Z" fill="#009B85"/>
<path d="M255.378 42.9907L244.561 63.2369L261.888 51.3279C264.313 49.6614 267.631 50.5227 269.01 53.1763L273.818 62.4336L277.853 50.6559C278.576 48.5434 280.584 47.1844 282.776 47.323L302.571 48.574L292.141 40.823C289.259 38.6813 289.453 34.2382 292.508 32.4089L304.33 25.3298L286.929 24.236C284.235 24.0665 282.159 21.7156 282.273 18.9618L282.943 2.76903L273.132 15.4789C271.48 17.6194 268.448 18.0089 266.303 16.3563L256.628 8.90155L258.452 20.6251C258.9 23.5043 256.874 26.1533 254.035 26.3994L239.89 27.6258L253.614 36.2733C255.857 37.6868 256.634 40.6417 255.378 42.9908L255.378 42.9907Z" fill="#42FCCC"/>
<path d="M271.805 37.4969L267.701 35.662C267.201 35.4388 266.808 36.0142 267.008 36.6707C267.63 38.7158 268.833 42.1598 269.982 42.5878C271.212 43.0458 271.991 40.1497 272.308 38.6511C272.404 38.1947 272.174 37.6621 271.805 37.4969L271.805 37.4969Z" fill="#0D003D"/>
<path d="M275.855 32.0441C275.879 30.8847 275.258 29.9071 274.468 29.8606C273.677 29.814 273.017 30.7161 272.993 31.8754C272.969 33.0348 273.59 34.0124 274.38 34.0589C275.171 34.1055 275.831 33.2034 275.855 32.0441Z" fill="#0D003D"/>
<path d="M269.23 28.3937C269.254 27.2343 268.633 26.2568 267.843 26.2102C267.052 26.1636 266.392 27.0657 266.368 28.225C266.344 29.3844 266.965 30.362 267.755 30.4085C268.546 30.4551 269.206 29.553 269.23 28.3937Z" fill="#0D003D"/>
<path d="M267.938 30.2672C269.648 27.4991 268.482 25.3588 266.763 22.9708C269.639 24.4542 270.905 28.1915 267.938 30.2672Z" fill="#0D003D"/>
<path d="M274.909 33.8414C276.619 31.0733 275.189 29.2023 273.47 26.8142C276.346 28.2976 277.876 31.7657 274.909 33.8414Z" fill="#0D003D"/>
<path fill-rule="evenodd" clip-rule="evenodd" d="M186.421 24.1953C188.307 22.1783 191.441 22.1037 193.421 24.0287L197.172 27.6764L202.913 27.5398C205.674 27.4741 207.965 29.6588 208.031 32.4194L208.172 38.3718L212.185 42.2729C214.164 44.1979 214.24 47.3936 212.354 49.4106L208.532 53.4982L208.662 58.9342C208.727 61.6948 206.543 63.986 203.782 64.0517L198.548 64.1763L194.48 68.5267C192.594 70.5437 189.46 70.6183 187.48 68.6932L183.21 64.5413L177.973 64.6659C175.212 64.7316 172.921 62.5469 172.855 59.7863L172.726 54.3476L168.716 50.4491C166.737 48.5241 166.661 45.3284 168.547 43.3114L172.366 39.2266L172.224 33.2715C172.159 30.5109 174.343 28.2197 177.104 28.154L182.847 28.0173L186.421 24.1953Z" fill="#7471FF"/>
<path fill-rule="evenodd" clip-rule="evenodd" d="M189.333 23.7046C191.267 21.7342 194.433 21.7052 196.403 23.6399L199.925 27.0978L205.463 27.0471C208.224 27.0219 210.483 29.2399 210.509 32.0012L210.559 37.5392L214.334 41.2453C216.304 43.18 216.333 46.3457 214.398 48.3161L210.692 52.0906L210.738 57.1288C210.764 59.8901 208.546 62.1491 205.784 62.1743L200.746 62.2204L196.793 66.2465C194.858 68.2169 191.693 68.2458 189.722 66.3111L185.696 62.358L180.657 62.4041C177.895 62.4294 175.636 60.2113 175.611 57.45L175.565 52.4106L171.792 48.7057C169.821 46.771 169.793 43.6053 171.727 41.6349L175.432 37.8617L175.381 32.3224C175.356 29.5611 177.574 27.3022 180.335 27.2769L185.875 27.2263L189.333 23.7046Z" fill="#AFC0FF"/>
<path d="M200.732 46.1145C197.348 52.6714 191.489 54.4771 187.081 50.0719C191.796 50.5768 196.296 49.3946 200.732 46.1145Z" fill="#0D003D"/>
<path d="M185.76 41.3921L187.857 39.6528C187.253 38.2962 186.455 37.6324 185.305 37.838C184.59 38.2198 184.014 38.8184 183.66 39.5481C183.306 40.2777 183.193 41.1008 183.336 41.8992C183.479 42.6977 183.871 43.4304 184.456 43.9922C185.041 44.5541 185.789 44.9161 186.593 45.0264C187.246 44.8145 187.806 44.3834 188.177 43.8062C188.549 43.229 188.71 42.541 188.632 41.8586L185.76 41.3921Z" fill="#0D003D"/>
<path d="M196.753 37.7808L199 35.8397C198.833 35.2817 198.462 34.8067 197.962 34.5081C197.462 34.2096 196.868 34.1092 196.298 34.2267C195.582 34.6084 195.006 35.2071 194.652 35.9367C194.298 36.6664 194.185 37.4895 194.328 38.2879C194.471 39.0864 194.863 39.819 195.448 40.3809C196.033 40.9427 196.781 41.3048 197.585 41.4151C198.238 41.2031 198.798 40.7721 199.169 40.1949C199.541 39.6176 199.702 38.9296 199.624 38.2473L196.753 37.7808Z" fill="#0D003D"/>
<path d="M304.062 97.3811C293.596 91.2924 271.169 80.6696 265.189 86.8878C257.713 94.6606 254.723 111.372 234.289 105.931C213.855 100.49 160.03 84.1673 150.062 95.0492" stroke="#E476FF" stroke-width="4" stroke-linecap="round"/>
<path d="M48.0121 55.3927C37.9486 64.337 27.3248 53.0088 27.5119 41.9117C20.448 32.9384 19.961 18.028 31.6599 12.9837C44.5109 5.32372 49.8567 10.876 61.0172 10.1238C72.9066 9.32248 68.3357 18.3112 73.656 26.6172C85.9775 45.853 58.2768 56.6093 48.0121 55.3927Z" fill="#A82011"/>
<path d="M42.6679 53.1234C32.5841 61.9152 21.9942 50.8424 22.2108 39.9674C15.1733 31.1928 14.7262 16.5827 26.4344 11.6085C39.3013 4.06786 44.6304 9.49452 55.789 8.72773C67.6763 7.91082 63.083 16.7315 68.3793 24.8567C80.6453 43.6739 52.9257 54.2883 42.6679 53.1234Z" fill="#FF906E"/>
<path d="M28.1114 31.2611C30.6294 32.893 33.4886 33.6131 36.2565 33.3123C39.0243 33.0115 41.5503 31.7064 43.4522 29.5942C38.5249 31.075 33.3444 31.6379 28.1114 31.2611Z" fill="#0D003D"/>
<path d="M28.1137 20.9567L25.789 19.8799C25.9187 19.3571 26.2322 18.8851 26.68 18.5381C27.1278 18.1911 27.6846 17.9887 28.2631 17.9627C28.9952 18.1402 29.6192 18.5723 30.0059 19.1694C30.3926 19.7665 30.5125 20.483 30.3407 21.1705C30.1659 22.8514 28.952 24.1404 27.6296 24.0496C27.0663 24.0272 26.54 23.8012 26.1643 23.4203C25.7885 23.0393 25.5935 22.5341 25.6212 22.0135L28.1137 20.9567Z" fill="#0D003D"/>
<path d="M38.2894 21.6227L35.9647 20.5459C36.0945 20.0231 36.4079 19.5511 36.8558 19.2041C37.3036 18.8571 37.8604 18.6547 38.4389 18.6287C39.171 18.8063 39.795 19.2383 40.1817 19.8354C40.5684 20.4325 40.6883 21.149 40.5165 21.8365C40.3416 23.5174 39.1278 24.8064 37.8053 24.7156C37.2421 24.6933 36.7158 24.4672 36.3401 24.0863C35.9643 23.7054 35.7693 23.2001 35.7969 22.6795L38.2894 21.6227Z" fill="#0D003D"/>
<path d="M2 94.2391C2 94.2391 20.8843 87.5325 38.4576 89.2952C38.4576 89.2952 34.7365 95.0056 33.7948 96.052C32.853 97.0985 67.3976 86.4024 91.0625 94.8765" stroke="#FFDB06" stroke-width="4" stroke-linecap="round" stroke-linejoin="round"/>
</svg>