<svg xmlns="http://www.w3.org/2000/svg" width="317" height="105" viewBox="0 0 317 105" fill="none">
<path d="M8.78516 91.2557C8.78516 91.2557 66.2627 74.0481 83.5563 72.4482C100.85 70.8483 115.406 70.7412 158.327 80.0952C201.249 89.4492 209.89 12.2065 232.03 7.60599C251.958 3.46508 308.052 94.4094 308.052 94.4094" stroke="#3693FF" stroke-width="5" stroke-miterlimit="10"/>
<path d="M8.78821 100.047C13.6418 100.047 17.5764 96.1107 17.5764 91.2549C17.5764 86.3992 13.6418 82.4629 8.78821 82.4629C3.93463 82.4629 0 86.3992 0 91.2549C0 96.1107 3.93463 100.047 8.78821 100.047Z" fill="#3693FF"/>
<path d="M81.7882 81.2405C86.6418 81.2405 90.5764 77.3041 90.5764 72.4484C90.5764 67.5926 86.6418 63.6562 81.7882 63.6562C76.9346 63.6562 73 67.5926 73 72.4484C73 77.3041 76.9346 81.2405 81.7882 81.2405Z" fill="#3693FF"/>
<path d="M153.788 88.8869C158.642 88.8869 162.576 84.9506 162.576 80.0949C162.576 75.2391 158.642 71.3027 153.788 71.3027C148.935 71.3027 145 75.2391 145 80.0949C145 84.9506 148.935 88.8869 153.788 88.8869Z" fill="#3693FF"/>
<path d="M232.788 17.5842C237.642 17.5842 241.576 13.6478 241.576 8.79205C241.576 3.93631 237.642 0 232.788 0C227.935 0 224 3.93631 224 8.79205C224 13.6478 227.935 17.5842 232.788 17.5842Z" fill="#3693FF"/>
<path d="M307.87 104.235C312.724 104.235 316.658 100.298 316.658 95.4425C316.658 90.5868 312.724 86.6504 307.87 86.6504C303.017 86.6504 299.082 90.5868 299.082 95.4425C299.082 100.298 303.017 104.235 307.87 104.235Z" fill="#3693FF"/>
<path d="M9 37C13.9705 37 18 32.9705 18 28C18 23.0294 13.9705 19 9 19C4.02945 19 0 23.0294 0 28C0 32.9705 4.02945 37 9 37Z" fill="#FFDB06"/>
<path d="M82 53C86.9705 53 91 48.9705 91 44C91 39.0294 86.9705 35 82 35C77.0295 35 73 39.0294 73 44C73 48.9705 77.0295 53 82 53Z" fill="#FFDB06"/>
<path d="M154 37C158.971 37 163 32.9705 163 28C163 23.0294 158.971 19 154 19C149.03 19 145 23.0294 145 28C145 32.9705 149.03 37 154 37Z" fill="#FFDB06"/>
<path d="M232 77C236.971 77 241 72.9705 241 68C241 63.0294 236.971 59 232 59C227.03 59 223 63.0294 223 68C223 72.9705 227.03 77 232 77Z" fill="#FFDB06"/>
<path d="M308 18C312.971 18 317 13.9706 317 9.00004C317 4.02947 312.971 0 308 0C303.029 0 299 4.02947 299 9.00004C299 13.9706 303.029 18 308 18Z" fill="#FFDB06"/>
<path d="M9 27.7151C9 27.7151 65.3327 42.5207 81.5 43.3533C97.6673 44.1859 102.875 48.8774 154 27.7151C169.614 21.2517 203.403 41.9965 226.5 67.5926C237.482 79.763 307 9 307 9" stroke="#FFDB06" stroke-width="5" stroke-miterlimit="10"/>
</svg>