<svg xmlns="http://www.w3.org/2000/svg" width="215" height="146" viewBox="0 0 215 146" fill="none">
<g clip-path="url(#clip0_1062_1139)">
<path d="M212.382 95.0916C210.478 98.482 204.808 96.8345 203.464 97.2754C196.288 107.782 193.005 104.342 183.042 102.648C172.741 110.797 162.958 99.2995 163.724 88.5692C157.296 79.5295 157.604 65.0747 169.297 60.7817C182.253 54.0152 187.256 60.7616 198.125 59.4914C206.806 58.6035 214.893 68.115 209.604 76.0896C210.744 82.1641 216.706 89.311 212.382 95.0916L212.382 95.0916Z" fill="#A900D2"/>
<path d="M207.973 91.0432C206.069 94.4336 200.399 92.7862 199.055 93.2271C191.879 103.734 188.595 100.293 178.632 98.5993C168.332 106.749 158.549 95.2511 159.315 84.5209C152.887 75.4811 155.468 58.1957 165.033 54.4666C178.648 49.159 182.847 56.7133 193.716 55.443C202.397 54.5552 210.484 64.0667 205.195 72.0412C206.335 78.1157 212.297 85.2627 207.973 91.0433L207.973 91.0432Z" fill="#E476FF"/>
<path d="M176.914 66.2438L179.238 65.167C179.109 64.6442 178.795 64.1722 178.347 63.8252C177.9 63.4782 177.343 63.2758 176.764 63.2498C176.032 63.4274 175.408 63.8594 175.021 64.4565C174.635 65.0536 174.515 65.7701 174.687 66.4576C174.861 68.1385 176.075 69.4275 177.398 69.3367C177.961 69.3144 178.487 69.0883 178.863 68.7074C179.239 68.3264 179.434 67.8212 179.406 67.3006L176.914 66.2438Z" fill="#0D003D"/>
<path d="M166.738 66.9098L169.063 65.833C168.933 65.3102 168.619 64.8383 168.172 64.4912C167.724 64.1442 167.167 63.9418 166.588 63.9158C165.856 64.0934 165.232 64.5254 164.846 65.1225C164.459 65.7196 164.339 66.4361 164.511 67.1236C164.686 68.8045 165.9 70.0935 167.222 70.0027C167.785 69.9804 168.312 69.7543 168.687 69.3734C169.063 68.9925 169.258 68.4872 169.23 67.9666L166.738 66.9098Z" fill="#0D003D"/>
<path d="M174.052 76.0368L169.769 74.6566C169.248 74.4887 168.916 75.1035 169.183 75.7346C170.015 77.7007 171.569 80.9951 172.76 81.2963C174.033 81.6185 174.512 78.6544 174.673 77.1301C174.722 76.6657 174.437 76.1611 174.052 76.0368L174.052 76.0368Z" fill="#0D003D"/>
</g>
<g filter="url(#filter0_d_1062_1139)">
<circle cx="55" cy="51" r="37" fill="white"/>
<g clip-path="url(#clip1_1062_1139)">
<mask id="mask0_1062_1139" style="mask-type:alpha" maskUnits="userSpaceOnUse" x="32" y="30" width="42" height="42">
<path fill-rule="evenodd" clip-rule="evenodd" d="M61.6619 71.0729C62.3029 71.3227 63.0339 71.3067 63.6809 70.9953L72.0603 66.9633C72.9408 66.5396 73.5008 65.6485 73.5008 64.6709V37.3311C73.5008 36.3535 72.9408 35.4624 72.0603 35.0387L63.6809 31.0065C62.8317 30.5979 61.838 30.698 61.0928 31.2398C60.9863 31.3172 60.8849 31.4036 60.7897 31.4989L44.7483 46.1338L37.761 40.8298C37.1105 40.3361 36.2007 40.3765 35.5966 40.9261L33.3555 42.9646C32.6166 43.6368 32.6157 44.7993 33.3537 45.4726L39.4133 51.0009L33.3537 56.5292C32.6157 57.2025 32.6166 58.3651 33.3555 59.0372L35.5966 61.0758C36.2007 61.6253 37.1105 61.6658 37.761 61.172L44.7483 55.8681L60.7897 70.503C61.0435 70.7569 61.3415 70.9481 61.6619 71.0729ZM63.3319 41.7615L51.1602 51.0009L63.3319 60.2403V41.7615Z" fill="white"/>
</mask>
<g mask="url(#mask0_1062_1139)">
<path d="M72.0604 35.0446L63.6744 31.0069C62.7037 30.5396 61.5436 30.7367 60.7818 31.4985L33.3291 56.5289C32.5907 57.2021 32.5916 58.3647 33.331 59.0368L35.5734 61.0754C36.1779 61.625 37.0882 61.6654 37.7391 61.1717L70.7985 36.0921C71.9076 35.2507 73.5006 36.0418 73.5006 37.4339V37.3366C73.5006 36.3594 72.9408 35.4686 72.0604 35.0446Z" fill="#0065A9"/>
<g filter="url(#filter1_d_1062_1139)">
<path d="M72.0604 66.9562L63.6744 70.9939C62.7037 71.4614 61.5436 71.2641 60.7818 70.5024L33.3291 45.472C32.5907 44.7987 32.5916 43.6361 33.331 42.964L35.5734 40.9254C36.1779 40.3759 37.0882 40.3354 37.7391 40.8291L70.7985 65.9087C71.9076 66.7501 73.5006 65.9591 73.5006 64.567V64.6643C73.5006 65.6415 72.9408 66.5323 72.0604 66.9562Z" fill="#007ACC"/>
</g>
<g filter="url(#filter2_d_1062_1139)">
<path d="M63.6746 70.9953C62.7036 71.4624 61.5436 71.2649 60.7817 70.503C61.7204 71.4417 63.3255 70.7769 63.3255 69.4493V32.5525C63.3255 31.225 61.7204 30.5602 60.7817 31.4989C61.5436 30.737 62.7036 30.5396 63.6746 31.0065L72.0592 35.0387C72.9402 35.4624 73.5005 36.3535 73.5005 37.3311V64.6709C73.5005 65.6485 72.9402 66.5396 72.0591 66.9633L63.6746 70.9953Z" fill="#1F9CF0"/>
</g>
<g style="mix-blend-mode:overlay" opacity="0.25">
<path style="mix-blend-mode:overlay" fill-rule="evenodd" clip-rule="evenodd" d="M61.637 71.073C62.278 71.3227 63.009 71.3067 63.656 70.9953L72.0354 66.9633C72.9159 66.5396 73.4758 65.6485 73.4758 64.6709V37.3311C73.4758 36.3535 72.9159 35.4624 72.0354 35.0387L63.656 31.0065C62.8069 30.5979 61.8131 30.698 61.0678 31.2398C60.9614 31.3172 60.86 31.4036 60.7648 31.4989L44.7234 46.1338L37.7361 40.8298C37.0856 40.3361 36.1758 40.3766 35.5717 40.926L33.3306 42.9646C32.5917 43.6368 32.5908 44.7993 33.3288 45.4726L39.3884 51.0009L33.3288 56.5293C32.5908 57.2025 32.5917 58.365 33.3306 59.0372L35.5717 61.0758C36.1758 61.6253 37.0856 61.6658 37.7361 61.172L44.7234 55.8681L60.7648 70.503C61.0186 70.7569 61.3166 70.9481 61.637 71.073ZM63.307 41.7616L51.1353 51.0009L63.307 60.2403V41.7616Z" fill="url(#paint0_linear_1062_1139)"/>
</g>
</g>
</g>
</g>
<path d="M18 137.628C32.3333 125.043 70.9 104.235 110.5 121.68C160 143.487 184.5 147.718 208 141.208" stroke="#42FCCC" stroke-width="4" stroke-linecap="round"/>
<defs>
<filter id="filter0_d_1062_1139" x="0" y="0" width="110" height="110" filterUnits="userSpaceOnUse" color-interpolation-filters="sRGB">
<feFlood flood-opacity="0" result="BackgroundImageFix"/>
<feColorMatrix in="SourceAlpha" type="matrix" values="0 0 0 0 0 0 0 0 0 0 0 0 0 0 0 0 0 0 127 0" result="hardAlpha"/>
<feOffset dy="4"/>
<feGaussianBlur stdDeviation="9"/>
<feComposite in2="hardAlpha" operator="out"/>
<feColorMatrix type="matrix" values="0 0 0 0 0 0 0 0 0 0.0274509 0 0 0 0 0.14902 0 0 0 0.09 0"/>
<feBlend mode="normal" in2="BackgroundImageFix" result="effect1_dropShadow_1062_1139"/>
<feBlend mode="normal" in="SourceGraphic" in2="effect1_dropShadow_1062_1139" result="shape"/>
</filter>
<filter id="filter1_d_1062_1139" x="24.4425" y="32.151" width="57.3913" height="47.4264" filterUnits="userSpaceOnUse" color-interpolation-filters="sRGB">
<feFlood flood-opacity="0" result="BackgroundImageFix"/>
<feColorMatrix in="SourceAlpha" type="matrix" values="0 0 0 0 0 0 0 0 0 0 0 0 0 0 0 0 0 0 127 0" result="hardAlpha"/>
<feOffset/>
<feGaussianBlur stdDeviation="4.16667"/>
<feColorMatrix type="matrix" values="0 0 0 0 0 0 0 0 0 0 0 0 0 0 0 0 0 0 0.25 0"/>
<feBlend mode="overlay" in2="BackgroundImageFix" result="effect1_dropShadow_1062_1139"/>
<feBlend mode="normal" in="SourceGraphic" in2="effect1_dropShadow_1062_1139" result="shape"/>
</filter>
<filter id="filter2_d_1062_1139" x="52.4484" y="22.4225" width="29.3854" height="57.1569" filterUnits="userSpaceOnUse" color-interpolation-filters="sRGB">
<feFlood flood-opacity="0" result="BackgroundImageFix"/>
<feColorMatrix in="SourceAlpha" type="matrix" values="0 0 0 0 0 0 0 0 0 0 0 0 0 0 0 0 0 0 127 0" result="hardAlpha"/>
<feOffset/>
<feGaussianBlur stdDeviation="4.16667"/>
<feColorMatrix type="matrix" values="0 0 0 0 0 0 0 0 0 0 0 0 0 0 0 0 0 0 0.25 0"/>
<feBlend mode="overlay" in2="BackgroundImageFix" result="effect1_dropShadow_1062_1139"/>
<feBlend mode="normal" in="SourceGraphic" in2="effect1_dropShadow_1062_1139" result="shape"/>
</filter>
<linearGradient id="paint0_linear_1062_1139" x1="53.1259" y1="30.7559" x2="53.1259" y2="71.246" gradientUnits="userSpaceOnUse">
<stop stop-color="white"/>
<stop offset="1" stop-color="white" stop-opacity="0"/>
</linearGradient>
<clipPath id="clip0_1062_1139">
<rect width="57.4031" height="52.9009" fill="white" transform="matrix(-0.999189 0.0402678 0.0402678 0.999189 212.355 51)"/>
</clipPath>
<clipPath id="clip1_1062_1139">
<rect width="40.7" height="40.7" fill="white" transform="translate(32.8008 30.6504)"/>
</clipPath>
</defs>
</svg>