<svg xmlns="http://www.w3.org/2000/svg" width="426" height="135" viewBox="0 0 426 135" fill="none">
<g filter="url(#filter0_d_1050_998)">
<circle cx="55" cy="76" r="37" fill="white"/>
</g>
<path d="M54.8731 80.4114C57.4328 80.4114 59.5078 78.3034 59.5078 75.703C59.5078 73.1026 57.4328 70.9946 54.8731 70.9946C52.3133 70.9946 50.2383 73.1026 50.2383 75.703C50.2383 78.3034 52.3133 80.4114 54.8731 80.4114Z" fill="#61DAFB"/>
<path d="M54.8696 85.3493C68.6046 85.3493 79.7391 81.0304 79.7391 75.7028C79.7391 70.3753 68.6046 66.0564 54.8696 66.0564C41.1345 66.0564 30 70.3753 30 75.7028C30 81.0304 41.1345 85.3493 54.8696 85.3493Z" stroke="#61DAFB" stroke-width="2.5"/>
<path d="M46.648 80.5262C53.5155 92.61 62.7645 100.246 67.3062 97.5827C71.8479 94.9189 69.9625 82.9635 63.0949 70.8797C56.2274 58.7959 46.9784 51.1594 42.4367 53.8232C37.895 56.487 39.7804 68.4423 46.648 80.5262Z" stroke="#61DAFB" stroke-width="2.5"/>
<path d="M46.6456 70.8797C39.7781 82.9636 37.8926 94.9189 42.4343 97.5827C46.976 100.246 56.225 92.61 63.0926 80.5262C69.9601 68.4424 71.8456 56.4871 67.3039 53.8233C62.7622 51.1595 53.5132 58.7959 46.6456 70.8797Z" stroke="#61DAFB" stroke-width="2.5"/>
<g filter="url(#filter1_d_1050_998)">
<circle cx="371" cy="73" r="37" fill="white"/>
<path d="M387.094 53H354.906C352.749 53 351 54.7489 351 56.9062V89.0938C351 91.2511 352.749 93 354.906 93H387.094C389.251 93 391 91.2511 391 89.0938V56.9062C391 54.7489 389.251 53 387.094 53Z" fill="#3178C6"/>
<path fill-rule="evenodd" clip-rule="evenodd" d="M375.766 84.7969V88.7032C376.398 89.0313 377.172 89.2735 378.031 89.4375C378.891 89.6016 379.828 89.6797 380.766 89.6797C381.703 89.6797 382.562 89.5938 383.422 89.4141C384.281 89.2344 384.984 88.9376 385.609 88.5547C386.242 88.1407 386.781 87.6172 387.094 86.9141C387.406 86.211 387.648 85.4297 387.648 84.4141C387.648 83.7032 387.539 83.086 387.328 82.5391C387.117 81.9922 386.813 81.5235 386.391 81.1329C385.992 80.7188 385.531 80.3516 384.984 80.0391C384.438 79.7266 383.812 79.3985 383.109 79.1016C382.594 78.8907 382.172 78.6876 381.703 78.4844C381.297 78.2813 380.945 78.0782 380.688 77.875C380.398 77.6641 380.18 77.4454 380.023 77.2188C379.867 76.9844 379.789 76.7266 379.789 76.4375C379.789 76.1719 379.859 75.9297 380 75.711C380.141 75.4922 380.336 75.3125 380.586 75.1563C380.836 75 381.148 74.8829 381.523 74.7969C381.891 74.711 382.297 74.6719 382.773 74.6719C383.102 74.6719 383.445 74.6961 383.789 74.7454C384.148 74.7946 384.516 74.8704 384.883 74.9719C385.25 75.0735 385.609 75.1985 385.977 75.3547C386.32 75.511 386.641 75.6907 386.914 75.8938V72.2219C386.32 71.9954 385.664 71.8235 384.961 71.7141C384.258 71.6047 383.477 71.55 382.539 71.55C381.602 71.55 380.742 71.6516 379.883 71.8469C379.023 72.0422 378.32 72.3547 377.695 72.7844C377.063 73.2063 376.602 73.7219 376.211 74.425C375.844 75.0813 375.664 75.8313 375.664 76.7688C375.664 77.9407 376 78.9563 376.68 79.7375C377.352 80.5969 378.398 81.2219 379.727 81.8469C380.266 82.0657 380.742 82.2844 381.211 82.4954C381.68 82.7063 382.07 82.925 382.383 83.1516C382.719 83.3782 382.984 83.6282 383.164 83.8938C383.359 84.1594 383.461 84.4719 383.461 84.8313C383.461 85.0813 383.4 85.3157 383.281 85.5344C383.163 85.7532 382.977 85.9407 382.727 86.0969C382.477 86.2532 382.172 86.3782 381.789 86.4719C381.422 86.5579 381.008 86.6047 380.461 86.6047C379.602 86.6047 378.742 86.4563 377.961 86.1594C377.102 85.8626 376.32 85.4172 375.617 84.8313L375.766 84.7969ZM369.203 75.1875H374.203V71.9844H360.219V75.1875H365.219V89.4844H369.203V75.1875Z" fill="white"/>
</g>
<g filter="url(#filter2_d_1050_998)">
<circle cx="213" cy="51" r="37" fill="white"/>
<g clip-path="url(#clip0_1050_998)">
<path fill-rule="evenodd" clip-rule="evenodd" d="M237.999 50.9319L232.569 60.0768L224.953 50.8071L232.569 41.7871L237.999 50.9319Z" fill="#166DA5"/>
<path fill-rule="evenodd" clip-rule="evenodd" d="M231.976 61.6373L223.705 51.7434L218.742 60.0455L226.451 71.3127L231.976 61.6373Z" fill="#8FDB69"/>
<path fill-rule="evenodd" clip-rule="evenodd" d="M231.882 40.1641L223.705 50.0892L218.742 41.7871L226.451 30.6448L231.882 40.1641Z" fill="#166DA5"/>
<path opacity="0.95" fill-rule="evenodd" clip-rule="evenodd" d="M206.945 40.1641H231.883L226.39 30.5823H212.438L206.945 40.1641ZM223.706 50.1204H237.501L232.538 41.7558H218.712" fill="url(#paint0_linear_1050_998)"/>
<path opacity="0.95" fill-rule="evenodd" clip-rule="evenodd" d="M231.976 61.6685H206.914L212.407 71.1878H226.452L231.976 61.6685ZM223.706 51.7122H237.501L232.538 60.0767H218.712" fill="url(#paint1_linear_1050_998)"/>
<path fill-rule="evenodd" clip-rule="evenodd" d="M212.407 71.1878L200.672 50.9007L212.563 30.6135H199.704L188 50.9007L199.704 71.1878H212.407Z" fill="#010101"/>
</g>
</g>
<path d="M123.157 51C121.845 56.9062 120.007 69.1125 123.157 70.6875" stroke="#F62459" stroke-width="4" stroke-linecap="round"/>
<path d="M112 60.1874C116.922 59.6405 128.013 59.1374 133 61.4999" stroke="#F62459" stroke-width="4" stroke-linecap="round"/>
<path d="M285.554 68.6671C288.364 63.2762 293.322 51.9076 290.674 49.5599" stroke="#E476FF" stroke-width="4" stroke-linecap="round"/>
<path d="M298.771 62.6517C293.852 61.9026 282.958 59.5067 278.731 55.9168" stroke="#E476FF" stroke-width="4" stroke-linecap="round"/>
<defs>
<filter id="filter0_d_1050_998" x="0" y="25" width="110" height="110" filterUnits="userSpaceOnUse" color-interpolation-filters="sRGB">
<feFlood flood-opacity="0" result="BackgroundImageFix"/>
<feColorMatrix in="SourceAlpha" type="matrix" values="0 0 0 0 0 0 0 0 0 0 0 0 0 0 0 0 0 0 127 0" result="hardAlpha"/>
<feOffset dy="4"/>
<feGaussianBlur stdDeviation="9"/>
<feComposite in2="hardAlpha" operator="out"/>
<feColorMatrix type="matrix" values="0 0 0 0 0 0 0 0 0 0.0274509 0 0 0 0 0.14902 0 0 0 0.09 0"/>
<feBlend mode="normal" in2="BackgroundImageFix" result="effect1_dropShadow_1050_998"/>
<feBlend mode="normal" in="SourceGraphic" in2="effect1_dropShadow_1050_998" result="shape"/>
</filter>
<filter id="filter1_d_1050_998" x="316" y="22" width="110" height="110" filterUnits="userSpaceOnUse" color-interpolation-filters="sRGB">
<feFlood flood-opacity="0" result="BackgroundImageFix"/>
<feColorMatrix in="SourceAlpha" type="matrix" values="0 0 0 0 0 0 0 0 0 0 0 0 0 0 0 0 0 0 127 0" result="hardAlpha"/>
<feOffset dy="4"/>
<feGaussianBlur stdDeviation="9"/>
<feComposite in2="hardAlpha" operator="out"/>
<feColorMatrix type="matrix" values="0 0 0 0 0 0 0 0 0 0.0274509 0 0 0 0 0.14902 0 0 0 0.09 0"/>
<feBlend mode="normal" in2="BackgroundImageFix" result="effect1_dropShadow_1050_998"/>
<feBlend mode="normal" in="SourceGraphic" in2="effect1_dropShadow_1050_998" result="shape"/>
</filter>
<filter id="filter2_d_1050_998" x="158" y="0" width="110" height="110" filterUnits="userSpaceOnUse" color-interpolation-filters="sRGB">
<feFlood flood-opacity="0" result="BackgroundImageFix"/>
<feColorMatrix in="SourceAlpha" type="matrix" values="0 0 0 0 0 0 0 0 0 0 0 0 0 0 0 0 0 0 127 0" result="hardAlpha"/>
<feOffset dy="4"/>
<feGaussianBlur stdDeviation="9"/>
<feComposite in2="hardAlpha" operator="out"/>
<feColorMatrix type="matrix" values="0 0 0 0 0 0 0 0 0 0.0274509 0 0 0 0 0.14902 0 0 0 0.09 0"/>
<feBlend mode="normal" in2="BackgroundImageFix" result="effect1_dropShadow_1050_998"/>
<feBlend mode="normal" in="SourceGraphic" in2="effect1_dropShadow_1050_998" result="shape"/>
</filter>
<linearGradient id="paint0_linear_1050_998" x1="206.945" y1="40.3513" x2="237.501" y2="40.3513" gradientUnits="userSpaceOnUse">
<stop stop-color="#2A3B8F"/>
<stop offset="1" stop-color="#29ABE2"/>
</linearGradient>
<linearGradient id="paint1_linear_1050_998" x1="237.501" y1="61.45" x2="206.914" y2="61.45" gradientUnits="userSpaceOnUse">
<stop stop-color="#B4D44E"/>
<stop offset="1" stop-color="#E7F716"/>
</linearGradient>
<clipPath id="clip0_1050_998">
<rect width="50" height="50" fill="white" transform="translate(188 26)"/>
</clipPath>
</defs>
</svg>