<svg xmlns="http://www.w3.org/2000/svg" width="353" height="181" viewBox="0 0 353 181" fill="none">
<rect x="54" width="299" height="181" rx="6" fill="#000726"/>
<path d="M276.203 69.1022V63.3228C276.203 62.6753 276.054 62.1504 275.871 62.1504H209.751C209.568 62.1504 209.419 62.6753 209.419 63.3228V69.1022C209.419 69.7497 209.568 70.2746 209.751 70.2746H275.871C276.054 70.2746 276.203 69.7497 276.203 69.1022Z" fill="#3693FF"/>
<path d="M201.711 69.1909V63.3378C201.711 62.682 201.115 62.1504 200.381 62.1504H144.714C143.979 62.1504 143.384 62.682 143.384 63.3378V69.1909C143.384 69.8467 143.979 70.3783 144.714 70.3783H200.381C201.115 70.3783 201.711 69.8467 201.711 69.1909Z" fill="#FF7761"/>
<path d="M173.961 103.855V98.0018C173.961 97.3461 173.366 96.8145 172.631 96.8145H90.3358C89.6011 96.8145 89.0054 97.3461 89.0054 98.0018V103.855C89.0054 104.511 89.6011 105.042 90.3358 105.042H172.631C173.366 105.042 173.961 104.511 173.961 103.855Z" fill="#E476FF"/>
<path d="M227.848 103.855V98.0018C227.848 97.3461 227.252 96.8145 226.517 96.8145H182.025C181.29 96.8145 180.695 97.3461 180.695 98.0018V103.855C180.695 104.511 181.29 105.042 182.025 105.042H226.517C227.252 105.042 227.848 104.511 227.848 103.855Z" fill="#3693FF"/>
<path d="M249.012 103.855V98.0018C249.012 97.3461 248.416 96.8145 247.682 96.8145H235.504C234.77 96.8145 234.174 97.3461 234.174 98.0018V103.855C234.174 104.511 234.77 105.042 235.504 105.042H247.682C248.416 105.042 249.012 104.511 249.012 103.855Z" fill="white"/>
<path d="M321.735 104.177V97.7558C321.735 97.0364 321.445 96.4531 321.088 96.4531H255.597C255.24 96.4531 254.95 97.0364 254.95 97.7558V104.177C254.95 104.897 255.24 105.48 255.597 105.48H321.088C321.445 105.48 321.735 104.897 321.735 104.177Z" fill="#E476FF"/>
<path d="M161.047 86.3432V80.4901C161.047 79.8343 160.451 79.3027 159.716 79.3027H90.3318C89.5971 79.3027 89.0014 79.8343 89.0014 80.4901V86.3432C89.0014 86.999 89.5971 87.5306 90.3318 87.5306H159.716C160.451 87.5306 161.047 86.999 161.047 86.3432Z" fill="#FFDB06"/>
<path d="M234.035 86.3432V80.4901C234.035 79.8343 233.44 79.3027 232.705 79.3027H169.843C169.108 79.3027 168.512 79.8343 168.512 80.4901V86.3432C168.512 86.999 169.108 87.5306 169.843 87.5306H232.705C233.44 87.5306 234.035 86.999 234.035 86.3432Z" fill="#FF7761"/>
<path d="M295.582 86.7012V80.2988C295.582 79.5815 295.175 79 294.674 79H242.49C241.989 79 241.582 79.5815 241.582 80.2988V86.7012C241.582 87.4185 241.989 88 242.49 88H294.674C295.175 88 295.582 87.4185 295.582 86.7012Z" fill="white"/>
<path d="M193.273 120.644V114.791C193.273 114.135 192.678 113.604 191.943 113.604H135.887C135.153 113.604 134.557 114.135 134.557 114.791V120.644C134.557 121.3 135.153 121.831 135.887 121.831H191.943C192.678 121.831 193.273 121.3 193.273 120.644Z" fill="#FFDB06"/>
<path d="M321.734 120.555V114.776C321.734 114.128 321.17 113.604 320.474 113.604H200.557C199.861 113.604 199.296 114.128 199.296 114.776V120.555C199.296 121.203 199.861 121.728 200.557 121.728H320.474C321.17 121.728 321.734 121.203 321.734 120.555Z" fill="#7E99FC"/>
<path d="M236.398 137.796V131.943C236.398 131.287 235.803 130.756 235.068 130.756H222.891C222.156 130.756 221.56 131.287 221.56 131.943V137.796C221.56 138.452 222.156 138.984 222.891 138.984H235.068C235.803 138.984 236.398 138.452 236.398 137.796Z" fill="white"/>
<path d="M271.141 137.708V131.928C271.141 131.281 269.963 130.756 268.51 130.756H244.427C242.974 130.756 241.796 131.281 241.796 131.928V137.708C241.796 138.355 242.974 138.88 244.427 138.88H268.51C269.963 138.88 271.141 138.355 271.141 137.708Z" fill="#FF906E"/>
<path d="M305.543 137.708V131.928C305.543 131.281 304.365 130.756 302.912 130.756H278.829C277.376 130.756 276.198 131.281 276.198 131.928V137.708C276.198 138.355 277.376 138.88 278.829 138.88H302.912C304.365 138.88 305.543 138.355 305.543 137.708Z" fill="#3693FF"/>
<path d="M216.066 138.339V132.486C216.066 131.83 215.471 131.299 214.736 131.299H158.68C157.946 131.299 157.35 131.83 157.35 132.486V138.339C157.35 138.995 157.946 139.527 158.68 139.527H214.736C215.471 139.527 216.066 138.995 216.066 138.339Z" fill="#3693FF"/>
<path d="M321.738 154.858V149.079C321.738 148.431 320.479 147.906 318.926 147.906H293.182C291.629 147.906 290.37 148.431 290.37 149.079V154.858C290.37 155.506 291.629 156.03 293.182 156.03H318.926C320.479 156.03 321.738 155.506 321.738 154.858Z" fill="#E476FF"/>
<path d="M216.066 155.126V149.273C216.066 148.618 215.471 148.086 214.736 148.086H158.68C157.946 148.086 157.35 148.618 157.35 149.273V155.126C157.35 155.782 157.946 156.314 158.68 156.314H214.736C215.471 156.314 216.066 155.782 216.066 155.126Z" fill="#FFDB06"/>
<path d="M284.188 155.126V149.273C284.188 148.618 283.592 148.086 282.857 148.086H223.296C222.561 148.086 221.966 148.618 221.966 149.273V155.126C221.966 155.782 222.561 156.314 223.296 156.314H282.857C283.592 156.314 284.188 155.782 284.188 155.126Z" fill="#42FCCC"/>
<path d="M105.191 51.9518V46.1724C105.191 45.5249 104.541 45 103.74 45H90.4529C89.6512 45 89.0013 45.5249 89.0013 46.1724V51.9518C89.0013 52.5993 89.6512 53.1242 90.4529 53.1242H103.74C104.541 53.1242 105.191 52.5993 105.191 51.9518Z" fill="white"/>
<path d="M169.719 52.0405V46.1874C169.719 45.5316 169.123 45 168.388 45H112.605C111.871 45 111.275 45.5316 111.275 46.1874V52.0405C111.275 52.6963 111.871 53.2279 112.605 53.2279H168.388C169.123 53.2279 169.719 52.6963 169.719 52.0405Z" fill="#FF7761"/>
<path d="M321.734 51.9518V46.1724C321.734 45.5249 321.408 45 321.006 45H176.752C176.349 45 176.023 45.5249 176.023 46.1724V51.9518C176.023 52.5993 176.349 53.1242 176.752 53.1242H321.006C321.408 53.1242 321.734 52.5993 321.734 51.9518Z" fill="#42FCCC"/>
<path d="M54 6C54 2.68629 56.6863 0 60 0H347C350.314 0 353 2.68629 353 6V22H54V6Z" fill="#5F84AE"/>
<circle cx="68.0385" cy="11.0385" r="4.03846" fill="#E476FF"/>
<circle cx="81.4994" cy="11.0385" r="4.03846" fill="#FF906E"/>
<circle cx="94.9603" cy="11.0385" r="4.03846" fill="#42FCCC"/>
<g clip-path="url(#clip0_1062_1138)">
<path d="M31.3146 73.7208L31.8554 67.2852C31.9869 65.7198 33.8546 64.8971 35.0994 65.8561L38.4995 68.4757C39.3653 69.1427 40.639 68.9726 41.3264 68.0982L44.6008 63.9324C45.5597 62.7125 47.4896 62.9571 48.0374 64.3681L50.2953 70.1839C50.6506 71.0991 51.6554 71.5942 52.6356 71.337L58.342 69.8397C59.8696 69.4388 61.2085 70.8345 60.7051 72.3029L59.9647 74.4629C59.4033 76.1005 61.1057 77.5519 62.6955 76.7913L64.5525 75.9029C66.3796 75.0288 68.1714 77.0284 67.0534 78.694L64.2806 82.8249C63.511 83.9715 64.1263 85.4904 65.4757 85.7749L67.2794 86.1553C68.8208 86.4803 69.3366 88.3581 68.184 89.4484L65.677 91.8201C64.7455 92.7012 64.8726 94.1813 65.9373 94.8527L70.2946 97.6007C71.9479 98.6433 71.1414 101.184 69.1529 101.197L65.5635 101.222C63.9409 101.233 62.9672 103.034 63.8894 104.318L65.2792 106.253C66.2672 107.629 65.079 109.536 63.3577 109.336L62.8931 109.283C61.2192 109.089 60.0273 110.898 60.916 112.284L61.725 113.545C62.8386 115.281 60.7452 117.35 58.958 116.279L54.2099 113.434C53.1758 112.815 51.7984 113.259 51.3101 114.37L49.4686 118.559C48.9275 119.79 47.3258 120.171 46.312 119.311L44.0041 117.351C43.0961 116.58 41.6807 116.794 41.0113 117.803L37.4672 123.146C36.4105 124.739 33.9193 124.141 33.8109 122.268L33.4836 116.611C33.3976 115.126 31.7062 114.318 30.4211 115.148L27.0724 117.312C25.6691 118.219 23.8525 117.169 24.0164 115.547L24.3911 111.836C24.5274 110.486 23.2537 109.446 21.9128 109.812L17.5548 111.002C15.6758 111.515 14.2865 109.384 15.5354 107.904L18.9666 103.839C19.8098 102.84 19.4752 101.353 18.2907 100.835L12.1985 98.1712C10.6704 97.503 10.6732 95.3765 12.203 94.6412L18.8379 91.4522C19.9794 90.9035 20.3453 89.4814 19.5955 88.5084L16.5358 84.5385C15.565 83.2789 16.4938 81.4401 18.1253 81.3918L21.5621 81.2901C22.9497 81.249 23.904 79.8694 23.4154 78.6109L22.377 75.9363C21.7045 74.204 23.6874 72.5749 25.3045 73.5311L28.2661 75.2824C29.5325 76.0312 31.1919 75.1813 31.3146 73.7209L31.3146 73.7208Z" fill="#042898"/>
<path d="M30.7875 68.7873L31.3283 62.3516C31.4598 60.7863 33.3275 59.9635 34.5723 60.9225L37.9724 63.5421C38.8382 64.2091 40.1119 64.039 40.7993 63.1646L44.0737 58.9988C45.0326 57.7789 46.9625 58.0235 47.5103 59.4345L49.7682 65.2503C50.1235 66.1656 51.1283 66.6607 52.1085 66.4034L57.8149 64.9061C59.3425 64.5052 60.6814 65.9009 60.178 67.3693L59.4375 69.5293C58.8762 71.1669 60.5786 72.6183 62.1684 71.8577L64.0254 70.9693C65.8525 70.0952 67.6443 72.0948 66.5263 73.7604L63.7535 77.8913C62.9839 79.0379 63.5992 80.5568 64.9486 80.8413L66.7523 81.2217C68.2937 81.5467 68.8095 83.4245 67.6569 84.5148L65.1499 86.8865C64.2184 87.7676 64.3455 89.2477 65.4102 89.9192L69.7675 92.6671C71.4208 93.7097 70.6143 96.2503 68.6258 96.2638L65.0364 96.2884C63.4138 96.2994 62.4401 98.1005 63.3623 99.3847L64.752 101.32C65.7401 102.696 64.5519 104.602 62.8306 104.403L62.366 104.349C60.6921 104.155 59.5002 105.964 60.3889 107.35L61.1979 108.611C62.3115 110.348 60.2181 112.416 58.4309 111.345L53.6828 108.501C52.6487 107.881 51.2713 108.325 50.783 109.436L48.9415 113.626C48.4004 114.857 46.7987 115.238 45.7849 114.377L43.477 112.417C42.569 111.646 41.1536 111.86 40.4842 112.869L36.9401 118.212C35.8834 119.806 33.3922 119.207 33.2838 117.335L32.9565 111.678C32.8705 110.192 31.1791 109.384 29.894 110.214L26.5453 112.378C25.142 113.285 23.3254 112.236 23.4893 110.613L23.864 106.902C24.0003 105.552 22.7266 104.512 21.3857 104.878L17.0277 106.069C15.1487 106.582 13.7594 104.45 15.0083 102.971L18.4395 98.9057C19.2827 97.9068 18.9481 96.4199 17.7636 95.9019L11.6714 93.2376C10.1433 92.5694 10.1461 90.4429 11.6759 89.7076L18.3108 86.5186C19.4523 85.9699 19.8182 84.5478 19.0684 83.5748L16.0087 79.6049C15.0379 78.3453 15.9667 76.5065 17.5982 76.4582L21.035 76.3565C22.4226 76.3154 23.3769 74.9358 22.8883 73.6773L21.8499 71.0027C21.1774 69.2704 23.1603 67.6413 24.7774 68.5975L27.739 70.3488C29.0054 71.0976 30.6648 70.2477 30.7875 68.7873L30.7875 68.7873Z" fill="#3693FF"/>
<path d="M47.7152 78.3238L49.8434 76.4331C49.0861 75.1447 47.8749 74.4353 46.8056 74.7972C45.4632 75.2513 44.8652 77.2052 45.4701 79.1612C46.0747 81.1172 47.653 82.3347 48.9954 81.8805C50.1989 81.334 50.7532 80.3108 50.5448 78.6852L47.7152 78.3238Z" fill="#0D003D"/>
<path d="M37.4613 82.1675L39.5895 80.2768C38.8322 78.9884 37.621 78.2791 36.5517 78.6409C35.2093 79.0951 34.6113 81.0489 35.2162 83.0049C35.8208 84.9609 37.3991 86.1784 38.7414 85.7242C39.945 85.1777 40.4993 84.1545 40.2909 82.529L37.4613 82.1675Z" fill="#0D003D"/>
<path d="M42.0147 90.223L46.855 87.9533C47.444 87.6771 47.9497 88.2813 47.7455 89.0122C47.1094 91.289 45.8525 95.1331 44.4924 95.6748C43.0368 96.2545 41.9371 93.1366 41.4729 91.5177C41.3315 91.0246 41.579 90.4273 42.0147 90.223L42.0147 90.223Z" fill="#0D003D"/>
</g>
<defs>
<clipPath id="clip0_1062_1138">
<rect width="62.3533" height="62.3533" fill="white" transform="translate(0 74.7832) rotate(-23.4206)"/>
</clipPath>
</defs>
</svg>