<svg width="50" height="46" viewBox="0 0 50 46" fill="none" xmlns="http://www.w3.org/2000/svg">
<path d="M1.50625 37.8061C3.26225 40.6471 8.08225 39.0391 9.25425 39.3711C15.7913 48.1311 18.4973 45.0681 27.0093 43.2711C36.1523 49.9031 44.1692 39.7061 43.1382 30.5331C48.3552 22.5601 47.5893 10.1761 37.3813 6.90009C26.0013 1.54609 21.9313 7.50313 12.5373 6.78913C5.03826 6.32813 -1.58875 14.7631 3.23725 21.4181C2.46725 26.6651 -2.41375 32.9991 1.50625 37.8061Z" fill="#0053B5"/>
<path d="M5.15725 34.1837C6.91225 37.0247 11.7332 35.4157 12.9042 35.7477C19.4422 44.5077 22.1473 41.4447 30.6593 39.6477C39.8033 46.2797 47.8202 36.0837 46.7892 26.9097C52.0062 18.9367 49.1862 4.20467 40.8282 1.33767C28.9322 -2.74233 25.5823 3.87971 16.1873 3.16671C8.68925 2.70571 2.06225 11.1397 6.88825 17.7947C6.11825 23.0427 1.23725 29.3767 5.15725 34.1837Z" fill="#3693FF"/>
<path d="M33.8193 20.144L37.4553 18.813C37.8973 18.651 38.2053 19.166 37.9973 19.717C37.3493 21.431 36.1263 24.309 35.1133 24.609C34.0283 24.929 33.5143 22.404 33.3223 21.103C33.2933 20.911 33.3253 20.715 33.4143 20.542C33.5033 20.37 33.6453 20.23 33.8193 20.144Z" fill="#0D003D"/>
<path d="M30.4082 12.9631L32.1142 13.1821C32.2502 14.1101 32.0492 14.7331 31.3672 15.0121C30.5102 15.3631 29.4252 14.6911 28.9442 13.5131C28.6812 13.0521 28.6042 12.5081 28.7312 11.9931C28.8572 11.4781 29.1772 11.0311 29.6232 10.7451C30.0432 10.6371 30.4872 10.6781 30.8802 10.8601C31.2742 11.0421 31.5922 11.3541 31.7812 11.7441L30.4082 12.9631Z" fill="#0D003D"/>
<path d="M38.0803 10.8137L39.9353 11.0897C40.0343 11.4437 39.9973 11.8217 39.8313 12.1497C39.6653 12.4777 39.3833 12.7328 39.0393 12.8628C38.1823 13.2128 37.0983 12.5418 36.6163 11.3628C36.3533 10.9028 36.2773 10.3587 36.4033 9.84273C36.5303 9.32773 36.8493 8.88075 37.2963 8.59475C37.7153 8.48675 38.1603 8.52774 38.5533 8.70974C38.9463 8.89174 39.2643 9.20475 39.4543 9.59475L38.0803 10.8137Z" fill="#0D003D"/>
</svg>
