<svg width="1500" viewBox="0 0 1500 600" fill="none" xmlns="http://www.w3.org/2000/svg">
  <rect width="1500" height="600" fill="#0D003D" />
  <path
    d="M337.974 165L328.63 148.04H326.006V165H315.062V120.072H333.43C336.971 120.072 339.979 120.691 342.454 121.928C344.971 123.165 346.848 124.872 348.086 127.048C349.323 129.181 349.942 131.571 349.942 134.216C349.942 137.203 349.088 139.869 347.382 142.216C345.718 144.563 343.243 146.227 339.958 147.208L350.326 165H337.974ZM326.006 140.296H332.79C334.795 140.296 336.288 139.805 337.27 138.824C338.294 137.843 338.806 136.456 338.806 134.664C338.806 132.957 338.294 131.613 337.27 130.632C336.288 129.651 334.795 129.16 332.79 129.16H326.006V140.296ZM392.076 129.288V165H381.132V160.136C380.022 161.715 378.508 162.995 376.588 163.976C374.71 164.915 372.62 165.384 370.316 165.384C367.585 165.384 365.174 164.787 363.084 163.592C360.993 162.355 359.372 160.584 358.22 158.28C357.068 155.976 356.492 153.267 356.492 150.152V129.288H367.372V148.68C367.372 151.069 367.99 152.925 369.228 154.248C370.465 155.571 372.129 156.232 374.22 156.232C376.353 156.232 378.038 155.571 379.276 154.248C380.513 152.925 381.132 151.069 381.132 148.68V129.288H392.076ZM421.697 128.904C425.878 128.904 429.206 130.269 431.681 133C434.198 135.688 435.457 139.4 435.457 144.136V165H424.577V145.608C424.577 143.219 423.958 141.363 422.721 140.04C421.483 138.717 419.819 138.056 417.729 138.056C415.638 138.056 413.974 138.717 412.737 140.04C411.499 141.363 410.881 143.219 410.881 145.608V165H399.937V129.288H410.881V134.024C411.99 132.445 413.483 131.208 415.361 130.312C417.238 129.373 419.35 128.904 421.697 128.904ZM488.63 128.904C493.067 128.904 496.587 130.248 499.19 132.936C501.835 135.624 503.158 139.357 503.158 144.136V165H492.278V145.608C492.278 143.304 491.659 141.533 490.422 140.296C489.227 139.016 487.563 138.376 485.43 138.376C483.296 138.376 481.611 139.016 480.374 140.296C479.179 141.533 478.582 143.304 478.582 145.608V165H467.702V145.608C467.702 143.304 467.083 141.533 465.846 140.296C464.651 139.016 462.987 138.376 460.854 138.376C458.72 138.376 457.035 139.016 455.798 140.296C454.603 141.533 454.006 143.304 454.006 145.608V165H443.062V129.288H454.006V133.768C455.115 132.275 456.566 131.101 458.358 130.248C460.15 129.352 462.176 128.904 464.438 128.904C467.126 128.904 469.515 129.48 471.606 130.632C473.739 131.784 475.403 133.427 476.598 135.56C477.835 133.597 479.52 131.997 481.654 130.76C483.787 129.523 486.112 128.904 488.63 128.904ZM544.476 146.568C544.476 147.592 544.412 148.659 544.284 149.768H519.516C519.686 151.987 520.39 153.693 521.628 154.888C522.908 156.04 524.465 156.616 526.3 156.616C529.03 156.616 530.929 155.464 531.996 153.16H543.644C543.046 155.507 541.958 157.619 540.38 159.496C538.844 161.373 536.902 162.845 534.556 163.912C532.209 164.979 529.585 165.512 526.684 165.512C523.185 165.512 520.07 164.765 517.34 163.272C514.609 161.779 512.476 159.645 510.94 156.872C509.404 154.099 508.636 150.856 508.636 147.144C508.636 143.432 509.382 140.189 510.876 137.416C512.412 134.643 514.545 132.509 517.276 131.016C520.006 129.523 523.142 128.776 526.684 128.776C530.14 128.776 533.212 129.501 535.9 130.952C538.588 132.403 540.678 134.472 542.172 137.16C543.708 139.848 544.476 142.984 544.476 146.568ZM533.276 143.688C533.276 141.811 532.636 140.317 531.356 139.208C530.076 138.099 528.476 137.544 526.556 137.544C524.721 137.544 523.164 138.077 521.884 139.144C520.646 140.211 519.878 141.725 519.58 143.688H533.276ZM561.956 142.472C561.956 138.035 562.916 134.088 564.836 130.632C566.756 127.133 569.422 124.424 572.836 122.504C576.292 120.541 580.196 119.56 584.548 119.56C589.881 119.56 594.446 120.968 598.244 123.784C602.041 126.6 604.58 130.44 605.86 135.304H593.828C592.932 133.427 591.652 131.997 589.988 131.016C588.366 130.035 586.51 129.544 584.42 129.544C581.049 129.544 578.318 130.717 576.228 133.064C574.137 135.411 573.092 138.547 573.092 142.472C573.092 146.397 574.137 149.533 576.228 151.88C578.318 154.227 581.049 155.4 584.42 155.4C586.51 155.4 588.366 154.909 589.988 153.928C591.652 152.947 592.932 151.517 593.828 149.64H605.86C604.58 154.504 602.041 158.344 598.244 161.16C594.446 163.933 589.881 165.32 584.548 165.32C580.196 165.32 576.292 164.36 572.836 162.44C569.422 160.477 566.756 157.768 564.836 154.312C562.916 150.856 561.956 146.909 561.956 142.472ZM628.818 165.512C625.319 165.512 622.162 164.765 619.346 163.272C616.572 161.779 614.375 159.645 612.754 156.872C611.175 154.099 610.386 150.856 610.386 147.144C610.386 143.475 611.196 140.253 612.818 137.48C614.439 134.664 616.658 132.509 619.474 131.016C622.29 129.523 625.447 128.776 628.946 128.776C632.444 128.776 635.602 129.523 638.418 131.016C641.234 132.509 643.452 134.664 645.074 137.48C646.695 140.253 647.506 143.475 647.506 147.144C647.506 150.813 646.674 154.056 645.01 156.872C643.388 159.645 641.148 161.779 638.29 163.272C635.474 164.765 632.316 165.512 628.818 165.512ZM628.818 156.04C630.908 156.04 632.679 155.272 634.13 153.736C635.623 152.2 636.37 150.003 636.37 147.144C636.37 144.285 635.644 142.088 634.194 140.552C632.786 139.016 631.036 138.248 628.946 138.248C626.812 138.248 625.042 139.016 623.634 140.552C622.226 142.045 621.522 144.243 621.522 147.144C621.522 150.003 622.204 152.2 623.57 153.736C624.978 155.272 626.727 156.04 628.818 156.04ZM698.88 128.904C703.317 128.904 706.837 130.248 709.44 132.936C712.085 135.624 713.408 139.357 713.408 144.136V165H702.528V145.608C702.528 143.304 701.909 141.533 700.672 140.296C699.477 139.016 697.813 138.376 695.68 138.376C693.546 138.376 691.861 139.016 690.624 140.296C689.429 141.533 688.832 143.304 688.832 145.608V165H677.952V145.608C677.952 143.304 677.333 141.533 676.096 140.296C674.901 139.016 673.237 138.376 671.104 138.376C668.97 138.376 667.285 139.016 666.048 140.296C664.853 141.533 664.256 143.304 664.256 145.608V165H653.312V129.288H664.256V133.768C665.365 132.275 666.816 131.101 668.608 130.248C670.4 129.352 672.426 128.904 674.688 128.904C677.376 128.904 679.765 129.48 681.856 130.632C683.989 131.784 685.653 133.427 686.848 135.56C688.085 133.597 689.77 131.997 691.904 130.76C694.037 129.523 696.362 128.904 698.88 128.904ZM766.63 128.904C771.067 128.904 774.587 130.248 777.19 132.936C779.835 135.624 781.158 139.357 781.158 144.136V165H770.278V145.608C770.278 143.304 769.659 141.533 768.422 140.296C767.227 139.016 765.563 138.376 763.43 138.376C761.296 138.376 759.611 139.016 758.374 140.296C757.179 141.533 756.582 143.304 756.582 145.608V165H745.702V145.608C745.702 143.304 745.083 141.533 743.846 140.296C742.651 139.016 740.987 138.376 738.854 138.376C736.72 138.376 735.035 139.016 733.798 140.296C732.603 141.533 732.006 143.304 732.006 145.608V165H721.062V129.288H732.006V133.768C733.115 132.275 734.566 131.101 736.358 130.248C738.15 129.352 740.176 128.904 742.438 128.904C745.126 128.904 747.515 129.48 749.606 130.632C751.739 131.784 753.403 133.427 754.598 135.56C755.835 133.597 757.52 131.997 759.654 130.76C761.787 129.523 764.112 128.904 766.63 128.904ZM824.076 129.288V165H813.132V160.136C812.022 161.715 810.508 162.995 808.588 163.976C806.71 164.915 804.62 165.384 802.316 165.384C799.585 165.384 797.174 164.787 795.084 163.592C792.993 162.355 791.372 160.584 790.22 158.28C789.068 155.976 788.492 153.267 788.492 150.152V129.288H799.372V148.68C799.372 151.069 799.99 152.925 801.228 154.248C802.465 155.571 804.129 156.232 806.22 156.232C808.353 156.232 810.038 155.571 811.276 154.248C812.513 152.925 813.132 151.069 813.132 148.68V129.288H824.076ZM853.697 128.904C857.878 128.904 861.206 130.269 863.681 133C866.198 135.688 867.457 139.4 867.457 144.136V165H856.577V145.608C856.577 143.219 855.958 141.363 854.721 140.04C853.483 138.717 851.819 138.056 849.729 138.056C847.638 138.056 845.974 138.717 844.737 140.04C843.499 141.363 842.881 143.219 842.881 145.608V165H831.937V129.288H842.881V134.024C843.99 132.445 845.483 131.208 847.361 130.312C849.238 129.373 851.35 128.904 853.697 128.904ZM880.566 125.576C878.646 125.576 877.067 125.021 875.83 123.912C874.635 122.76 874.038 121.352 874.038 119.688C874.038 117.981 874.635 116.573 875.83 115.464C877.067 114.312 878.646 113.736 880.566 113.736C882.443 113.736 883.979 114.312 885.174 115.464C886.411 116.573 887.03 117.981 887.03 119.688C887.03 121.352 886.411 122.76 885.174 123.912C883.979 125.021 882.443 125.576 880.566 125.576ZM886.006 129.288V165H875.062V129.288H886.006ZM913.841 155.72V165H908.273C904.305 165 901.211 164.04 898.993 162.12C896.774 160.157 895.665 156.979 895.665 152.584V138.376H891.313V129.288H895.665V120.584H906.609V129.288H913.777V138.376H906.609V152.712C906.609 153.779 906.865 154.547 907.377 155.016C907.889 155.485 908.742 155.72 909.937 155.72H913.841ZM956.417 129.288L934.017 181.96H922.241L930.433 163.784L915.905 129.288H928.129L936.385 151.624L944.577 129.288H956.417ZM984.881 128.84V137.928H999.537V146.376H984.881V156.232H1001.46V165H973.937V120.072H1001.46V128.84H984.881ZM1024.63 154.76L1032.37 129.288H1044.02L1031.35 165H1017.84L1005.17 129.288H1016.88L1024.63 154.76ZM1082.29 146.568C1082.29 147.592 1082.22 148.659 1082.1 149.768H1057.33C1057.5 151.987 1058.2 153.693 1059.44 154.888C1060.72 156.04 1062.28 156.616 1064.11 156.616C1066.84 156.616 1068.74 155.464 1069.81 153.16H1081.46C1080.86 155.507 1079.77 157.619 1078.19 159.496C1076.66 161.373 1074.71 162.845 1072.37 163.912C1070.02 164.979 1067.4 165.512 1064.5 165.512C1061 165.512 1057.88 164.765 1055.15 163.272C1052.42 161.779 1050.29 159.645 1048.75 156.872C1047.22 154.099 1046.45 150.856 1046.45 147.144C1046.45 143.432 1047.19 140.189 1048.69 137.416C1050.22 134.643 1052.36 132.509 1055.09 131.016C1057.82 129.523 1060.95 128.776 1064.5 128.776C1067.95 128.776 1071.02 129.501 1073.71 130.952C1076.4 132.403 1078.49 134.472 1079.98 137.16C1081.52 139.848 1082.29 142.984 1082.29 146.568ZM1071.09 143.688C1071.09 141.811 1070.45 140.317 1069.17 139.208C1067.89 138.099 1066.29 137.544 1064.37 137.544C1062.53 137.544 1060.98 138.077 1059.7 139.144C1058.46 140.211 1057.69 141.725 1057.39 143.688H1071.09ZM1109.82 128.904C1114 128.904 1117.33 130.269 1119.81 133C1122.32 135.688 1123.58 139.4 1123.58 144.136V165H1112.7V145.608C1112.7 143.219 1112.08 141.363 1110.85 140.04C1109.61 138.717 1107.94 138.056 1105.85 138.056C1103.76 138.056 1102.1 138.717 1100.86 140.04C1099.62 141.363 1099.01 143.219 1099.01 145.608V165H1088.06V129.288H1099.01V134.024C1100.12 132.445 1101.61 131.208 1103.49 130.312C1105.36 129.373 1107.48 128.904 1109.82 128.904ZM1151.09 155.72V165H1145.52C1141.55 165 1138.46 164.04 1136.24 162.12C1134.02 160.157 1132.91 156.979 1132.91 152.584V138.376H1128.56V129.288H1132.91V120.584H1143.86V129.288H1151.03V138.376H1143.86V152.712C1143.86 153.779 1144.11 154.547 1144.63 155.016C1145.14 155.485 1145.99 155.72 1147.19 155.72H1151.09ZM1171.71 165.512C1168.6 165.512 1165.83 164.979 1163.39 163.912C1160.96 162.845 1159.04 161.395 1157.63 159.56C1156.23 157.683 1155.44 155.592 1155.27 153.288H1166.08C1166.21 154.525 1166.79 155.528 1167.81 156.296C1168.83 157.064 1170.09 157.448 1171.59 157.448C1172.95 157.448 1174 157.192 1174.72 156.68C1175.49 156.125 1175.87 155.421 1175.87 154.568C1175.87 153.544 1175.34 152.797 1174.27 152.328C1173.21 151.816 1171.48 151.261 1169.09 150.664C1166.53 150.067 1164.4 149.448 1162.69 148.808C1160.98 148.125 1159.51 147.08 1158.27 145.672C1157.04 144.221 1156.42 142.28 1156.42 139.848C1156.42 137.8 1156.97 135.944 1158.08 134.28C1159.23 132.573 1160.9 131.229 1163.07 130.248C1165.29 129.267 1167.92 128.776 1170.95 128.776C1175.43 128.776 1178.95 129.885 1181.51 132.104C1184.11 134.323 1185.6 137.267 1185.99 140.936H1175.87C1175.7 139.699 1175.15 138.717 1174.21 137.992C1173.31 137.267 1172.12 136.904 1170.63 136.904C1169.35 136.904 1168.37 137.16 1167.68 137.672C1167 138.141 1166.66 138.803 1166.66 139.656C1166.66 140.68 1167.19 141.448 1168.26 141.96C1169.37 142.472 1171.07 142.984 1173.38 143.496C1176.02 144.179 1178.18 144.861 1179.84 145.544C1181.51 146.184 1182.96 147.251 1184.19 148.744C1185.47 150.195 1186.14 152.157 1186.18 154.632C1186.18 156.723 1185.58 158.6 1184.39 160.264C1183.23 161.885 1181.55 163.165 1179.33 164.104C1177.15 165.043 1174.62 165.512 1171.71 165.512Z"
    fill="url(#paint0_linear_564_3138)" />
  <path
    d="M388.348 233.792C388.348 235.648 387.42 236.992 385.468 236.992C383.516 236.992 382.62 235.648 382.588 233.792H378.908C378.908 237.824 381.628 240.224 385.468 240.224C389.308 240.224 392.028 237.824 392.028 233.792V217.76H388.348V233.792ZM414.763 231.168C414.763 225.632 410.795 222.08 405.771 222.08C400.747 222.08 396.779 225.632 396.779 231.168C396.779 236.704 400.587 240.288 405.611 240.288C410.667 240.288 414.763 236.704 414.763 231.168ZM400.491 231.168C400.491 227.168 402.955 225.248 405.707 225.248C408.427 225.248 411.019 227.168 411.019 231.168C411.019 235.168 408.331 237.12 405.611 237.12C402.859 237.12 400.491 235.168 400.491 231.168ZM418.369 240H422.017V222.368H418.369V240ZM420.225 220.032C421.505 220.032 422.529 219.008 422.529 217.696C422.529 216.384 421.505 215.36 420.225 215.36C418.913 215.36 417.889 216.384 417.889 217.696C417.889 219.008 418.913 220.032 420.225 220.032ZM439.318 240H442.934V229.6C442.934 224.672 439.83 222.08 435.702 222.08C433.59 222.08 431.638 222.944 430.454 224.384V222.368H426.806V240H430.454V230.144C430.454 226.912 432.214 225.248 434.902 225.248C437.558 225.248 439.318 226.912 439.318 230.144V240ZM471.868 222.368H468.22V232.192C468.22 235.424 466.46 237.088 463.772 237.088C461.116 237.088 459.356 235.424 459.356 232.192V222.368H455.74V232.736C455.74 237.664 458.876 240.256 463.004 240.256C465.084 240.256 467.068 239.392 468.22 237.888V240H471.868V222.368ZM489.833 235.072C489.641 228.704 479.689 230.688 479.689 227.136C479.689 225.952 480.713 225.152 482.665 225.152C484.649 225.152 485.833 226.208 485.961 227.744H489.609C489.417 224.224 486.793 222.08 482.793 222.08C478.633 222.08 476.009 224.352 476.009 227.168C476.009 233.632 486.249 231.648 486.249 235.104C486.249 236.32 485.129 237.216 483.017 237.216C481.001 237.216 479.625 236.032 479.497 234.592H475.721C475.881 237.792 478.857 240.288 483.081 240.288C487.241 240.288 489.833 238.048 489.833 235.072ZM518.888 231.168C518.888 225.632 514.92 222.08 509.896 222.08C504.872 222.08 500.904 225.632 500.904 231.168C500.904 236.704 504.712 240.288 509.736 240.288C514.792 240.288 518.888 236.704 518.888 231.168ZM504.616 231.168C504.616 227.168 507.08 225.248 509.832 225.248C512.552 225.248 515.144 227.168 515.144 231.168C515.144 235.168 512.456 237.12 509.736 237.12C506.984 237.12 504.616 235.168 504.616 231.168ZM535.006 240H538.622V229.6C538.622 224.672 535.518 222.08 531.39 222.08C529.278 222.08 527.326 222.944 526.142 224.384V222.368H522.494V240H526.142V230.144C526.142 226.912 527.902 225.248 530.59 225.248C533.246 225.248 535.006 226.912 535.006 230.144V240ZM558.852 217.76H551.588V240H558.852C565.988 240 570.66 235.808 570.66 228.96C570.66 222.08 565.988 217.76 558.852 217.76ZM555.236 237.024V220.736H558.852C564.1 220.736 566.916 223.872 566.916 228.96C566.916 234.016 564.1 237.024 558.852 237.024H555.236ZM574.275 240H577.923V222.368H574.275V240ZM576.131 220.032C577.411 220.032 578.435 219.008 578.435 217.696C578.435 216.384 577.411 215.36 576.131 215.36C574.819 215.36 573.795 216.384 573.795 217.696C573.795 219.008 574.819 220.032 576.131 220.032ZM595.865 235.072C595.673 228.704 585.721 230.688 585.721 227.136C585.721 225.952 586.745 225.152 588.697 225.152C590.681 225.152 591.865 226.208 591.993 227.744H595.641C595.449 224.224 592.825 222.08 588.825 222.08C584.665 222.08 582.041 224.352 582.041 227.168C582.041 233.632 592.281 231.648 592.281 235.104C592.281 236.32 591.161 237.216 589.049 237.216C587.033 237.216 585.657 236.032 585.529 234.592H581.753C581.913 237.792 584.889 240.288 589.113 240.288C593.273 240.288 595.865 238.048 595.865 235.072ZM598.59 231.168C598.59 236.704 602.174 240.288 607.23 240.288C611.55 240.288 614.366 237.888 615.358 234.432H611.422C610.75 236.256 609.406 237.216 607.23 237.216C604.286 237.216 602.334 235.04 602.334 231.168C602.334 227.328 604.286 225.152 607.23 225.152C609.406 225.152 610.814 226.24 611.422 227.936H615.358C614.366 224.224 611.55 222.08 607.23 222.08C602.174 222.08 598.59 225.664 598.59 231.168ZM635.794 231.168C635.794 225.632 631.826 222.08 626.802 222.08C621.778 222.08 617.81 225.632 617.81 231.168C617.81 236.704 621.618 240.288 626.642 240.288C631.698 240.288 635.794 236.704 635.794 231.168ZM621.522 231.168C621.522 227.168 623.986 225.248 626.738 225.248C629.458 225.248 632.05 227.168 632.05 231.168C632.05 235.168 629.362 237.12 626.642 237.12C623.89 237.12 621.522 235.168 621.522 231.168ZM643.048 230.72C643.048 226.976 644.712 225.856 647.4 225.856H648.328V222.08C645.832 222.08 644.072 223.168 643.048 224.928V222.368H639.4V240H643.048V230.72ZM650.465 231.104C650.465 236.544 654.145 240.288 658.785 240.288C661.665 240.288 663.777 238.944 664.897 237.344V240H668.577V216.32H664.897V224.832C663.553 223.168 661.121 222.08 658.817 222.08C654.145 222.08 650.465 225.664 650.465 231.104ZM664.897 231.168C664.897 234.976 662.305 237.12 659.553 237.12C656.833 237.12 654.209 234.912 654.209 231.104C654.209 227.296 656.833 225.248 659.553 225.248C662.305 225.248 664.897 227.392 664.897 231.168ZM677.145 237.888C677.145 236.576 676.121 235.552 674.841 235.552C673.529 235.552 672.505 236.576 672.505 237.888C672.505 239.2 673.529 240.224 674.841 240.224C676.121 240.224 677.145 239.2 677.145 237.888ZM677.145 224.448C677.145 223.136 676.121 222.112 674.841 222.112C673.529 222.112 672.505 223.136 672.505 224.448C672.505 225.76 673.529 226.784 674.841 226.784C676.121 226.784 677.145 225.76 677.145 224.448ZM689.525 240H693.173V230.144C693.173 226.912 694.933 225.248 697.621 225.248C700.277 225.248 702.037 226.912 702.037 230.144V240H705.653V229.6C705.653 224.672 702.581 222.08 698.645 222.08C696.373 222.08 694.389 222.944 693.173 224.416V216.32H689.525V240ZM710.882 235.104C710.882 238.688 712.834 240 715.97 240H718.85V236.96H716.61C715.074 236.96 714.562 236.416 714.562 235.104V225.344H718.85V222.368H714.562V217.984H710.882V222.368H708.802V225.344H710.882V235.104ZM722.789 235.104C722.789 238.688 724.741 240 727.877 240H730.757V236.96H728.517C726.981 236.96 726.469 236.416 726.469 235.104V225.344H730.757V222.368H726.469V217.984H722.789V222.368H720.709V225.344H722.789V235.104ZM737.767 224.96V222.368H734.119V248.384H737.767V237.44C738.919 238.816 740.999 240.288 743.911 240.288C748.551 240.288 752.199 236.544 752.199 231.104C752.199 225.664 748.551 222.08 743.911 222.08C741.031 222.08 738.887 223.488 737.767 224.96ZM748.487 231.104C748.487 234.912 745.863 237.12 743.111 237.12C740.391 237.12 737.767 234.976 737.767 231.168C737.767 227.392 740.391 225.248 743.111 225.248C745.863 225.248 748.487 227.296 748.487 231.104ZM768.958 235.072C768.766 228.704 758.814 230.688 758.814 227.136C758.814 225.952 759.838 225.152 761.79 225.152C763.774 225.152 764.958 226.208 765.086 227.744H768.734C768.542 224.224 765.918 222.08 761.918 222.08C757.758 222.08 755.134 224.352 755.134 227.168C755.134 233.632 765.374 231.648 765.374 235.104C765.374 236.32 764.254 237.216 762.142 237.216C760.126 237.216 758.75 236.032 758.622 234.592H754.846C755.006 237.792 757.982 240.288 762.206 240.288C766.366 240.288 768.958 238.048 768.958 235.072ZM776.676 237.888C776.676 236.576 775.652 235.552 774.372 235.552C773.06 235.552 772.036 236.576 772.036 237.888C772.036 239.2 773.06 240.224 774.372 240.224C775.652 240.224 776.676 239.2 776.676 237.888ZM776.676 224.448C776.676 223.136 775.652 222.112 774.372 222.112C773.06 222.112 772.036 223.136 772.036 224.448C772.036 225.76 773.06 226.784 774.372 226.784C775.652 226.784 776.676 225.76 776.676 224.448ZM780.296 245.6H783.88L792.584 209.792H788.968L780.296 245.6ZM796.733 245.6H800.317L809.021 209.792H805.405L796.733 245.6ZM812.403 231.104C812.403 236.544 816.083 240.288 820.723 240.288C823.603 240.288 825.715 238.944 826.835 237.344V240H830.515V216.32H826.835V224.832C825.491 223.168 823.059 222.08 820.755 222.08C816.083 222.08 812.403 225.664 812.403 231.104ZM826.835 231.168C826.835 234.976 824.243 237.12 821.491 237.12C818.771 237.12 816.147 234.912 816.147 231.104C816.147 227.296 818.771 225.248 821.491 225.248C824.243 225.248 826.835 227.392 826.835 231.168ZM835.306 240H838.954V222.368H835.306V240ZM837.162 220.032C838.442 220.032 839.466 219.008 839.466 217.696C839.466 216.384 838.442 215.36 837.162 215.36C835.85 215.36 834.826 216.384 834.826 217.696C834.826 219.008 835.85 220.032 837.162 220.032ZM856.896 235.072C856.704 228.704 846.752 230.688 846.752 227.136C846.752 225.952 847.776 225.152 849.728 225.152C851.712 225.152 852.896 226.208 853.024 227.744H856.672C856.48 224.224 853.856 222.08 849.856 222.08C845.696 222.08 843.072 224.352 843.072 227.168C843.072 233.632 853.312 231.648 853.312 235.104C853.312 236.32 852.192 237.216 850.08 237.216C848.064 237.216 846.688 236.032 846.56 234.592H842.784C842.944 237.792 845.92 240.288 850.144 240.288C854.304 240.288 856.896 238.048 856.896 235.072ZM859.622 231.168C859.622 236.704 863.206 240.288 868.262 240.288C872.582 240.288 875.398 237.888 876.39 234.432H872.454C871.782 236.256 870.438 237.216 868.262 237.216C865.318 237.216 863.366 235.04 863.366 231.168C863.366 227.328 865.318 225.152 868.262 225.152C870.438 225.152 871.846 226.24 872.454 227.936H876.39C875.398 224.224 872.582 222.08 868.262 222.08C863.206 222.08 859.622 225.664 859.622 231.168ZM896.825 231.168C896.825 225.632 892.857 222.08 887.833 222.08C882.809 222.08 878.841 225.632 878.841 231.168C878.841 236.704 882.649 240.288 887.673 240.288C892.729 240.288 896.825 236.704 896.825 231.168ZM882.553 231.168C882.553 227.168 885.017 225.248 887.769 225.248C890.489 225.248 893.081 227.168 893.081 231.168C893.081 235.168 890.393 237.12 887.673 237.12C884.921 237.12 882.553 235.168 882.553 231.168ZM904.079 230.72C904.079 226.976 905.743 225.856 908.431 225.856H909.359V222.08C906.863 222.08 905.103 223.168 904.079 224.928V222.368H900.431V240H904.079V230.72ZM911.497 231.104C911.497 236.544 915.177 240.288 919.817 240.288C922.697 240.288 924.809 238.944 925.929 237.344V240H929.609V216.32H925.929V224.832C924.585 223.168 922.153 222.08 919.849 222.08C915.177 222.08 911.497 225.664 911.497 231.104ZM925.929 231.168C925.929 234.976 923.337 237.12 920.585 237.12C917.865 237.12 915.241 234.912 915.241 231.104C915.241 227.296 917.865 225.248 920.585 225.248C923.337 225.248 925.929 227.392 925.929 231.168ZM938.176 237.888C938.176 236.576 937.152 235.552 935.872 235.552C934.56 235.552 933.536 236.576 933.536 237.888C933.536 239.2 934.56 240.224 935.872 240.224C937.152 240.224 938.176 239.2 938.176 237.888ZM940.903 231.104C940.903 236.544 944.583 240.288 949.223 240.288C952.103 240.288 954.215 238.848 955.335 237.344V240.288C955.335 243.808 953.223 245.536 950.407 245.536C947.879 245.536 945.927 244.288 945.383 242.464H941.767C942.215 246.368 945.703 248.704 950.407 248.704C955.911 248.704 959.015 245.088 959.015 240.288V222.368H955.335V224.928C954.247 223.424 952.103 222.08 949.223 222.08C944.583 222.08 940.903 225.664 940.903 231.104ZM955.335 231.168C955.335 234.976 952.743 237.12 949.991 237.12C947.271 237.12 944.647 234.912 944.647 231.104C944.647 227.296 947.271 225.248 949.991 225.248C952.743 225.248 955.335 227.392 955.335 231.168ZM962.59 231.104C962.59 236.544 966.27 240.288 970.91 240.288C973.79 240.288 975.902 238.848 977.022 237.344V240.288C977.022 243.808 974.91 245.536 972.094 245.536C969.566 245.536 967.614 244.288 967.07 242.464H963.454C963.902 246.368 967.39 248.704 972.094 248.704C977.598 248.704 980.702 245.088 980.702 240.288V222.368H977.022V224.928C975.934 223.424 973.79 222.08 970.91 222.08C966.27 222.08 962.59 225.664 962.59 231.104ZM977.022 231.168C977.022 234.976 974.43 237.12 971.678 237.12C968.958 237.12 966.334 234.912 966.334 231.104C966.334 227.296 968.958 225.248 971.678 225.248C974.43 225.248 977.022 227.392 977.022 231.168ZM985.046 245.6H988.63L997.334 209.792H993.718L985.046 245.6ZM1015.08 235.072C1014.89 228.704 1004.94 230.688 1004.94 227.136C1004.94 225.952 1005.96 225.152 1007.92 225.152C1009.9 225.152 1011.08 226.208 1011.21 227.744H1014.86C1014.67 224.224 1012.04 222.08 1008.04 222.08C1003.88 222.08 1001.26 224.352 1001.26 227.168C1001.26 233.632 1011.5 231.648 1011.5 235.104C1011.5 236.32 1010.38 237.216 1008.27 237.216C1006.25 237.216 1004.88 236.032 1004.75 234.592H1000.97C1001.13 237.792 1004.11 240.288 1008.33 240.288C1012.49 240.288 1015.08 238.048 1015.08 235.072ZM1019.6 235.104C1019.6 238.688 1021.55 240 1024.69 240H1027.57V236.96H1025.33C1023.79 236.96 1023.28 236.416 1023.28 235.104V225.344H1027.57V222.368H1023.28V217.984H1019.6V222.368H1017.52V225.344H1019.6V235.104ZM1029.72 231.104C1029.72 236.544 1033.4 240.288 1037.97 240.288C1040.92 240.288 1043.03 238.88 1044.15 237.376V240H1047.83V222.368H1044.15V224.928C1043.06 223.488 1041.01 222.08 1038.04 222.08C1033.4 222.08 1029.72 225.664 1029.72 231.104ZM1044.15 231.168C1044.15 234.976 1041.56 237.12 1038.8 237.12C1036.08 237.12 1033.46 234.912 1033.46 231.104C1033.46 227.296 1036.08 225.248 1038.8 225.248C1041.56 225.248 1044.15 227.392 1044.15 231.168ZM1053.19 235.104C1053.19 238.688 1055.15 240 1058.28 240H1061.16V236.96H1058.92C1057.39 236.96 1056.87 236.416 1056.87 235.104V225.344H1061.16V222.368H1056.87V217.984H1053.19V222.368H1051.11V225.344H1053.19V235.104ZM1071.95 225.152C1074.67 225.152 1076.81 226.88 1076.88 229.6H1067.12C1067.5 226.816 1069.49 225.152 1071.95 225.152ZM1080.2 234.752H1076.27C1075.6 236.128 1074.35 237.216 1072.11 237.216C1069.42 237.216 1067.34 235.456 1067.09 232.544H1080.56C1080.65 231.936 1080.69 231.36 1080.69 230.752C1080.69 225.568 1077.13 222.08 1072.11 222.08C1066.89 222.08 1063.31 225.632 1063.31 231.168C1063.31 236.704 1067.05 240.288 1072.11 240.288C1076.43 240.288 1079.21 237.824 1080.2 234.752ZM1084.72 240H1088.4V225.344H1091.67V222.368H1088.4V221.12C1088.4 219.104 1089.17 218.336 1091.41 218.336V215.296C1086.8 215.296 1084.72 217.056 1084.72 221.12V222.368H1082.64V225.344H1084.72V240ZM1110.87 222.368H1107.22V232.192C1107.22 235.424 1105.46 237.088 1102.77 237.088C1100.12 237.088 1098.36 235.424 1098.36 232.192V222.368H1094.74V232.736C1094.74 237.664 1097.88 240.256 1102 240.256C1104.08 240.256 1106.07 239.392 1107.22 237.888V240H1110.87V222.368ZM1115.68 240H1119.33V216.32H1115.68V240Z"
    fill="white" />
  <path
    d="M189.956 283.92V288.464H197.284V292.688H189.956V297.616H198.244V302H184.484V279.536H198.244V283.92H189.956ZM209.829 296.88L213.701 284.144H219.525L213.189 302H206.437L200.101 284.144H205.957L209.829 296.88ZM238.66 292.784C238.66 293.296 238.628 293.829 238.564 294.384H226.18C226.265 295.493 226.617 296.347 227.236 296.944C227.876 297.52 228.654 297.808 229.572 297.808C230.937 297.808 231.886 297.232 232.42 296.08H238.244C237.945 297.253 237.401 298.309 236.612 299.248C235.844 300.187 234.873 300.923 233.7 301.456C232.526 301.989 231.214 302.256 229.764 302.256C228.014 302.256 226.457 301.883 225.092 301.136C223.726 300.389 222.66 299.323 221.892 297.936C221.124 296.549 220.74 294.928 220.74 293.072C220.74 291.216 221.113 289.595 221.86 288.208C222.628 286.821 223.694 285.755 225.06 285.008C226.425 284.261 227.993 283.888 229.764 283.888C231.492 283.888 233.028 284.251 234.372 284.976C235.716 285.701 236.761 286.736 237.508 288.08C238.276 289.424 238.66 290.992 238.66 292.784ZM233.06 291.344C233.06 290.405 232.74 289.659 232.1 289.104C231.46 288.549 230.66 288.272 229.7 288.272C228.782 288.272 228.004 288.539 227.364 289.072C226.745 289.605 226.361 290.363 226.212 291.344H233.06ZM247.019 287.12C247.659 286.139 248.459 285.371 249.419 284.816C250.379 284.24 251.445 283.952 252.619 283.952V289.744H251.115C249.749 289.744 248.725 290.043 248.043 290.64C247.36 291.216 247.019 292.24 247.019 293.712V302H241.547V284.144H247.019V287.12ZM273.474 284.144L262.274 310.48H256.386L260.482 301.392L253.218 284.144H259.33L263.458 295.312L267.554 284.144H273.474ZM281.498 297.616C282.223 297.04 282.554 296.773 282.49 296.816C284.581 295.088 286.223 293.669 287.418 292.56C288.634 291.451 289.658 290.288 290.49 289.072C291.322 287.856 291.738 286.672 291.738 285.52C291.738 284.645 291.535 283.963 291.13 283.472C290.725 282.981 290.117 282.736 289.306 282.736C288.495 282.736 287.855 283.045 287.386 283.664C286.938 284.261 286.714 285.115 286.714 286.224H281.434C281.477 284.411 281.861 282.896 282.586 281.68C283.333 280.464 284.303 279.568 285.498 278.992C286.714 278.416 288.058 278.128 289.53 278.128C292.069 278.128 293.978 278.779 295.258 280.08C296.559 281.381 297.21 283.077 297.21 285.168C297.21 287.451 296.431 289.573 294.874 291.536C293.317 293.477 291.333 295.376 288.922 297.232H297.562V301.68H281.498V297.616ZM338.208 279.536L332.353 302H325.729L322.145 287.216L318.433 302H311.809L306.113 279.536H311.969L315.201 295.888L319.201 279.536H325.217L329.057 295.888L332.321 279.536H338.208ZM357.785 292.784C357.785 293.296 357.753 293.829 357.689 294.384H345.305C345.39 295.493 345.742 296.347 346.361 296.944C347.001 297.52 347.779 297.808 348.697 297.808C350.062 297.808 351.011 297.232 351.545 296.08H357.369C357.07 297.253 356.526 298.309 355.737 299.248C354.969 300.187 353.998 300.923 352.825 301.456C351.651 301.989 350.339 302.256 348.889 302.256C347.139 302.256 345.582 301.883 344.217 301.136C342.851 300.389 341.785 299.323 341.017 297.936C340.249 296.549 339.865 294.928 339.865 293.072C339.865 291.216 340.238 289.595 340.985 288.208C341.753 286.821 342.819 285.755 344.185 285.008C345.55 284.261 347.118 283.888 348.889 283.888C350.617 283.888 352.153 284.251 353.497 284.976C354.841 285.701 355.886 286.736 356.633 288.08C357.401 289.424 357.785 290.992 357.785 292.784ZM352.185 291.344C352.185 290.405 351.865 289.659 351.225 289.104C350.585 288.549 349.785 288.272 348.825 288.272C347.907 288.272 347.129 288.539 346.489 289.072C345.87 289.605 345.486 290.363 345.337 291.344H352.185ZM377.503 292.784C377.503 293.296 377.472 293.829 377.408 294.384H365.024C365.109 295.493 365.461 296.347 366.08 296.944C366.72 297.52 367.498 297.808 368.416 297.808C369.781 297.808 370.73 297.232 371.264 296.08H377.088C376.789 297.253 376.245 298.309 375.456 299.248C374.688 300.187 373.717 300.923 372.544 301.456C371.37 301.989 370.058 302.256 368.608 302.256C366.858 302.256 365.301 301.883 363.936 301.136C362.57 300.389 361.504 299.323 360.736 297.936C359.968 296.549 359.584 294.928 359.584 293.072C359.584 291.216 359.957 289.595 360.704 288.208C361.472 286.821 362.538 285.755 363.904 285.008C365.269 284.261 366.837 283.888 368.608 283.888C370.336 283.888 371.872 284.251 373.216 284.976C374.56 285.701 375.605 286.736 376.352 288.08C377.12 289.424 377.503 290.992 377.503 292.784ZM371.904 291.344C371.904 290.405 371.584 289.659 370.944 289.104C370.304 288.549 369.504 288.272 368.544 288.272C367.626 288.272 366.848 288.539 366.208 289.072C365.589 289.605 365.205 290.363 365.056 291.344H371.904ZM391.302 302L385.862 294.512V302H380.39V278.32H385.862V291.408L391.27 284.144H398.022L390.598 293.104L398.086 302H391.302ZM407.436 302.256C405.878 302.256 404.492 301.989 403.276 301.456C402.06 300.923 401.1 300.197 400.396 299.28C399.692 298.341 399.297 297.296 399.212 296.144H404.62C404.684 296.763 404.972 297.264 405.484 297.648C405.996 298.032 406.625 298.224 407.372 298.224C408.054 298.224 408.577 298.096 408.94 297.84C409.324 297.563 409.516 297.211 409.516 296.784C409.516 296.272 409.249 295.899 408.716 295.664C408.182 295.408 407.318 295.131 406.124 294.832C404.844 294.533 403.777 294.224 402.924 293.904C402.07 293.563 401.334 293.04 400.716 292.336C400.097 291.611 399.788 290.64 399.788 289.424C399.788 288.4 400.065 287.472 400.62 286.64C401.196 285.787 402.028 285.115 403.116 284.624C404.225 284.133 405.537 283.888 407.052 283.888C409.292 283.888 411.052 284.443 412.332 285.552C413.633 286.661 414.38 288.133 414.572 289.968H409.516C409.43 289.349 409.153 288.859 408.684 288.496C408.236 288.133 407.638 287.952 406.892 287.952C406.252 287.952 405.761 288.08 405.42 288.336C405.078 288.571 404.908 288.901 404.908 289.328C404.908 289.84 405.174 290.224 405.708 290.48C406.262 290.736 407.116 290.992 408.268 291.248C409.59 291.589 410.668 291.931 411.5 292.272C412.332 292.592 413.057 293.125 413.676 293.872C414.316 294.597 414.646 295.579 414.668 296.816C414.668 297.861 414.369 298.8 413.772 299.632C413.196 300.443 412.353 301.083 411.244 301.552C410.156 302.021 408.886 302.256 407.436 302.256ZM432.925 302.256C431.175 302.256 429.597 301.883 428.189 301.136C426.802 300.389 425.703 299.323 424.893 297.936C424.103 296.549 423.709 294.928 423.709 293.072C423.709 291.237 424.114 289.627 424.924 288.24C425.735 286.832 426.845 285.755 428.253 285.008C429.661 284.261 431.239 283.888 432.989 283.888C434.738 283.888 436.317 284.261 437.725 285.008C439.133 285.755 440.242 286.832 441.053 288.24C441.863 289.627 442.269 291.237 442.269 293.072C442.269 294.907 441.853 296.528 441.021 297.936C440.21 299.323 439.09 300.389 437.661 301.136C436.253 301.883 434.674 302.256 432.925 302.256ZM432.925 297.52C433.97 297.52 434.855 297.136 435.581 296.368C436.327 295.6 436.701 294.501 436.701 293.072C436.701 291.643 436.338 290.544 435.613 289.776C434.909 289.008 434.034 288.624 432.989 288.624C431.922 288.624 431.037 289.008 430.333 289.776C429.629 290.523 429.277 291.621 429.277 293.072C429.277 294.501 429.618 295.6 430.301 296.368C431.005 297.136 431.879 297.52 432.925 297.52ZM456.052 283.952C458.142 283.952 459.806 284.635 461.044 286C462.302 287.344 462.932 289.2 462.932 291.568V302H457.492V292.304C457.492 291.109 457.182 290.181 456.564 289.52C455.945 288.859 455.113 288.528 454.068 288.528C453.022 288.528 452.19 288.859 451.572 289.52C450.953 290.181 450.644 291.109 450.644 292.304V302H445.172V284.144H450.644V286.512C451.198 285.723 451.945 285.104 452.884 284.656C453.822 284.187 454.878 283.952 456.052 283.952ZM489.675 279.536V283.92H483.723V302H478.251V283.92H472.299V279.536H489.675ZM510.054 284.144V302H504.582V299.568C504.027 300.357 503.27 300.997 502.31 301.488C501.371 301.957 500.326 302.192 499.174 302.192C497.808 302.192 496.603 301.893 495.558 301.296C494.512 300.677 493.702 299.792 493.126 298.64C492.55 297.488 492.262 296.133 492.262 294.576V284.144H497.702V293.84C497.702 295.035 498.011 295.963 498.63 296.624C499.248 297.285 500.08 297.616 501.126 297.616C502.192 297.616 503.035 297.285 503.654 296.624C504.272 295.963 504.582 295.035 504.582 293.84V284.144H510.054ZM530.816 292.784C530.816 293.296 530.784 293.829 530.72 294.384H518.336C518.421 295.493 518.773 296.347 519.392 296.944C520.032 297.52 520.811 297.808 521.728 297.808C523.093 297.808 524.043 297.232 524.576 296.08H530.4C530.101 297.253 529.557 298.309 528.768 299.248C528 300.187 527.029 300.923 525.856 301.456C524.683 301.989 523.371 302.256 521.92 302.256C520.171 302.256 518.613 301.883 517.248 301.136C515.883 300.389 514.816 299.323 514.048 297.936C513.28 296.549 512.896 294.928 512.896 293.072C512.896 291.216 513.269 289.595 514.016 288.208C514.784 286.821 515.851 285.755 517.216 285.008C518.581 284.261 520.149 283.888 521.92 283.888C523.648 283.888 525.184 284.251 526.528 284.976C527.872 285.701 528.917 286.736 529.664 288.08C530.432 289.424 530.816 290.992 530.816 292.784ZM525.216 291.344C525.216 290.405 524.896 289.659 524.256 289.104C523.616 288.549 522.816 288.272 521.856 288.272C520.939 288.272 520.16 288.539 519.52 289.072C518.901 289.605 518.517 290.363 518.368 291.344H525.216ZM540.967 302.256C539.409 302.256 538.023 301.989 536.807 301.456C535.591 300.923 534.631 300.197 533.927 299.28C533.223 298.341 532.828 297.296 532.743 296.144H538.151C538.215 296.763 538.503 297.264 539.015 297.648C539.527 298.032 540.156 298.224 540.903 298.224C541.585 298.224 542.108 298.096 542.471 297.84C542.855 297.563 543.047 297.211 543.047 296.784C543.047 296.272 542.78 295.899 542.247 295.664C541.713 295.408 540.849 295.131 539.655 294.832C538.375 294.533 537.308 294.224 536.455 293.904C535.601 293.563 534.865 293.04 534.247 292.336C533.628 291.611 533.319 290.64 533.319 289.424C533.319 288.4 533.596 287.472 534.151 286.64C534.727 285.787 535.559 285.115 536.647 284.624C537.756 284.133 539.068 283.888 540.583 283.888C542.823 283.888 544.583 284.443 545.863 285.552C547.164 286.661 547.911 288.133 548.103 289.968H543.047C542.961 289.349 542.684 288.859 542.215 288.496C541.767 288.133 541.169 287.952 540.423 287.952C539.783 287.952 539.292 288.08 538.951 288.336C538.609 288.571 538.439 288.901 538.439 289.328C538.439 289.84 538.705 290.224 539.239 290.48C539.793 290.736 540.647 290.992 541.799 291.248C543.121 291.589 544.199 291.931 545.031 292.272C545.863 292.592 546.588 293.125 547.207 293.872C547.847 294.597 548.177 295.579 548.199 296.816C548.199 297.861 547.9 298.8 547.303 299.632C546.727 300.443 545.884 301.083 544.775 301.552C543.687 302.021 542.417 302.256 540.967 302.256ZM550.459 293.04C550.459 291.205 550.8 289.595 551.483 288.208C552.187 286.821 553.136 285.755 554.331 285.008C555.525 284.261 556.859 283.888 558.331 283.888C559.504 283.888 560.571 284.133 561.531 284.624C562.512 285.115 563.28 285.776 563.835 286.608V278.32H569.307V302H563.835V299.44C563.323 300.293 562.587 300.976 561.627 301.488C560.688 302 559.589 302.256 558.331 302.256C556.859 302.256 555.525 301.883 554.331 301.136C553.136 300.368 552.187 299.291 551.483 297.904C550.8 296.496 550.459 294.875 550.459 293.04ZM563.835 293.072C563.835 291.707 563.451 290.629 562.683 289.84C561.936 289.051 561.019 288.656 559.931 288.656C558.843 288.656 557.915 289.051 557.147 289.84C556.4 290.608 556.027 291.675 556.027 293.04C556.027 294.405 556.4 295.493 557.147 296.304C557.915 297.093 558.843 297.488 559.931 297.488C561.019 297.488 561.936 297.093 562.683 296.304C563.451 295.515 563.835 294.437 563.835 293.072ZM572.177 293.04C572.177 291.205 572.519 289.595 573.201 288.208C573.905 286.821 574.855 285.755 576.049 285.008C577.244 284.261 578.577 283.888 580.049 283.888C581.308 283.888 582.407 284.144 583.345 284.656C584.305 285.168 585.041 285.84 585.553 286.672V284.144H591.025V302H585.553V299.472C585.02 300.304 584.273 300.976 583.313 301.488C582.375 302 581.276 302.256 580.017 302.256C578.567 302.256 577.244 301.883 576.049 301.136C574.855 300.368 573.905 299.291 573.201 297.904C572.519 296.496 572.177 294.875 572.177 293.04ZM585.553 293.072C585.553 291.707 585.169 290.629 584.401 289.84C583.655 289.051 582.737 288.656 581.649 288.656C580.561 288.656 579.633 289.051 578.865 289.84C578.119 290.608 577.745 291.675 577.745 293.04C577.745 294.405 578.119 295.493 578.865 296.304C579.633 297.093 580.561 297.488 581.649 297.488C582.737 297.488 583.655 297.093 584.401 296.304C585.169 295.515 585.553 294.437 585.553 293.072ZM613.224 284.144L602.024 310.48H596.136L600.232 301.392L592.968 284.144H599.08L603.208 295.312L607.304 284.144H613.224ZM622.467 302.256C620.909 302.256 619.523 301.989 618.307 301.456C617.091 300.923 616.131 300.197 615.427 299.28C614.723 298.341 614.328 297.296 614.243 296.144H619.651C619.715 296.763 620.003 297.264 620.515 297.648C621.027 298.032 621.656 298.224 622.403 298.224C623.085 298.224 623.608 298.096 623.971 297.84C624.355 297.563 624.547 297.211 624.547 296.784C624.547 296.272 624.28 295.899 623.747 295.664C623.213 295.408 622.349 295.131 621.155 294.832C619.875 294.533 618.808 294.224 617.955 293.904C617.101 293.563 616.365 293.04 615.747 292.336C615.128 291.611 614.819 290.64 614.819 289.424C614.819 288.4 615.096 287.472 615.651 286.64C616.227 285.787 617.059 285.115 618.147 284.624C619.256 284.133 620.568 283.888 622.083 283.888C624.323 283.888 626.083 284.443 627.363 285.552C628.664 286.661 629.411 288.133 629.603 289.968H624.547C624.461 289.349 624.184 288.859 623.715 288.496C623.267 288.133 622.669 287.952 621.923 287.952C621.283 287.952 620.792 288.08 620.451 288.336C620.109 288.571 619.939 288.901 619.939 289.328C619.939 289.84 620.205 290.224 620.739 290.48C621.293 290.736 622.147 290.992 623.299 291.248C624.621 291.589 625.699 291.931 626.531 292.272C627.363 292.592 628.088 293.125 628.707 293.872C629.347 294.597 629.677 295.579 629.699 296.816C629.699 297.861 629.4 298.8 628.803 299.632C628.227 300.443 627.384 301.083 626.275 301.552C625.187 302.021 623.917 302.256 622.467 302.256ZM653.588 288.496V293.04H639.508V288.496H653.588ZM664.052 283.728V278.64H672.916V302H667.22V283.728H664.052ZM676.659 290C676.659 286.331 677.363 283.44 678.771 281.328C680.2 279.216 682.493 278.16 685.651 278.16C688.808 278.16 691.091 279.216 692.499 281.328C693.928 283.44 694.643 286.331 694.643 290C694.643 293.712 693.928 296.624 692.499 298.736C691.091 300.848 688.808 301.904 685.651 301.904C682.493 301.904 680.2 300.848 678.771 298.736C677.363 296.624 676.659 293.712 676.659 290ZM689.267 290C689.267 287.845 689.032 286.192 688.563 285.04C688.093 283.867 687.123 283.28 685.651 283.28C684.179 283.28 683.208 283.867 682.739 285.04C682.269 286.192 682.035 287.845 682.035 290C682.035 291.451 682.12 292.656 682.291 293.616C682.461 294.555 682.803 295.323 683.315 295.92C683.848 296.496 684.627 296.784 685.651 296.784C686.675 296.784 687.443 296.496 687.955 295.92C688.488 295.323 688.84 294.555 689.011 293.616C689.181 292.656 689.267 291.451 689.267 290ZM700.638 302.256C699.678 302.256 698.888 301.979 698.27 301.424C697.672 300.848 697.374 300.144 697.374 299.312C697.374 298.459 697.672 297.744 698.27 297.168C698.888 296.592 699.678 296.304 700.638 296.304C701.576 296.304 702.344 296.592 702.942 297.168C703.56 297.744 703.87 298.459 703.87 299.312C703.87 300.144 703.56 300.848 702.942 301.424C702.344 301.979 701.576 302.256 700.638 302.256ZM700.638 289.232C699.678 289.232 698.888 288.955 698.27 288.4C697.672 287.824 697.374 287.12 697.374 286.288C697.374 285.435 697.672 284.72 698.27 284.144C698.888 283.568 699.678 283.28 700.638 283.28C701.576 283.28 702.344 283.568 702.942 284.144C703.56 284.72 703.87 285.435 703.87 286.288C703.87 287.12 703.56 287.824 702.942 288.4C702.344 288.955 701.576 289.232 700.638 289.232ZM706.628 290C706.628 286.331 707.332 283.44 708.74 281.328C710.169 279.216 712.462 278.16 715.62 278.16C718.777 278.16 721.06 279.216 722.468 281.328C723.897 283.44 724.612 286.331 724.612 290C724.612 293.712 723.897 296.624 722.468 298.736C721.06 300.848 718.777 301.904 715.62 301.904C712.462 301.904 710.169 300.848 708.74 298.736C707.332 296.624 706.628 293.712 706.628 290ZM719.236 290C719.236 287.845 719.001 286.192 718.532 285.04C718.062 283.867 717.092 283.28 715.62 283.28C714.148 283.28 713.177 283.867 712.708 285.04C712.238 286.192 712.004 287.845 712.004 290C712.004 291.451 712.089 292.656 712.26 293.616C712.43 294.555 712.772 295.323 713.284 295.92C713.817 296.496 714.596 296.784 715.62 296.784C716.644 296.784 717.412 296.496 717.924 295.92C718.457 295.323 718.809 294.555 718.98 293.616C719.15 292.656 719.236 291.451 719.236 290ZM727.503 290C727.503 286.331 728.207 283.44 729.615 281.328C731.044 279.216 733.337 278.16 736.495 278.16C739.652 278.16 741.935 279.216 743.343 281.328C744.772 283.44 745.487 286.331 745.487 290C745.487 293.712 744.772 296.624 743.343 298.736C741.935 300.848 739.652 301.904 736.495 301.904C733.337 301.904 731.044 300.848 729.615 298.736C728.207 296.624 727.503 293.712 727.503 290ZM740.111 290C740.111 287.845 739.876 286.192 739.407 285.04C738.937 283.867 737.967 283.28 736.495 283.28C735.023 283.28 734.052 283.867 733.583 285.04C733.113 286.192 732.879 287.845 732.879 290C732.879 291.451 732.964 292.656 733.135 293.616C733.305 294.555 733.647 295.323 734.159 295.92C734.692 296.496 735.471 296.784 736.495 296.784C737.519 296.784 738.287 296.496 738.799 295.92C739.332 295.323 739.684 294.555 739.855 293.616C740.025 292.656 740.111 291.451 740.111 290ZM773.719 288.496V293.04H755.959V288.496H773.719ZM783.614 283.728V278.64H792.478V302H786.782V283.728H783.614ZM795.645 283.728V278.64H804.509V302H798.813V283.728H795.645ZM811.357 302.256C810.397 302.256 809.607 301.979 808.989 301.424C808.391 300.848 808.093 300.144 808.093 299.312C808.093 298.459 808.391 297.744 808.989 297.168C809.607 296.592 810.397 296.304 811.357 296.304C812.295 296.304 813.063 296.592 813.661 297.168C814.279 297.744 814.589 298.459 814.589 299.312C814.589 300.144 814.279 300.848 813.661 301.424C813.063 301.979 812.295 302.256 811.357 302.256ZM811.357 289.232C810.397 289.232 809.607 288.955 808.989 288.4C808.391 287.824 808.093 287.12 808.093 286.288C808.093 285.435 808.391 284.72 808.989 284.144C809.607 283.568 810.397 283.28 811.357 283.28C812.295 283.28 813.063 283.568 813.661 284.144C814.279 284.72 814.589 285.435 814.589 286.288C814.589 287.12 814.279 287.824 813.661 288.4C813.063 288.955 812.295 289.232 811.357 289.232ZM817.346 290C817.346 286.331 818.05 283.44 819.458 281.328C820.888 279.216 823.181 278.16 826.338 278.16C829.496 278.16 831.778 279.216 833.186 281.328C834.616 283.44 835.33 286.331 835.33 290C835.33 293.712 834.616 296.624 833.186 298.736C831.778 300.848 829.496 301.904 826.338 301.904C823.181 301.904 820.888 300.848 819.458 298.736C818.05 296.624 817.346 293.712 817.346 290ZM829.954 290C829.954 287.845 829.72 286.192 829.25 285.04C828.781 283.867 827.81 283.28 826.338 283.28C824.866 283.28 823.896 283.867 823.426 285.04C822.957 286.192 822.722 287.845 822.722 290C822.722 291.451 822.808 292.656 822.978 293.616C823.149 294.555 823.49 295.323 824.002 295.92C824.536 296.496 825.314 296.784 826.338 296.784C827.362 296.784 828.13 296.496 828.642 295.92C829.176 295.323 829.528 294.555 829.698 293.616C829.869 292.656 829.954 291.451 829.954 290ZM838.221 290C838.221 286.331 838.925 283.44 840.333 281.328C841.763 279.216 844.056 278.16 847.213 278.16C850.371 278.16 852.653 279.216 854.061 281.328C855.491 283.44 856.205 286.331 856.205 290C856.205 293.712 855.491 296.624 854.061 298.736C852.653 300.848 850.371 301.904 847.213 301.904C844.056 301.904 841.763 300.848 840.333 298.736C838.925 296.624 838.221 293.712 838.221 290ZM850.829 290C850.829 287.845 850.595 286.192 850.125 285.04C849.656 283.867 848.685 283.28 847.213 283.28C845.741 283.28 844.771 283.867 844.301 285.04C843.832 286.192 843.597 287.845 843.597 290C843.597 291.451 843.683 292.656 843.853 293.616C844.024 294.555 844.365 295.323 844.877 295.92C845.411 296.496 846.189 296.784 847.213 296.784C848.237 296.784 849.005 296.496 849.517 295.92C850.051 295.323 850.403 294.555 850.573 293.616C850.744 292.656 850.829 291.451 850.829 290ZM865.112 286.672C865.646 285.84 866.382 285.168 867.32 284.656C868.259 284.144 869.358 283.888 870.616 283.888C872.088 283.888 873.422 284.261 874.616 285.008C875.811 285.755 876.75 286.821 877.432 288.208C878.136 289.595 878.488 291.205 878.488 293.04C878.488 294.875 878.136 296.496 877.432 297.904C876.75 299.291 875.811 300.368 874.616 301.136C873.422 301.883 872.088 302.256 870.616 302.256C869.379 302.256 868.28 302 867.32 301.488C866.382 300.976 865.646 300.315 865.112 299.504V310.512H859.64V284.144H865.112V286.672ZM872.92 293.04C872.92 291.675 872.536 290.608 871.768 289.84C871.022 289.051 870.094 288.656 868.984 288.656C867.896 288.656 866.968 289.051 866.2 289.84C865.454 290.629 865.08 291.707 865.08 293.072C865.08 294.437 865.454 295.515 866.2 296.304C866.968 297.093 867.896 297.488 868.984 297.488C870.072 297.488 871 297.093 871.768 296.304C872.536 295.493 872.92 294.405 872.92 293.04ZM904.143 283.952C906.362 283.952 908.122 284.624 909.423 285.968C910.746 287.312 911.407 289.179 911.407 291.568V302H905.967V292.304C905.967 291.152 905.658 290.267 905.039 289.648C904.442 289.008 903.61 288.688 902.543 288.688C901.476 288.688 900.634 289.008 900.015 289.648C899.418 290.267 899.119 291.152 899.119 292.304V302H893.679V292.304C893.679 291.152 893.37 290.267 892.751 289.648C892.154 289.008 891.322 288.688 890.255 288.688C889.188 288.688 888.346 289.008 887.727 289.648C887.13 290.267 886.831 291.152 886.831 292.304V302H881.359V284.144H886.831V286.384C887.386 285.637 888.111 285.051 889.007 284.624C889.903 284.176 890.916 283.952 892.047 283.952C893.391 283.952 894.586 284.24 895.631 284.816C896.698 285.392 897.53 286.213 898.127 287.28C898.746 286.299 899.588 285.499 900.655 284.88C901.722 284.261 902.884 283.952 904.143 283.952ZM921.087 290.736C921.087 288.517 921.567 286.544 922.527 284.816C923.487 283.067 924.821 281.712 926.527 280.752C928.255 279.771 930.207 279.28 932.383 279.28C935.05 279.28 937.333 279.984 939.231 281.392C941.13 282.8 942.399 284.72 943.039 287.152H937.023C936.575 286.213 935.935 285.499 935.103 285.008C934.293 284.517 933.365 284.272 932.319 284.272C930.634 284.272 929.269 284.859 928.223 286.032C927.178 287.205 926.655 288.773 926.655 290.736C926.655 292.699 927.178 294.267 928.223 295.44C929.269 296.613 930.634 297.2 932.319 297.2C933.365 297.2 934.293 296.955 935.103 296.464C935.935 295.973 936.575 295.259 937.023 294.32H943.039C942.399 296.752 941.13 298.672 939.231 300.08C937.333 301.467 935.05 302.16 932.383 302.16C930.207 302.16 928.255 301.68 926.527 300.72C924.821 299.739 923.487 298.384 922.527 296.656C921.567 294.928 921.087 292.955 921.087 290.736ZM951.862 283.92V288.464H959.19V292.688H951.862V297.616H960.15V302H946.39V279.536H960.15V283.92H951.862ZM971.831 302.224C970.188 302.224 968.716 301.957 967.415 301.424C966.113 300.891 965.068 300.101 964.279 299.056C963.511 298.011 963.105 296.752 963.063 295.28H968.887C968.972 296.112 969.26 296.752 969.751 297.2C970.241 297.627 970.881 297.84 971.671 297.84C972.481 297.84 973.121 297.659 973.591 297.296C974.06 296.912 974.295 296.389 974.295 295.728C974.295 295.173 974.103 294.715 973.719 294.352C973.356 293.989 972.897 293.691 972.343 293.456C971.809 293.221 971.041 292.955 970.039 292.656C968.588 292.208 967.404 291.76 966.487 291.312C965.569 290.864 964.78 290.203 964.119 289.328C963.457 288.453 963.127 287.312 963.127 285.904C963.127 283.813 963.884 282.181 965.399 281.008C966.913 279.813 968.887 279.216 971.319 279.216C973.793 279.216 975.788 279.813 977.303 281.008C978.817 282.181 979.628 283.824 979.735 285.936H973.815C973.772 285.211 973.505 284.645 973.015 284.24C972.524 283.813 971.895 283.6 971.127 283.6C970.465 283.6 969.932 283.781 969.527 284.144C969.121 284.485 968.919 284.987 968.919 285.648C968.919 286.373 969.26 286.939 969.943 287.344C970.625 287.749 971.692 288.187 973.143 288.656C974.593 289.147 975.767 289.616 976.663 290.064C977.58 290.512 978.369 291.163 979.031 292.016C979.692 292.869 980.023 293.968 980.023 295.312C980.023 296.592 979.692 297.755 979.031 298.8C978.391 299.845 977.452 300.677 976.215 301.296C974.977 301.915 973.516 302.224 971.831 302.224ZM999.55 279.536V283.92H993.598V302H988.126V283.92H982.174V279.536H999.55ZM1021.27 271.6L1012.69 307.984H1007.41L1015.99 271.6H1021.27ZM1029.24 283.728V278.64H1038.1V302H1032.41V283.728H1029.24ZM1044.95 302.256C1043.99 302.256 1043.2 301.979 1042.58 301.424C1041.98 300.848 1041.69 300.144 1041.69 299.312C1041.69 298.459 1041.98 297.744 1042.58 297.168C1043.2 296.592 1043.99 296.304 1044.95 296.304C1045.89 296.304 1046.66 296.592 1047.25 297.168C1047.87 297.744 1048.18 298.459 1048.18 299.312C1048.18 300.144 1047.87 300.848 1047.25 301.424C1046.66 301.979 1045.89 302.256 1044.95 302.256ZM1044.95 289.232C1043.99 289.232 1043.2 288.955 1042.58 288.4C1041.98 287.824 1041.69 287.12 1041.69 286.288C1041.69 285.435 1041.98 284.72 1042.58 284.144C1043.2 283.568 1043.99 283.28 1044.95 283.28C1045.89 283.28 1046.66 283.568 1047.25 284.144C1047.87 284.72 1048.18 285.435 1048.18 286.288C1048.18 287.12 1047.87 287.824 1047.25 288.4C1046.66 288.955 1045.89 289.232 1044.95 289.232ZM1050.94 290C1050.94 286.331 1051.64 283.44 1053.05 281.328C1054.48 279.216 1056.77 278.16 1059.93 278.16C1063.09 278.16 1065.37 279.216 1066.78 281.328C1068.21 283.44 1068.92 286.331 1068.92 290C1068.92 293.712 1068.21 296.624 1066.78 298.736C1065.37 300.848 1063.09 301.904 1059.93 301.904C1056.77 301.904 1054.48 300.848 1053.05 298.736C1051.64 296.624 1050.94 293.712 1050.94 290ZM1063.55 290C1063.55 287.845 1063.31 286.192 1062.84 285.04C1062.37 283.867 1061.4 283.28 1059.93 283.28C1058.46 283.28 1057.49 283.867 1057.02 285.04C1056.55 286.192 1056.32 287.845 1056.32 290C1056.32 291.451 1056.4 292.656 1056.57 293.616C1056.74 294.555 1057.08 295.323 1057.6 295.92C1058.13 296.496 1058.91 296.784 1059.93 296.784C1060.96 296.784 1061.72 296.496 1062.24 295.92C1062.77 295.323 1063.12 294.555 1063.29 293.616C1063.46 292.656 1063.55 291.451 1063.55 290ZM1071.82 290C1071.82 286.331 1072.52 283.44 1073.93 281.328C1075.36 279.216 1077.65 278.16 1080.81 278.16C1083.96 278.16 1086.25 279.216 1087.66 281.328C1089.08 283.44 1089.8 286.331 1089.8 290C1089.8 293.712 1089.08 296.624 1087.66 298.736C1086.25 300.848 1083.96 301.904 1080.81 301.904C1077.65 301.904 1075.36 300.848 1073.93 298.736C1072.52 296.624 1071.82 293.712 1071.82 290ZM1084.42 290C1084.42 287.845 1084.19 286.192 1083.72 285.04C1083.25 283.867 1082.28 283.28 1080.81 283.28C1079.34 283.28 1078.36 283.867 1077.9 285.04C1077.43 286.192 1077.19 287.845 1077.19 290C1077.19 291.451 1077.28 292.656 1077.45 293.616C1077.62 294.555 1077.96 295.323 1078.47 295.92C1079 296.496 1079.78 296.784 1080.81 296.784C1081.83 296.784 1082.6 296.496 1083.11 295.92C1083.64 295.323 1084 294.555 1084.17 293.616C1084.34 292.656 1084.42 291.451 1084.42 290ZM1118.03 288.496V293.04H1100.27V288.496H1118.03ZM1128.31 297.616C1129.04 297.04 1129.37 296.773 1129.3 296.816C1131.39 295.088 1133.04 293.669 1134.23 292.56C1135.45 291.451 1136.47 290.288 1137.3 289.072C1138.13 287.856 1138.55 286.672 1138.55 285.52C1138.55 284.645 1138.35 283.963 1137.94 283.472C1137.54 282.981 1136.93 282.736 1136.12 282.736C1135.31 282.736 1134.67 283.045 1134.2 283.664C1133.75 284.261 1133.53 285.115 1133.53 286.224H1128.25C1128.29 284.411 1128.67 282.896 1129.4 281.68C1130.15 280.464 1131.12 279.568 1132.31 278.992C1133.53 278.416 1134.87 278.128 1136.34 278.128C1138.88 278.128 1140.79 278.779 1142.07 280.08C1143.37 281.381 1144.02 283.077 1144.02 285.168C1144.02 287.451 1143.24 289.573 1141.69 291.536C1140.13 293.477 1138.15 295.376 1135.73 297.232H1144.37V301.68H1128.31V297.616ZM1149.89 302.256C1148.93 302.256 1148.14 301.979 1147.52 301.424C1146.92 300.848 1146.62 300.144 1146.62 299.312C1146.62 298.459 1146.92 297.744 1147.52 297.168C1148.14 296.592 1148.93 296.304 1149.89 296.304C1150.83 296.304 1151.59 296.592 1152.19 297.168C1152.81 297.744 1153.12 298.459 1153.12 299.312C1153.12 300.144 1152.81 300.848 1152.19 301.424C1151.59 301.979 1150.83 302.256 1149.89 302.256ZM1149.89 289.232C1148.93 289.232 1148.14 288.955 1147.52 288.4C1146.92 287.824 1146.62 287.12 1146.62 286.288C1146.62 285.435 1146.92 284.72 1147.52 284.144C1148.14 283.568 1148.93 283.28 1149.89 283.28C1150.83 283.28 1151.59 283.568 1152.19 284.144C1152.81 284.72 1153.12 285.435 1153.12 286.288C1153.12 287.12 1152.81 287.824 1152.19 288.4C1151.59 288.955 1150.83 289.232 1149.89 289.232ZM1155.88 290C1155.88 286.331 1156.58 283.44 1157.99 281.328C1159.42 279.216 1161.71 278.16 1164.87 278.16C1168.03 278.16 1170.31 279.216 1171.72 281.328C1173.15 283.44 1173.86 286.331 1173.86 290C1173.86 293.712 1173.15 296.624 1171.72 298.736C1170.31 300.848 1168.03 301.904 1164.87 301.904C1161.71 301.904 1159.42 300.848 1157.99 298.736C1156.58 296.624 1155.88 293.712 1155.88 290ZM1168.49 290C1168.49 287.845 1168.25 286.192 1167.78 285.04C1167.31 283.867 1166.34 283.28 1164.87 283.28C1163.4 283.28 1162.43 283.867 1161.96 285.04C1161.49 286.192 1161.25 287.845 1161.25 290C1161.25 291.451 1161.34 292.656 1161.51 293.616C1161.68 294.555 1162.02 295.323 1162.53 295.92C1163.07 296.496 1163.85 296.784 1164.87 296.784C1165.89 296.784 1166.66 296.496 1167.17 295.92C1167.71 295.323 1168.06 294.555 1168.23 293.616C1168.4 292.656 1168.49 291.451 1168.49 290ZM1176.75 290C1176.75 286.331 1177.46 283.44 1178.86 281.328C1180.29 279.216 1182.59 278.16 1185.74 278.16C1188.9 278.16 1191.18 279.216 1192.59 281.328C1194.02 283.44 1194.74 286.331 1194.74 290C1194.74 293.712 1194.02 296.624 1192.59 298.736C1191.18 300.848 1188.9 301.904 1185.74 301.904C1182.59 301.904 1180.29 300.848 1178.86 298.736C1177.46 296.624 1176.75 293.712 1176.75 290ZM1189.36 290C1189.36 287.845 1189.13 286.192 1188.66 285.04C1188.19 283.867 1187.22 283.28 1185.74 283.28C1184.27 283.28 1183.3 283.867 1182.83 285.04C1182.36 286.192 1182.13 287.845 1182.13 290C1182.13 291.451 1182.21 292.656 1182.38 293.616C1182.56 294.555 1182.9 295.323 1183.41 295.92C1183.94 296.496 1184.72 296.784 1185.74 296.784C1186.77 296.784 1187.54 296.496 1188.05 295.92C1188.58 295.323 1188.93 294.555 1189.1 293.616C1189.28 292.656 1189.36 291.451 1189.36 290ZM1203.64 286.672C1204.18 285.84 1204.91 285.168 1205.85 284.656C1206.79 284.144 1207.89 283.888 1209.15 283.888C1210.62 283.888 1211.95 284.261 1213.15 285.008C1214.34 285.755 1215.28 286.821 1215.96 288.208C1216.67 289.595 1217.02 291.205 1217.02 293.04C1217.02 294.875 1216.67 296.496 1215.96 297.904C1215.28 299.291 1214.34 300.368 1213.15 301.136C1211.95 301.883 1210.62 302.256 1209.15 302.256C1207.91 302.256 1206.81 302 1205.85 301.488C1204.91 300.976 1204.18 300.315 1203.64 299.504V310.512H1198.17V284.144H1203.64V286.672ZM1211.45 293.04C1211.45 291.675 1211.07 290.608 1210.3 289.84C1209.55 289.051 1208.62 288.656 1207.52 288.656C1206.43 288.656 1205.5 289.051 1204.73 289.84C1203.98 290.629 1203.61 291.707 1203.61 293.072C1203.61 294.437 1203.98 295.515 1204.73 296.304C1205.5 297.093 1206.43 297.488 1207.52 297.488C1208.6 297.488 1209.53 297.093 1210.3 296.304C1211.07 295.493 1211.45 294.405 1211.45 293.04ZM1242.67 283.952C1244.89 283.952 1246.65 284.624 1247.95 285.968C1249.28 287.312 1249.94 289.179 1249.94 291.568V302H1244.5V292.304C1244.5 291.152 1244.19 290.267 1243.57 289.648C1242.97 289.008 1242.14 288.688 1241.07 288.688C1240.01 288.688 1239.16 289.008 1238.55 289.648C1237.95 290.267 1237.65 291.152 1237.65 292.304V302H1232.21V292.304C1232.21 291.152 1231.9 290.267 1231.28 289.648C1230.68 289.008 1229.85 288.688 1228.79 288.688C1227.72 288.688 1226.88 289.008 1226.26 289.648C1225.66 290.267 1225.36 291.152 1225.36 292.304V302H1219.89V284.144H1225.36V286.384C1225.92 285.637 1226.64 285.051 1227.54 284.624C1228.43 284.176 1229.45 283.952 1230.58 283.952C1231.92 283.952 1233.12 284.24 1234.16 284.816C1235.23 285.392 1236.06 286.213 1236.66 287.28C1237.28 286.299 1238.12 285.499 1239.19 284.88C1240.25 284.261 1241.42 283.952 1242.67 283.952ZM1277.67 286.768C1277.67 288.069 1277.37 289.264 1276.77 290.352C1276.17 291.419 1275.26 292.283 1274.02 292.944C1272.78 293.605 1271.25 293.936 1269.41 293.936H1266.02V302H1260.55V279.536H1269.41C1271.2 279.536 1272.72 279.845 1273.95 280.464C1275.19 281.083 1276.12 281.936 1276.74 283.024C1277.36 284.112 1277.67 285.36 1277.67 286.768ZM1268.99 289.584C1270.04 289.584 1270.82 289.339 1271.33 288.848C1271.84 288.357 1272.1 287.664 1272.1 286.768C1272.1 285.872 1271.84 285.179 1271.33 284.688C1270.82 284.197 1270.04 283.952 1268.99 283.952H1266.02V289.584H1268.99ZM1288.64 302.224C1287 302.224 1285.53 301.957 1284.23 301.424C1282.93 300.891 1281.88 300.101 1281.09 299.056C1280.32 298.011 1279.92 296.752 1279.88 295.28H1285.7C1285.78 296.112 1286.07 296.752 1286.56 297.2C1287.05 297.627 1287.69 297.84 1288.48 297.84C1289.29 297.84 1289.93 297.659 1290.4 297.296C1290.87 296.912 1291.11 296.389 1291.11 295.728C1291.11 295.173 1290.92 294.715 1290.53 294.352C1290.17 293.989 1289.71 293.691 1289.16 293.456C1288.62 293.221 1287.85 292.955 1286.85 292.656C1285.4 292.208 1284.22 291.76 1283.3 291.312C1282.38 290.864 1281.59 290.203 1280.93 289.328C1280.27 288.453 1279.94 287.312 1279.94 285.904C1279.94 283.813 1280.7 282.181 1282.21 281.008C1283.73 279.813 1285.7 279.216 1288.13 279.216C1290.61 279.216 1292.6 279.813 1294.12 281.008C1295.63 282.181 1296.44 283.824 1296.55 285.936H1290.63C1290.58 285.211 1290.32 284.645 1289.83 284.24C1289.34 283.813 1288.71 283.6 1287.94 283.6C1287.28 283.6 1286.74 283.781 1286.34 284.144C1285.93 284.485 1285.73 284.987 1285.73 285.648C1285.73 286.373 1286.07 286.939 1286.76 287.344C1287.44 287.749 1288.5 288.187 1289.96 288.656C1291.41 289.147 1292.58 289.616 1293.48 290.064C1294.39 290.512 1295.18 291.163 1295.84 292.016C1296.5 292.869 1296.84 293.968 1296.84 295.312C1296.84 296.592 1296.5 297.755 1295.84 298.8C1295.2 299.845 1294.26 300.677 1293.03 301.296C1291.79 301.915 1290.33 302.224 1288.64 302.224ZM1316.36 279.536V283.92H1310.41V302H1304.94V283.92H1298.99V279.536H1316.36Z"
    fill="white" />
  <path fill-rule="evenodd" clip-rule="evenodd"
    d="M443.704 419.981C446.532 419.686 449.123 418.266 450.892 416.04V416.04C454.581 411.401 461.36 410.694 465.926 414.472V414.472C468.117 416.285 470.945 417.14 473.773 416.845L474.061 416.815C480.255 416.169 485.801 420.667 486.447 426.861L486.489 427.269C486.798 430.228 488.254 432.947 490.546 434.843V434.843C495.314 438.788 495.99 445.896 492.139 450.74V450.74C490.34 453.002 489.476 455.91 489.776 458.785L489.807 459.084C490.423 464.983 486.139 470.264 480.24 470.88V470.88C477.371 471.179 474.743 472.62 472.947 474.878L472.79 475.076C468.838 480.047 461.574 480.804 456.681 476.756L456.486 476.594C454.264 474.755 451.395 473.888 448.527 474.187V474.187C442.628 474.802 437.348 470.519 436.733 464.621L436.702 464.322C436.402 461.448 434.957 458.781 432.731 456.939V456.939C427.962 452.993 427.155 445.896 431.007 441.051V441.051C432.859 438.722 433.723 435.76 433.414 432.8L433.372 432.395C432.726 426.201 437.223 420.657 443.416 420.011L443.704 419.981Z"
    fill="#018A77" />
  <path fill-rule="evenodd" clip-rule="evenodd"
    d="M448.201 418.368C450.965 418.121 453.519 416.785 455.298 414.655V414.655C459.005 410.22 465.605 409.629 470.041 413.336V413.336C472.17 415.116 474.92 415.976 477.685 415.729L477.947 415.706C484.054 415.159 489.455 419.743 490.002 425.85V425.85C490.258 428.714 491.644 431.39 493.851 433.233V433.233C498.445 437.073 499.006 443.971 495.167 448.566V448.566C493.369 450.718 492.478 453.52 492.728 456.313V456.313C493.249 462.13 488.956 467.267 483.139 467.788V467.788C480.346 468.038 477.767 469.387 475.969 471.539L475.799 471.742C471.828 476.494 464.756 477.127 460.004 473.156L459.802 472.987C457.65 471.188 454.871 470.318 452.077 470.568V470.568C446.258 471.089 441.12 466.794 440.599 460.976V460.976C440.349 458.182 438.975 455.582 436.823 453.783V453.783C432.23 449.945 431.559 443.061 435.397 438.469V438.469C437.241 436.263 438.129 433.384 437.873 430.522V430.522C437.326 424.413 441.828 418.938 447.937 418.392L448.201 418.368Z"
    fill="#42FCCC" />
  <path
    d="M471.503 446.858L463.59 446.56C462.627 446.524 462.261 447.592 462.943 448.434C465.065 451.057 468.901 455.386 471.072 455.345C473.395 455.3 473.204 450.622 472.958 448.251C472.883 447.529 472.215 446.885 471.503 446.858L471.503 446.858Z"
    fill="#0D003D" />
  <path
    d="M454.042 439.036L456.948 436.202C455.89 434.26 454.626 433.369 452.942 433.812C451.926 434.464 451.142 435.422 450.703 436.547C450.264 437.673 450.194 438.909 450.501 440.078C450.809 441.247 451.479 442.288 452.415 443.053C453.351 443.817 454.505 444.266 455.712 444.334C456.656 443.941 457.436 443.234 457.919 442.333C458.402 441.431 458.559 440.39 458.363 439.386L454.042 439.036Z"
    fill="#0D003D" />
  <path
    d="M471.564 432.203L474.67 429.052C474.355 428.243 473.748 427.582 472.969 427.198C472.191 426.814 471.297 426.736 470.464 426.979C469.447 427.631 468.663 428.589 468.224 429.714C467.786 430.84 467.715 432.076 468.023 433.245C468.331 434.414 469 435.455 469.936 436.22C470.873 436.984 472.027 437.433 473.233 437.501C474.178 437.108 474.957 436.401 475.441 435.5C475.924 434.598 476.08 433.557 475.884 432.553L471.564 432.203Z"
    fill="#0D003D" />
  <g clip-path="url(#clip0_564_3138)">
    <path
      d="M609.592 420.148L614.554 413.55C615.761 411.945 618.342 412.325 619.037 414.21L620.936 419.357C621.419 420.668 622.914 421.35 624.252 420.871L630.629 418.589C632.497 417.921 634.419 419.498 634.053 421.398L632.541 429.228C632.303 430.461 633.054 431.68 634.29 432.068L641.485 434.328C643.411 434.933 643.911 437.354 642.367 438.601L640.097 440.436C638.375 441.826 639.231 444.555 641.469 444.813L644.083 445.114C646.655 445.411 647.234 448.794 644.892 449.836L639.081 452.421C637.469 453.139 637.101 455.201 638.368 456.427L640.062 458.065C641.509 459.465 640.791 461.849 638.801 462.245L634.475 463.107C632.868 463.427 631.999 465.115 632.694 466.566L635.542 472.504C636.622 474.757 634.021 476.958 631.86 475.62L627.958 473.206C626.195 472.114 623.916 473.401 624.041 475.419L624.229 478.458C624.362 480.619 621.78 481.875 620.052 480.488L619.586 480.114C617.906 478.766 615.386 479.914 615.405 482.018L615.423 483.933C615.448 486.57 611.775 487.385 610.569 485.01L607.364 478.702C606.667 477.329 604.873 476.873 603.59 477.743L598.747 481.025C597.325 481.989 595.332 481.313 594.82 479.691L593.655 476.001C593.196 474.549 591.519 473.818 590.108 474.455L582.638 477.827C580.411 478.833 578.122 476.492 579.278 474.391L582.771 468.046C583.688 466.379 582.407 464.354 580.451 464.379L575.355 464.444C573.22 464.471 571.967 462.1 573.248 460.455L576.177 456.693C577.243 455.325 576.572 453.333 574.871 452.817L569.345 451.142C566.962 450.419 566.908 447.167 569.266 446.415L575.744 444.349C577.336 443.841 577.985 442.004 577.056 440.638L572.274 433.611C571.074 431.849 572.523 429.549 574.679 429.794L584.029 430.854C585.638 431.037 587.001 429.746 586.851 428.183L586.239 421.806C586.045 419.782 588.301 418.424 590.1 419.481L593.889 421.708C595.419 422.607 597.39 421.763 597.717 420.069L598.412 416.468C598.862 414.135 602.116 413.721 603.216 415.855L605.231 419.765C606.092 421.437 608.466 421.645 609.592 420.148L609.592 420.148Z"
      fill="#B80AE2" />
    <path
      d="M612.377 414.449L617.339 407.851C618.546 406.246 621.127 406.626 621.822 408.511L623.721 413.658C624.204 414.969 625.699 415.651 627.037 415.172L633.414 412.89C635.282 412.222 637.204 413.799 636.838 415.699L635.326 423.529C635.088 424.761 635.839 425.981 637.075 426.369L644.27 428.629C646.196 429.234 646.696 431.655 645.152 432.902L642.882 434.736C641.161 436.127 642.016 438.856 644.254 439.114L646.868 439.415C649.44 439.712 650.02 443.094 647.677 444.137L641.866 446.722C640.254 447.44 639.887 449.502 641.154 450.728L642.847 452.366C644.294 453.766 643.576 456.149 641.587 456.546L637.26 457.408C635.653 457.728 634.784 459.416 635.48 460.867L638.327 466.805C639.407 469.058 636.807 471.259 634.645 469.921L630.743 467.507C628.98 466.415 626.701 467.702 626.826 469.719L627.014 472.759C627.148 474.92 624.565 476.176 622.838 474.789L622.371 474.415C620.691 473.067 618.171 474.214 618.19 476.319L618.208 478.234C618.233 480.87 614.56 481.685 613.354 479.311L610.15 473.003C609.452 471.629 607.659 471.174 606.375 472.044L601.533 475.326C600.11 476.29 598.117 475.613 597.605 473.992L596.44 470.302C595.981 468.85 594.304 468.118 592.893 468.755L585.423 472.128C583.196 473.134 580.907 470.792 582.063 468.692L585.556 462.346C586.473 460.68 585.192 458.655 583.236 458.68L578.14 458.745C576.005 458.772 574.752 456.4 576.033 454.755L578.963 450.994C580.028 449.625 579.357 447.634 577.656 447.118L572.13 445.442C569.748 444.72 569.693 441.468 572.051 440.716L578.529 438.65C580.121 438.142 580.771 436.305 579.841 434.939L575.059 427.912C573.859 426.15 575.309 423.85 577.464 424.095L586.814 425.155C588.423 425.338 589.786 424.047 589.636 422.484L589.025 416.107C588.831 414.083 591.086 412.724 592.885 413.782L596.674 416.009C598.204 416.908 600.175 416.064 600.502 414.369L601.197 410.769C601.647 408.436 604.901 408.021 606.001 410.156L608.016 414.066C608.877 415.738 611.251 415.946 612.377 414.449L612.377 414.449Z"
      fill="#E476FF" />
    <path
      d="M610.94 447.393L617.776 449.009C618.607 449.206 618.909 450.229 618.309 450.806C616.44 452.603 613.069 455.488 611.196 454.937C609.191 454.346 609.42 450.289 609.665 448.269C609.74 447.654 610.325 447.248 610.94 447.393L610.94 447.393Z"
      fill="#0D003D" />
    <path
      d="M624.211 436.282L627.801 435.683C627.857 433.774 627.029 432.182 625.625 431.847C623.863 431.425 621.887 433.134 621.212 435.662C620.536 438.19 621.416 440.581 623.178 441.003C624.852 441.23 626.148 440.499 627.028 438.598L624.211 436.282Z"
      fill="#0D003D" />
    <path
      d="M610.502 433.471L614.092 432.872C614.148 430.962 613.32 429.371 611.916 429.035C610.154 428.614 608.178 430.322 607.503 432.85C606.827 435.379 607.707 437.77 609.469 438.191C611.143 438.418 612.439 437.688 613.319 435.787L610.502 433.471Z"
      fill="#0D003D" />
  </g>
  <path
    d="M785.736 403.718H729.224C721.786 403.718 715.76 409.744 715.76 417.176V473.689C715.76 481.127 721.786 487.152 729.224 487.152H785.736C793.169 487.152 799.194 481.127 799.194 473.689V417.176C799.194 409.744 793.169 403.718 785.736 403.718Z"
    fill="#5B3ADF" />
  <path
    d="M741.807 427.068V463.801C741.807 465.752 744.064 466.944 745.812 465.914L777.07 447.547C778.725 446.575 778.725 444.294 777.07 443.322L745.812 424.955C744.064 423.925 741.807 425.117 741.807 427.068Z"
    fill="white" />
  <path
    d="M897.172 475.077C909.779 487.063 923.073 471.907 922.848 457.124C931.686 445.137 932.299 425.319 917.653 418.594C901.566 408.392 894.869 415.797 880.898 414.785C866.014 413.719 871.735 425.692 865.075 436.76C849.652 462.371 884.329 476.701 897.172 475.077Z"
    fill="#7E99FC" />
  <path
    d="M903.833 472.048C916.426 483.736 929.657 469.016 929.395 454.602C938.14 442.928 938.74 423.501 924.11 416.892C908.043 406.826 901.384 414.033 887.441 413.023C872.586 411.932 878.321 423.66 871.712 434.471C856.382 459.482 891.014 473.604 903.833 472.048Z"
    fill="#AFC0FF" />
  <path
    d="M903.833 472.048C916.426 483.736 929.657 469.016 929.395 454.602C938.14 442.928 938.74 423.501 924.11 416.892C908.043 406.826 901.384 414.033 887.441 413.023C872.586 411.932 878.321 423.66 871.712 434.471C856.382 459.482 891.014 473.604 903.833 472.048Z"
    fill="#AFC0FF" />
  <path
    d="M921.847 443.216C918.874 445.396 915.318 446.368 911.777 445.97C908.344 445.552 905.173 443.726 902.881 440.847C909.019 442.926 915.448 443.729 921.847 443.216V443.216Z"
    fill="#0D003D" />
  <path
    d="M922.136 429.318L925.169 427.841C924.993 427.109 924.584 426.463 924.01 426.009C923.414 425.529 922.691 425.252 921.94 425.216C921.012 425.445 920.202 426.036 919.675 426.87C919.424 427.269 919.256 427.718 919.182 428.189C919.108 428.661 919.129 429.143 919.245 429.605C919.466 431.902 921.055 433.706 922.773 433.542C923.478 433.493 924.138 433.166 924.622 432.626C924.873 432.378 925.072 432.076 925.204 431.742C925.336 431.407 925.4 431.047 925.39 430.685L922.136 429.318Z"
    fill="#0D003D" />
  <path
    d="M909.472 430.148L912.294 428.831C912.129 428.17 911.747 427.584 911.211 427.17C910.657 426.742 909.986 426.497 909.289 426.469C908.408 426.663 907.635 427.197 907.137 427.958C906.903 428.317 906.745 428.721 906.674 429.144C906.603 429.568 906.62 430.002 906.723 430.419C906.942 432.486 908.414 434.11 910.019 433.963C910.69 433.938 911.327 433.662 911.807 433.187C912.03 432.96 912.203 432.689 912.316 432.39C912.429 432.091 912.48 431.772 912.464 431.452L909.472 430.148Z"
    fill="#0D003D" />
  <g clip-path="url(#clip1_564_3138)">
    <path
      d="M1071.06 469.777C1068.24 474.03 1060.97 471.314 1059.17 471.759C1048.73 484.814 1044.77 479.985 1031.89 476.785C1017.6 486.445 1005.92 470.422 1007.98 456.443C1000.45 443.97 1002.27 425.067 1018.01 420.596C1035.65 413.009 1041.53 422.338 1055.9 421.744C1067.35 421.436 1077.01 434.691 1069.3 444.615C1070.19 452.683 1077.3 462.632 1071.06 469.777L1071.06 469.777Z"
      fill="#0053B5" />
    <path
      d="M1065.69 464.042C1062.86 468.295 1055.6 465.579 1053.8 466.024C1043.36 479.078 1039.4 474.249 1026.52 471.049C1012.22 480.709 1000.54 464.686 1002.6 450.707C995.072 438.234 1000.16 415.848 1013.05 411.906C1031.41 406.294 1036.16 416.602 1050.52 416.009C1061.98 415.701 1071.64 428.955 1063.92 438.879C1064.82 446.948 1071.92 456.896 1065.69 464.042L1065.69 464.042Z"
      fill="#3693FF" />
    <path
      d="M1022.74 441.045L1017.26 438.816C1016.6 438.545 1016.1 439.317 1016.39 440.17C1017.29 442.827 1019 447.295 1020.53 447.807C1022.16 448.354 1023.08 444.519 1023.44 442.538C1023.55 441.935 1023.23 441.246 1022.74 441.045L1022.74 441.045Z"
      fill="#0D003D" />
  </g>
  <path
    d="M1017.98 427.51L1015.44 425.402C1016.2 423.786 1017.5 422.831 1018.73 423.18C1020.28 423.619 1021.1 425.928 1020.57 428.337C1020.04 430.747 1018.35 432.345 1016.81 431.906C1015.42 431.345 1014.72 430.156 1014.83 428.177L1017.98 427.51Z"
    fill="#0D003D" />
  <path
    d="M1029.81 430.47L1027.27 428.362C1028.02 426.746 1029.33 425.791 1030.56 426.14C1032.11 426.579 1032.93 428.887 1032.39 431.297C1031.86 433.707 1030.18 435.305 1028.64 434.866C1027.24 434.305 1026.54 433.116 1026.65 431.137L1029.81 430.47Z"
    fill="#0D003D" />
  <defs>
    <linearGradient id="paint0_linear_564_3138" x1="311" y1="143" x2="1189" y2="143"
      gradientUnits="userSpaceOnUse">
      <stop offset="0.00054077" stop-color="#C084FC" />
      <stop offset="1" stop-color="#DB2777" />
    </linearGradient>
    <clipPath id="clip0_564_3138">
      <rect width="79.7044" height="79.7044" fill="white"
        transform="translate(574.977 400) rotate(8.72219)" />
    </clipPath>
    <clipPath id="clip1_564_3138">
      <rect width="75.398" height="69.4845" fill="white"
        transform="matrix(-0.999396 -0.0347523 -0.0347523 0.999396 1075.37 412.023)" />
    </clipPath>
  </defs>
</svg>
