<svg width="1500" viewBox="0 0 1500 600" fill="none" xmlns="http://www.w3.org/2000/svg">
  <rect width="1500" height="600" fill="#0D003D" />
  <path d="M338.306 134.664C338.306 138.184 336.386 140.296 332.29 140.296H325.506V129.16H332.29C336.386 129.16 338.306 131.336 338.306 134.664ZM314.562 120.072V165H325.506V148.04H328.13L337.474 165H349.826L339.458 147.208C346.37 145.16 349.442 139.848 349.442 134.216C349.442 126.408 343.938 120.072 332.93 120.072H314.562ZM391.576 129.288H380.632V148.68C380.632 153.544 377.944 156.232 373.72 156.232C369.624 156.232 366.872 153.544 366.872 148.68V129.288H355.992V150.152C355.992 159.688 361.56 165.384 369.816 165.384C374.616 165.384 378.456 163.208 380.632 160.136V165H391.576V129.288ZM424.077 165H434.957V144.136C434.957 134.536 429.453 128.904 421.197 128.904C416.397 128.904 412.557 131.016 410.381 134.024V129.288H399.437V165H410.381V145.608C410.381 140.744 413.069 138.056 417.229 138.056C421.389 138.056 424.077 140.744 424.077 145.608V165ZM491.778 165H502.658V144.136C502.658 134.536 496.962 128.904 488.13 128.904C482.946 128.904 478.466 131.784 476.098 135.56C473.666 131.272 469.314 128.904 463.938 128.904C459.266 128.904 455.618 130.888 453.506 133.768V129.288H442.562V165H453.506V145.608C453.506 140.936 456.194 138.376 460.354 138.376C464.514 138.376 467.202 140.936 467.202 145.608V165H478.082V145.608C478.082 140.936 480.77 138.376 484.93 138.376C489.09 138.376 491.778 140.936 491.778 145.608V165ZM526.056 137.544C529.704 137.544 532.776 139.784 532.776 143.688H519.08C519.72 139.72 522.472 137.544 526.056 137.544ZM543.144 153.16H531.496C530.6 155.08 528.872 156.616 525.8 156.616C522.28 156.616 519.4 154.44 519.016 149.768H543.784C543.912 148.68 543.976 147.592 543.976 146.568C543.976 135.688 536.616 128.776 526.184 128.776C515.56 128.776 508.136 135.816 508.136 147.144C508.136 158.472 515.688 165.512 526.184 165.512C535.08 165.512 541.416 160.136 543.144 153.16ZM561.456 142.472C561.456 155.912 570.8 165.32 584.048 165.32C594.736 165.32 602.8 159.368 605.36 149.64H593.328C591.472 153.48 588.08 155.4 583.92 155.4C577.2 155.4 572.592 150.408 572.592 142.472C572.592 134.536 577.2 129.544 583.92 129.544C588.08 129.544 591.472 131.464 593.328 135.304H605.36C602.8 125.576 594.736 119.56 584.048 119.56C570.8 119.56 561.456 129.032 561.456 142.472ZM647.006 147.144C647.006 135.816 638.942 128.776 628.446 128.776C618.014 128.776 609.886 135.816 609.886 147.144C609.886 158.472 617.822 165.512 628.318 165.512C638.814 165.512 647.006 158.472 647.006 147.144ZM621.022 147.144C621.022 141.064 624.478 138.248 628.446 138.248C632.286 138.248 635.87 141.064 635.87 147.144C635.87 153.16 632.222 156.04 628.318 156.04C624.35 156.04 621.022 153.16 621.022 147.144ZM702.028 165H712.908V144.136C712.908 134.536 707.212 128.904 698.38 128.904C693.196 128.904 688.716 131.784 686.348 135.56C683.916 131.272 679.564 128.904 674.188 128.904C669.516 128.904 665.868 130.888 663.756 133.768V129.288H652.812V165H663.756V145.608C663.756 140.936 666.444 138.376 670.604 138.376C674.764 138.376 677.452 140.936 677.452 145.608V165H688.332V145.608C688.332 140.936 691.02 138.376 695.18 138.376C699.34 138.376 702.028 140.936 702.028 145.608V165ZM769.778 165H780.658V144.136C780.658 134.536 774.962 128.904 766.13 128.904C760.946 128.904 756.466 131.784 754.098 135.56C751.666 131.272 747.314 128.904 741.938 128.904C737.266 128.904 733.618 130.888 731.506 133.768V129.288H720.562V165H731.506V145.608C731.506 140.936 734.194 138.376 738.354 138.376C742.514 138.376 745.202 140.936 745.202 145.608V165H756.082V145.608C756.082 140.936 758.77 138.376 762.93 138.376C767.09 138.376 769.778 140.936 769.778 145.608V165ZM823.576 129.288H812.632V148.68C812.632 153.544 809.944 156.232 805.72 156.232C801.624 156.232 798.872 153.544 798.872 148.68V129.288H787.992V150.152C787.992 159.688 793.56 165.384 801.816 165.384C806.616 165.384 810.456 163.208 812.632 160.136V165H823.576V129.288ZM856.077 165H866.957V144.136C866.957 134.536 861.453 128.904 853.197 128.904C848.397 128.904 844.557 131.016 842.381 134.024V129.288H831.437V165H842.381V145.608C842.381 140.744 845.069 138.056 849.229 138.056C853.389 138.056 856.077 140.744 856.077 145.608V165ZM874.562 165H885.506V129.288H874.562V165ZM880.066 125.576C883.906 125.576 886.53 122.952 886.53 119.688C886.53 116.36 883.906 113.736 880.066 113.736C876.162 113.736 873.538 116.36 873.538 119.688C873.538 122.952 876.162 125.576 880.066 125.576ZM895.165 152.584C895.165 161.864 900.349 165 907.773 165H913.341V155.72H909.437C907.005 155.72 906.109 154.824 906.109 152.712V138.376H913.277V129.288H906.109V120.584H895.165V129.288H890.813V138.376H895.165V152.584ZM935.885 151.624L927.629 129.288H915.405L929.933 163.784L921.741 181.96H933.517L955.917 129.288H944.077L935.885 151.624ZM1000.96 120.072H973.437V165H1000.96V156.232H984.381V146.376H999.037V137.928H984.381V128.84H1000.96V120.072ZM1004.67 129.288L1017.34 165H1030.85L1043.52 129.288H1031.87L1024.13 154.76L1016.38 129.288H1004.67ZM1063.87 137.544C1067.52 137.544 1070.59 139.784 1070.59 143.688H1056.89C1057.53 139.72 1060.28 137.544 1063.87 137.544ZM1080.96 153.16H1069.31C1068.41 155.08 1066.68 156.616 1063.61 156.616C1060.09 156.616 1057.21 154.44 1056.83 149.768H1081.6C1081.72 148.68 1081.79 147.592 1081.79 146.568C1081.79 135.688 1074.43 128.776 1064 128.776C1053.37 128.776 1045.95 135.816 1045.95 147.144C1045.95 158.472 1053.5 165.512 1064 165.512C1072.89 165.512 1079.23 160.136 1080.96 153.16ZM1112.2 165H1123.08V144.136C1123.08 134.536 1117.58 128.904 1109.32 128.904C1104.52 128.904 1100.68 131.016 1098.51 134.024V129.288H1087.56V165H1098.51V145.608C1098.51 140.744 1101.19 138.056 1105.35 138.056C1109.51 138.056 1112.2 140.744 1112.2 145.608V165ZM1132.41 152.584C1132.41 161.864 1137.6 165 1145.02 165H1150.59V155.72H1146.69C1144.25 155.72 1143.36 154.824 1143.36 152.712V138.376H1150.53V129.288H1143.36V120.584H1132.41V129.288H1128.06V138.376H1132.41V152.584ZM1185.68 154.632C1185.49 141.32 1166.16 145.352 1166.16 139.656C1166.16 137.928 1167.57 136.904 1170.13 136.904C1173.2 136.904 1175.05 138.504 1175.37 140.936H1185.49C1184.78 133.896 1179.66 128.776 1170.45 128.776C1161.1 128.776 1155.92 133.768 1155.92 139.848C1155.92 152.968 1175.37 148.808 1175.37 154.568C1175.37 156.168 1173.9 157.448 1171.09 157.448C1168.08 157.448 1165.84 155.784 1165.58 153.288H1154.77C1155.28 160.2 1161.68 165.512 1171.21 165.512C1180.17 165.512 1185.68 160.84 1185.68 154.632Z" fill="url(#paint0_linear_564_3138)" />
  <path d="M387.848 233.792C387.848 235.648 386.92 236.992 384.968 236.992C383.016 236.992 382.12 235.648 382.088 233.792H378.408C378.408 237.824 381.128 240.224 384.968 240.224C388.808 240.224 391.528 237.824 391.528 233.792V217.76H387.848V233.792ZM414.263 231.168C414.263 225.632 410.295 222.08 405.271 222.08C400.247 222.08 396.279 225.632 396.279 231.168C396.279 236.704 400.087 240.288 405.111 240.288C410.167 240.288 414.263 236.704 414.263 231.168ZM399.991 231.168C399.991 227.168 402.455 225.248 405.207 225.248C407.927 225.248 410.519 227.168 410.519 231.168C410.519 235.168 407.831 237.12 405.111 237.12C402.359 237.12 399.991 235.168 399.991 231.168ZM417.869 240H421.517V222.368H417.869V240ZM419.725 220.032C421.005 220.032 422.029 219.008 422.029 217.696C422.029 216.384 421.005 215.36 419.725 215.36C418.413 215.36 417.389 216.384 417.389 217.696C417.389 219.008 418.413 220.032 419.725 220.032ZM438.818 240H442.434V229.6C442.434 224.672 439.33 222.08 435.202 222.08C433.09 222.08 431.138 222.944 429.954 224.384V222.368H426.306V240H429.954V230.144C429.954 226.912 431.714 225.248 434.402 225.248C437.058 225.248 438.818 226.912 438.818 230.144V240ZM471.368 222.368H467.72V232.192C467.72 235.424 465.96 237.088 463.272 237.088C460.616 237.088 458.856 235.424 458.856 232.192V222.368H455.24V232.736C455.24 237.664 458.376 240.256 462.504 240.256C464.584 240.256 466.568 239.392 467.72 237.888V240H471.368V222.368ZM489.333 235.072C489.141 228.704 479.189 230.688 479.189 227.136C479.189 225.952 480.213 225.152 482.165 225.152C484.149 225.152 485.333 226.208 485.461 227.744H489.109C488.917 224.224 486.293 222.08 482.293 222.08C478.133 222.08 475.509 224.352 475.509 227.168C475.509 233.632 485.749 231.648 485.749 235.104C485.749 236.32 484.629 237.216 482.517 237.216C480.501 237.216 479.125 236.032 478.997 234.592H475.221C475.381 237.792 478.357 240.288 482.581 240.288C486.741 240.288 489.333 238.048 489.333 235.072ZM518.388 231.168C518.388 225.632 514.42 222.08 509.396 222.08C504.372 222.08 500.404 225.632 500.404 231.168C500.404 236.704 504.212 240.288 509.236 240.288C514.292 240.288 518.388 236.704 518.388 231.168ZM504.116 231.168C504.116 227.168 506.58 225.248 509.332 225.248C512.052 225.248 514.644 227.168 514.644 231.168C514.644 235.168 511.956 237.12 509.236 237.12C506.484 237.12 504.116 235.168 504.116 231.168ZM534.506 240H538.122V229.6C538.122 224.672 535.018 222.08 530.89 222.08C528.778 222.08 526.826 222.944 525.642 224.384V222.368H521.994V240H525.642V230.144C525.642 226.912 527.402 225.248 530.09 225.248C532.746 225.248 534.506 226.912 534.506 230.144V240ZM558.352 217.76H551.088V240H558.352C565.488 240 570.16 235.808 570.16 228.96C570.16 222.08 565.488 217.76 558.352 217.76ZM554.736 237.024V220.736H558.352C563.6 220.736 566.416 223.872 566.416 228.96C566.416 234.016 563.6 237.024 558.352 237.024H554.736ZM573.775 240H577.423V222.368H573.775V240ZM575.631 220.032C576.911 220.032 577.935 219.008 577.935 217.696C577.935 216.384 576.911 215.36 575.631 215.36C574.319 215.36 573.295 216.384 573.295 217.696C573.295 219.008 574.319 220.032 575.631 220.032ZM595.365 235.072C595.173 228.704 585.221 230.688 585.221 227.136C585.221 225.952 586.245 225.152 588.197 225.152C590.181 225.152 591.365 226.208 591.493 227.744H595.141C594.949 224.224 592.325 222.08 588.325 222.08C584.165 222.08 581.541 224.352 581.541 227.168C581.541 233.632 591.781 231.648 591.781 235.104C591.781 236.32 590.661 237.216 588.549 237.216C586.533 237.216 585.157 236.032 585.029 234.592H581.253C581.413 237.792 584.389 240.288 588.613 240.288C592.773 240.288 595.365 238.048 595.365 235.072ZM598.09 231.168C598.09 236.704 601.674 240.288 606.73 240.288C611.05 240.288 613.866 237.888 614.858 234.432H610.922C610.25 236.256 608.906 237.216 606.73 237.216C603.786 237.216 601.834 235.04 601.834 231.168C601.834 227.328 603.786 225.152 606.73 225.152C608.906 225.152 610.314 226.24 610.922 227.936H614.858C613.866 224.224 611.05 222.08 606.73 222.08C601.674 222.08 598.09 225.664 598.09 231.168ZM635.294 231.168C635.294 225.632 631.326 222.08 626.302 222.08C621.278 222.08 617.31 225.632 617.31 231.168C617.31 236.704 621.118 240.288 626.142 240.288C631.198 240.288 635.294 236.704 635.294 231.168ZM621.022 231.168C621.022 227.168 623.486 225.248 626.238 225.248C628.958 225.248 631.55 227.168 631.55 231.168C631.55 235.168 628.862 237.12 626.142 237.12C623.39 237.12 621.022 235.168 621.022 231.168ZM642.548 230.72C642.548 226.976 644.212 225.856 646.9 225.856H647.828V222.08C645.332 222.08 643.572 223.168 642.548 224.928V222.368H638.9V240H642.548V230.72ZM649.965 231.104C649.965 236.544 653.645 240.288 658.285 240.288C661.165 240.288 663.277 238.944 664.397 237.344V240H668.077V216.32H664.397V224.832C663.053 223.168 660.621 222.08 658.317 222.08C653.645 222.08 649.965 225.664 649.965 231.104ZM664.397 231.168C664.397 234.976 661.805 237.12 659.053 237.12C656.333 237.12 653.709 234.912 653.709 231.104C653.709 227.296 656.333 225.248 659.053 225.248C661.805 225.248 664.397 227.392 664.397 231.168ZM676.645 237.888C676.645 236.576 675.621 235.552 674.341 235.552C673.029 235.552 672.005 236.576 672.005 237.888C672.005 239.2 673.029 240.224 674.341 240.224C675.621 240.224 676.645 239.2 676.645 237.888ZM676.645 224.448C676.645 223.136 675.621 222.112 674.341 222.112C673.029 222.112 672.005 223.136 672.005 224.448C672.005 225.76 673.029 226.784 674.341 226.784C675.621 226.784 676.645 225.76 676.645 224.448ZM689.025 240H692.673V230.144C692.673 226.912 694.433 225.248 697.121 225.248C699.777 225.248 701.537 226.912 701.537 230.144V240H705.153V229.6C705.153 224.672 702.081 222.08 698.145 222.08C695.873 222.08 693.889 222.944 692.673 224.416V216.32H689.025V240ZM710.382 235.104C710.382 238.688 712.334 240 715.47 240H718.35V236.96H716.11C714.574 236.96 714.062 236.416 714.062 235.104V225.344H718.35V222.368H714.062V217.984H710.382V222.368H708.302V225.344H710.382V235.104ZM722.289 235.104C722.289 238.688 724.241 240 727.377 240H730.257V236.96H728.017C726.481 236.96 725.969 236.416 725.969 235.104V225.344H730.257V222.368H725.969V217.984H722.289V222.368H720.209V225.344H722.289V235.104ZM737.267 224.96V222.368H733.619V248.384H737.267V237.44C738.419 238.816 740.499 240.288 743.411 240.288C748.051 240.288 751.699 236.544 751.699 231.104C751.699 225.664 748.051 222.08 743.411 222.08C740.531 222.08 738.387 223.488 737.267 224.96ZM747.987 231.104C747.987 234.912 745.363 237.12 742.611 237.12C739.891 237.12 737.267 234.976 737.267 231.168C737.267 227.392 739.891 225.248 742.611 225.248C745.363 225.248 747.987 227.296 747.987 231.104ZM768.458 235.072C768.266 228.704 758.314 230.688 758.314 227.136C758.314 225.952 759.338 225.152 761.29 225.152C763.274 225.152 764.458 226.208 764.586 227.744H768.234C768.042 224.224 765.418 222.08 761.418 222.08C757.258 222.08 754.634 224.352 754.634 227.168C754.634 233.632 764.874 231.648 764.874 235.104C764.874 236.32 763.754 237.216 761.642 237.216C759.626 237.216 758.25 236.032 758.122 234.592H754.346C754.506 237.792 757.482 240.288 761.706 240.288C765.866 240.288 768.458 238.048 768.458 235.072ZM776.176 237.888C776.176 236.576 775.152 235.552 773.872 235.552C772.56 235.552 771.536 236.576 771.536 237.888C771.536 239.2 772.56 240.224 773.872 240.224C775.152 240.224 776.176 239.2 776.176 237.888ZM776.176 224.448C776.176 223.136 775.152 222.112 773.872 222.112C772.56 222.112 771.536 223.136 771.536 224.448C771.536 225.76 772.56 226.784 773.872 226.784C775.152 226.784 776.176 225.76 776.176 224.448ZM779.796 245.6H783.38L792.084 209.792H788.468L779.796 245.6ZM796.233 245.6H799.817L808.521 209.792H804.905L796.233 245.6ZM811.903 231.104C811.903 236.544 815.583 240.288 820.223 240.288C823.103 240.288 825.215 238.944 826.335 237.344V240H830.015V216.32H826.335V224.832C824.991 223.168 822.559 222.08 820.255 222.08C815.583 222.08 811.903 225.664 811.903 231.104ZM826.335 231.168C826.335 234.976 823.743 237.12 820.991 237.12C818.271 237.12 815.647 234.912 815.647 231.104C815.647 227.296 818.271 225.248 820.991 225.248C823.743 225.248 826.335 227.392 826.335 231.168ZM834.806 240H838.454V222.368H834.806V240ZM836.662 220.032C837.942 220.032 838.966 219.008 838.966 217.696C838.966 216.384 837.942 215.36 836.662 215.36C835.35 215.36 834.326 216.384 834.326 217.696C834.326 219.008 835.35 220.032 836.662 220.032ZM856.396 235.072C856.204 228.704 846.252 230.688 846.252 227.136C846.252 225.952 847.276 225.152 849.228 225.152C851.212 225.152 852.396 226.208 852.524 227.744H856.172C855.98 224.224 853.356 222.08 849.356 222.08C845.196 222.08 842.572 224.352 842.572 227.168C842.572 233.632 852.812 231.648 852.812 235.104C852.812 236.32 851.692 237.216 849.58 237.216C847.564 237.216 846.188 236.032 846.06 234.592H842.284C842.444 237.792 845.42 240.288 849.644 240.288C853.804 240.288 856.396 238.048 856.396 235.072ZM859.122 231.168C859.122 236.704 862.706 240.288 867.762 240.288C872.082 240.288 874.898 237.888 875.89 234.432H871.954C871.282 236.256 869.938 237.216 867.762 237.216C864.818 237.216 862.866 235.04 862.866 231.168C862.866 227.328 864.818 225.152 867.762 225.152C869.938 225.152 871.346 226.24 871.954 227.936H875.89C874.898 224.224 872.082 222.08 867.762 222.08C862.706 222.08 859.122 225.664 859.122 231.168ZM896.325 231.168C896.325 225.632 892.357 222.08 887.333 222.08C882.309 222.08 878.341 225.632 878.341 231.168C878.341 236.704 882.149 240.288 887.173 240.288C892.229 240.288 896.325 236.704 896.325 231.168ZM882.053 231.168C882.053 227.168 884.517 225.248 887.269 225.248C889.989 225.248 892.581 227.168 892.581 231.168C892.581 235.168 889.893 237.12 887.173 237.12C884.421 237.12 882.053 235.168 882.053 231.168ZM903.579 230.72C903.579 226.976 905.243 225.856 907.931 225.856H908.859V222.08C906.363 222.08 904.603 223.168 903.579 224.928V222.368H899.931V240H903.579V230.72ZM910.997 231.104C910.997 236.544 914.677 240.288 919.317 240.288C922.197 240.288 924.309 238.944 925.429 237.344V240H929.109V216.32H925.429V224.832C924.085 223.168 921.653 222.08 919.349 222.08C914.677 222.08 910.997 225.664 910.997 231.104ZM925.429 231.168C925.429 234.976 922.837 237.12 920.085 237.12C917.365 237.12 914.741 234.912 914.741 231.104C914.741 227.296 917.365 225.248 920.085 225.248C922.837 225.248 925.429 227.392 925.429 231.168ZM937.676 237.888C937.676 236.576 936.652 235.552 935.372 235.552C934.06 235.552 933.036 236.576 933.036 237.888C933.036 239.2 934.06 240.224 935.372 240.224C936.652 240.224 937.676 239.2 937.676 237.888ZM940.403 231.104C940.403 236.544 944.083 240.288 948.723 240.288C951.603 240.288 953.715 238.848 954.835 237.344V240.288C954.835 243.808 952.723 245.536 949.907 245.536C947.379 245.536 945.427 244.288 944.883 242.464H941.267C941.715 246.368 945.203 248.704 949.907 248.704C955.411 248.704 958.515 245.088 958.515 240.288V222.368H954.835V224.928C953.747 223.424 951.603 222.08 948.723 222.08C944.083 222.08 940.403 225.664 940.403 231.104ZM954.835 231.168C954.835 234.976 952.243 237.12 949.491 237.12C946.771 237.12 944.147 234.912 944.147 231.104C944.147 227.296 946.771 225.248 949.491 225.248C952.243 225.248 954.835 227.392 954.835 231.168ZM962.09 231.104C962.09 236.544 965.77 240.288 970.41 240.288C973.29 240.288 975.402 238.848 976.522 237.344V240.288C976.522 243.808 974.41 245.536 971.594 245.536C969.066 245.536 967.114 244.288 966.57 242.464H962.954C963.402 246.368 966.89 248.704 971.594 248.704C977.098 248.704 980.202 245.088 980.202 240.288V222.368H976.522V224.928C975.434 223.424 973.29 222.08 970.41 222.08C965.77 222.08 962.09 225.664 962.09 231.104ZM976.522 231.168C976.522 234.976 973.93 237.12 971.178 237.12C968.458 237.12 965.834 234.912 965.834 231.104C965.834 227.296 968.458 225.248 971.178 225.248C973.93 225.248 976.522 227.392 976.522 231.168ZM984.546 245.6H988.13L996.834 209.792H993.218L984.546 245.6ZM1014.58 235.072C1014.39 228.704 1004.44 230.688 1004.44 227.136C1004.44 225.952 1005.46 225.152 1007.42 225.152C1009.4 225.152 1010.58 226.208 1010.71 227.744H1014.36C1014.17 224.224 1011.54 222.08 1007.54 222.08C1003.38 222.08 1000.76 224.352 1000.76 227.168C1000.76 233.632 1011 231.648 1011 235.104C1011 236.32 1009.88 237.216 1007.77 237.216C1005.75 237.216 1004.38 236.032 1004.25 234.592H1000.47C1000.63 237.792 1003.61 240.288 1007.83 240.288C1011.99 240.288 1014.58 238.048 1014.58 235.072ZM1019.1 235.104C1019.1 238.688 1021.05 240 1024.19 240H1027.07V236.96H1024.83C1023.29 236.96 1022.78 236.416 1022.78 235.104V225.344H1027.07V222.368H1022.78V217.984H1019.1V222.368H1017.02V225.344H1019.1V235.104ZM1029.22 231.104C1029.22 236.544 1032.9 240.288 1037.47 240.288C1040.42 240.288 1042.53 238.88 1043.65 237.376V240H1047.33V222.368H1043.65V224.928C1042.56 223.488 1040.51 222.08 1037.54 222.08C1032.9 222.08 1029.22 225.664 1029.22 231.104ZM1043.65 231.168C1043.65 234.976 1041.06 237.12 1038.3 237.12C1035.58 237.12 1032.96 234.912 1032.96 231.104C1032.96 227.296 1035.58 225.248 1038.3 225.248C1041.06 225.248 1043.65 227.392 1043.65 231.168ZM1052.69 235.104C1052.69 238.688 1054.65 240 1057.78 240H1060.66V236.96H1058.42C1056.89 236.96 1056.37 236.416 1056.37 235.104V225.344H1060.66V222.368H1056.37V217.984H1052.69V222.368H1050.61V225.344H1052.69V235.104ZM1071.45 225.152C1074.17 225.152 1076.31 226.88 1076.38 229.6H1066.62C1067 226.816 1068.99 225.152 1071.45 225.152ZM1079.7 234.752H1075.77C1075.1 236.128 1073.85 237.216 1071.61 237.216C1068.92 237.216 1066.84 235.456 1066.59 232.544H1080.06C1080.15 231.936 1080.19 231.36 1080.19 230.752C1080.19 225.568 1076.63 222.08 1071.61 222.08C1066.39 222.08 1062.81 225.632 1062.81 231.168C1062.81 236.704 1066.55 240.288 1071.61 240.288C1075.93 240.288 1078.71 237.824 1079.7 234.752ZM1084.22 240H1087.9V225.344H1091.17V222.368H1087.9V221.12C1087.9 219.104 1088.67 218.336 1090.91 218.336V215.296C1086.3 215.296 1084.22 217.056 1084.22 221.12V222.368H1082.14V225.344H1084.22V240ZM1110.37 222.368H1106.72V232.192C1106.72 235.424 1104.96 237.088 1102.27 237.088C1099.62 237.088 1097.86 235.424 1097.86 232.192V222.368H1094.24V232.736C1094.24 237.664 1097.38 240.256 1101.5 240.256C1103.58 240.256 1105.57 239.392 1106.72 237.888V240H1110.37V222.368ZM1115.18 240H1118.83V216.32H1115.18V240Z" fill="white" />
  <path d="M227.368 295.152C227.368 296.752 226.312 297.584 224.488 297.584H220.456V292.624H224.424C226.248 292.624 227.368 293.552 227.368 295.152ZM226.824 286.288C226.824 287.824 225.832 288.624 224.04 288.624H220.456V283.92H224.04C225.832 283.92 226.824 284.752 226.824 286.288ZM232.904 295.888C232.904 293.328 231.208 291.024 228.584 290.48C230.76 289.84 232.392 288.08 232.392 285.36C232.392 281.808 229.672 279.536 225.096 279.536H214.984V302H225.448C230.184 302 232.904 299.6 232.904 295.888ZM236.078 302H241.55V284.144H236.078V302ZM238.83 282.288C240.75 282.288 242.062 280.976 242.062 279.344C242.062 277.68 240.75 276.368 238.83 276.368C236.878 276.368 235.566 277.68 235.566 279.344C235.566 280.976 236.878 282.288 238.83 282.288ZM245.195 293.04H259.275V288.496H245.195V293.04ZM268.59 302H275.214L278.926 287.216L282.51 302H289.134L294.99 279.536H289.102L285.838 295.888L281.998 279.536H275.982L271.982 295.888L268.75 279.536H262.894L268.59 302ZM305.606 288.272C307.43 288.272 308.966 289.392 308.966 291.344H302.118C302.438 289.36 303.814 288.272 305.606 288.272ZM314.15 296.08H308.326C307.878 297.04 307.014 297.808 305.478 297.808C303.718 297.808 302.278 296.72 302.086 294.384H314.47C314.534 293.84 314.566 293.296 314.566 292.784C314.566 287.344 310.886 283.888 305.67 283.888C300.358 283.888 296.646 287.408 296.646 293.072C296.646 298.736 300.422 302.256 305.67 302.256C310.118 302.256 313.286 299.568 314.15 296.08ZM325.325 288.272C327.149 288.272 328.685 289.392 328.685 291.344H321.837C322.157 289.36 323.533 288.272 325.325 288.272ZM333.869 296.08H328.045C327.597 297.04 326.733 297.808 325.197 297.808C323.437 297.808 321.997 296.72 321.805 294.384H334.189C334.253 293.84 334.285 293.296 334.285 292.784C334.285 287.344 330.605 283.888 325.389 283.888C320.077 283.888 316.365 287.408 316.365 293.072C316.365 298.736 320.141 302.256 325.389 302.256C329.837 302.256 333.005 299.568 333.869 296.08ZM337.172 302H342.644V294.512L348.084 302H354.868L347.38 293.104L354.804 284.144H348.052L342.644 291.408V278.32H337.172V302ZM356.953 302H362.425V278.32H356.953V302ZM374.614 295.312L370.486 284.144H364.374L371.638 301.392L367.542 310.48H373.43L384.63 284.144H378.71L374.614 295.312ZM410.862 293.072C410.862 287.408 406.83 283.888 401.582 283.888C396.366 283.888 392.302 287.408 392.302 293.072C392.302 298.736 396.27 302.256 401.518 302.256C406.766 302.256 410.862 298.736 410.862 293.072ZM397.87 293.072C397.87 290.032 399.598 288.624 401.582 288.624C403.502 288.624 405.294 290.032 405.294 293.072C405.294 296.08 403.47 297.52 401.518 297.52C399.534 297.52 397.87 296.08 397.87 293.072ZM426.085 302H431.525V291.568C431.525 286.768 428.773 283.952 424.645 283.952C422.245 283.952 420.325 285.008 419.237 286.512V284.144H413.765V302H419.237V292.304C419.237 289.872 420.581 288.528 422.661 288.528C424.741 288.528 426.085 289.872 426.085 292.304V302ZM440.893 283.92H446.845V302H452.317V283.92H458.269V279.536H440.893V283.92ZM478.647 284.144H473.175V293.84C473.175 296.272 471.831 297.616 469.719 297.616C467.671 297.616 466.295 296.272 466.295 293.84V284.144H460.855V294.576C460.855 299.344 463.639 302.192 467.767 302.192C470.167 302.192 472.087 301.104 473.175 299.568V302H478.647V284.144ZM490.45 288.272C492.274 288.272 493.81 289.392 493.81 291.344H486.962C487.282 289.36 488.658 288.272 490.45 288.272ZM498.994 296.08H493.17C492.722 297.04 491.858 297.808 490.322 297.808C488.562 297.808 487.122 296.72 486.93 294.384H499.314C499.378 293.84 499.41 293.296 499.41 292.784C499.41 287.344 495.73 283.888 490.514 283.888C485.202 283.888 481.49 287.408 481.49 293.072C481.49 298.736 485.266 302.256 490.514 302.256C494.962 302.256 498.13 299.568 498.994 296.08ZM516.793 296.816C516.697 290.16 507.033 292.176 507.033 289.328C507.033 288.464 507.737 287.952 509.017 287.952C510.553 287.952 511.481 288.752 511.641 289.968H516.697C516.345 286.448 513.785 283.888 509.177 283.888C504.505 283.888 501.913 286.384 501.913 289.424C501.913 295.984 511.641 293.904 511.641 296.784C511.641 297.584 510.905 298.224 509.497 298.224C507.993 298.224 506.873 297.392 506.745 296.144H501.337C501.593 299.6 504.793 302.256 509.561 302.256C514.041 302.256 516.793 299.92 516.793 296.816ZM519.052 293.04C519.052 298.672 522.54 302.256 526.924 302.256C529.548 302.256 531.436 301.072 532.428 299.44V302H537.9V278.32H532.428V286.608C531.34 284.976 529.292 283.888 526.924 283.888C522.54 283.888 519.052 287.408 519.052 293.04ZM532.428 293.072C532.428 295.92 530.604 297.488 528.524 297.488C526.476 297.488 524.62 295.888 524.62 293.04C524.62 290.192 526.476 288.656 528.524 288.656C530.604 288.656 532.428 290.224 532.428 293.072ZM540.771 293.04C540.771 298.672 544.259 302.256 548.611 302.256C551.267 302.256 553.155 301.04 554.147 299.472V302H559.619V284.144H554.147V286.672C553.187 285.104 551.299 283.888 548.643 283.888C544.259 283.888 540.771 287.408 540.771 293.04ZM554.147 293.072C554.147 295.92 552.323 297.488 550.243 297.488C548.195 297.488 546.339 295.888 546.339 293.04C546.339 290.192 548.195 288.656 550.243 288.656C552.323 288.656 554.147 290.224 554.147 293.072ZM571.802 295.312L567.674 284.144H561.562L568.826 301.392L564.73 310.48H570.618L581.818 284.144H575.898L571.802 295.312ZM598.293 296.816C598.197 290.16 588.533 292.176 588.533 289.328C588.533 288.464 589.237 287.952 590.517 287.952C592.053 287.952 592.981 288.752 593.141 289.968H598.197C597.845 286.448 595.285 283.888 590.677 283.888C586.005 283.888 583.413 286.384 583.413 289.424C583.413 295.984 593.141 293.904 593.141 296.784C593.141 297.584 592.405 298.224 590.997 298.224C589.493 298.224 588.373 297.392 588.245 296.144H582.837C583.093 299.6 586.293 302.256 591.061 302.256C595.541 302.256 598.293 299.92 598.293 296.816ZM608.102 293.04H622.182V288.496H608.102V293.04ZM635.813 302H641.509V278.64H632.645V283.728H635.813V302ZM645.253 290C645.253 296.912 647.589 301.904 654.245 301.904C660.901 301.904 663.237 296.912 663.237 290C663.237 283.152 660.901 278.16 654.245 278.16C647.589 278.16 645.253 283.152 645.253 290ZM657.861 290C657.861 293.712 657.477 296.784 654.245 296.784C651.013 296.784 650.629 293.712 650.629 290C650.629 286.416 651.013 283.28 654.245 283.28C657.477 283.28 657.861 286.416 657.861 290ZM672.464 299.312C672.464 297.616 671.152 296.304 669.232 296.304C667.28 296.304 665.968 297.616 665.968 299.312C665.968 300.944 667.28 302.256 669.232 302.256C671.152 302.256 672.464 300.944 672.464 299.312ZM672.464 286.288C672.464 284.592 671.152 283.28 669.232 283.28C667.28 283.28 665.968 284.592 665.968 286.288C665.968 287.92 667.28 289.232 669.232 289.232C671.152 289.232 672.464 287.92 672.464 286.288ZM675.221 290C675.221 296.912 677.557 301.904 684.213 301.904C690.869 301.904 693.205 296.912 693.205 290C693.205 283.152 690.869 278.16 684.213 278.16C677.557 278.16 675.221 283.152 675.221 290ZM687.829 290C687.829 293.712 687.445 296.784 684.213 296.784C680.981 296.784 680.597 293.712 680.597 290C680.597 286.416 680.981 283.28 684.213 283.28C687.445 283.28 687.829 286.416 687.829 290ZM696.096 290C696.096 296.912 698.432 301.904 705.088 301.904C711.744 301.904 714.08 296.912 714.08 290C714.08 283.152 711.744 278.16 705.088 278.16C698.432 278.16 696.096 283.152 696.096 290ZM708.704 290C708.704 293.712 708.32 296.784 705.088 296.784C701.856 296.784 701.472 293.712 701.472 290C701.472 286.416 701.856 283.28 705.088 283.28C708.32 283.28 708.704 286.416 708.704 290ZM724.553 293.04H742.312V288.496H724.553V293.04ZM755.376 302H761.072V278.64H752.208V283.728H755.376V302ZM767.407 302H773.103V278.64H764.239V283.728H767.407V302ZM783.182 299.312C783.182 297.616 781.87 296.304 779.95 296.304C777.998 296.304 776.686 297.616 776.686 299.312C776.686 300.944 777.998 302.256 779.95 302.256C781.87 302.256 783.182 300.944 783.182 299.312ZM783.182 286.288C783.182 284.592 781.87 283.28 779.95 283.28C777.998 283.28 776.686 284.592 776.686 286.288C776.686 287.92 777.998 289.232 779.95 289.232C781.87 289.232 783.182 287.92 783.182 286.288ZM785.94 290C785.94 296.912 788.276 301.904 794.932 301.904C801.588 301.904 803.924 296.912 803.924 290C803.924 283.152 801.588 278.16 794.932 278.16C788.276 278.16 785.94 283.152 785.94 290ZM798.548 290C798.548 293.712 798.164 296.784 794.932 296.784C791.7 296.784 791.316 293.712 791.316 290C791.316 286.416 791.7 283.28 794.932 283.28C798.164 283.28 798.548 286.416 798.548 290ZM806.815 290C806.815 296.912 809.151 301.904 815.807 301.904C822.463 301.904 824.799 296.912 824.799 290C824.799 283.152 822.463 278.16 815.807 278.16C809.151 278.16 806.815 283.152 806.815 290ZM819.423 290C819.423 293.712 819.039 296.784 815.807 296.784C812.575 296.784 812.191 293.712 812.191 290C812.191 286.416 812.575 283.28 815.807 283.28C819.039 283.28 819.423 286.416 819.423 290ZM833.706 286.672V284.144H828.234V310.512H833.706V299.504C834.698 301.008 836.586 302.256 839.21 302.256C843.594 302.256 847.082 298.672 847.082 293.04C847.082 287.408 843.594 283.888 839.21 283.888C836.586 283.888 834.698 285.104 833.706 286.672ZM841.514 293.04C841.514 295.888 839.658 297.488 837.578 297.488C835.53 297.488 833.674 295.92 833.674 293.072C833.674 290.224 835.53 288.656 837.578 288.656C839.658 288.656 841.514 290.192 841.514 293.04ZM874.561 302H880.001V291.568C880.001 286.768 877.153 283.952 872.737 283.952C870.145 283.952 867.905 285.392 866.721 287.28C865.505 285.136 863.329 283.952 860.641 283.952C858.305 283.952 856.481 284.944 855.425 286.384V284.144H849.953V302H855.425V292.304C855.425 289.968 856.769 288.688 858.849 288.688C860.929 288.688 862.273 289.968 862.273 292.304V302H867.713V292.304C867.713 289.968 869.057 288.688 871.137 288.688C873.217 288.688 874.561 289.968 874.561 292.304V302ZM889.681 290.736C889.681 297.456 894.353 302.16 900.977 302.16C906.321 302.16 910.353 299.184 911.633 294.32H905.617C904.689 296.24 902.993 297.2 900.913 297.2C897.553 297.2 895.249 294.704 895.249 290.736C895.249 286.768 897.553 284.272 900.913 284.272C902.993 284.272 904.689 285.232 905.617 287.152H911.633C910.353 282.288 906.321 279.28 900.977 279.28C894.353 279.28 889.681 284.016 889.681 290.736ZM928.744 279.536H914.984V302H928.744V297.616H920.456V292.688H927.784V288.464H920.456V283.92H928.744V279.536ZM948.617 295.312C948.617 287.792 937.513 289.552 937.513 285.648C937.513 284.24 938.505 283.568 939.817 283.6C941.289 283.632 942.313 284.496 942.409 285.936H948.329C948.105 281.648 944.809 279.216 939.913 279.216C935.209 279.216 931.721 281.584 931.721 285.84C931.657 293.808 942.889 291.568 942.889 295.728C942.889 297.04 941.865 297.84 940.265 297.84C938.729 297.84 937.641 297.008 937.481 295.28H931.657C931.817 299.824 935.593 302.224 940.425 302.224C945.673 302.224 948.617 299.088 948.617 295.312ZM950.768 283.92H956.72V302H962.192V283.92H968.144V279.536H950.768V283.92ZM976.008 307.984H981.288L989.864 271.6H984.584L976.008 307.984ZM1001 302H1006.7V278.64H997.833V283.728H1001V302ZM1016.78 299.312C1016.78 297.616 1015.46 296.304 1013.54 296.304C1011.59 296.304 1010.28 297.616 1010.28 299.312C1010.28 300.944 1011.59 302.256 1013.54 302.256C1015.46 302.256 1016.78 300.944 1016.78 299.312ZM1016.78 286.288C1016.78 284.592 1015.46 283.28 1013.54 283.28C1011.59 283.28 1010.28 284.592 1010.28 286.288C1010.28 287.92 1011.59 289.232 1013.54 289.232C1015.46 289.232 1016.78 287.92 1016.78 286.288ZM1019.53 290C1019.53 296.912 1021.87 301.904 1028.53 301.904C1035.18 301.904 1037.52 296.912 1037.52 290C1037.52 283.152 1035.18 278.16 1028.53 278.16C1021.87 278.16 1019.53 283.152 1019.53 290ZM1032.14 290C1032.14 293.712 1031.76 296.784 1028.53 296.784C1025.29 296.784 1024.91 293.712 1024.91 290C1024.91 286.416 1025.29 283.28 1028.53 283.28C1031.76 283.28 1032.14 286.416 1032.14 290ZM1040.41 290C1040.41 296.912 1042.74 301.904 1049.4 301.904C1056.06 301.904 1058.39 296.912 1058.39 290C1058.39 283.152 1056.06 278.16 1049.4 278.16C1042.74 278.16 1040.41 283.152 1040.41 290ZM1053.02 290C1053.02 293.712 1052.63 296.784 1049.4 296.784C1046.17 296.784 1045.78 293.712 1045.78 290C1045.78 286.416 1046.17 283.28 1049.4 283.28C1052.63 283.28 1053.02 286.416 1053.02 290ZM1068.87 293.04H1086.62V288.496H1068.87V293.04ZM1096.9 301.68H1112.97V297.232H1104.33C1108.04 294.384 1112.62 290.288 1112.62 285.168C1112.62 281.232 1110.25 278.128 1104.94 278.128C1100.68 278.128 1097 280.56 1096.84 286.224H1102.12C1102.12 284.016 1103.08 282.736 1104.71 282.736C1106.38 282.736 1107.14 283.824 1107.14 285.52C1107.14 289.456 1101.86 293.52 1096.9 297.616V301.68ZM1121.71 299.312C1121.71 297.616 1120.4 296.304 1118.48 296.304C1116.53 296.304 1115.22 297.616 1115.22 299.312C1115.22 300.944 1116.53 302.256 1118.48 302.256C1120.4 302.256 1121.71 300.944 1121.71 299.312ZM1121.71 286.288C1121.71 284.592 1120.4 283.28 1118.48 283.28C1116.53 283.28 1115.22 284.592 1115.22 286.288C1115.22 287.92 1116.53 289.232 1118.48 289.232C1120.4 289.232 1121.71 287.92 1121.71 286.288ZM1124.47 290C1124.47 296.912 1126.81 301.904 1133.46 301.904C1140.12 301.904 1142.46 296.912 1142.46 290C1142.46 283.152 1140.12 278.16 1133.46 278.16C1126.81 278.16 1124.47 283.152 1124.47 290ZM1137.08 290C1137.08 293.712 1136.7 296.784 1133.46 296.784C1130.23 296.784 1129.85 293.712 1129.85 290C1129.85 286.416 1130.23 283.28 1133.46 283.28C1136.7 283.28 1137.08 286.416 1137.08 290ZM1145.35 290C1145.35 296.912 1147.68 301.904 1154.34 301.904C1160.99 301.904 1163.33 296.912 1163.33 290C1163.33 283.152 1160.99 278.16 1154.34 278.16C1147.68 278.16 1145.35 283.152 1145.35 290ZM1157.95 290C1157.95 293.712 1157.57 296.784 1154.34 296.784C1151.11 296.784 1150.72 293.712 1150.72 290C1150.72 286.416 1151.11 283.28 1154.34 283.28C1157.57 283.28 1157.95 286.416 1157.95 290ZM1172.24 286.672V284.144H1166.77V310.512H1172.24V299.504C1173.23 301.008 1175.12 302.256 1177.74 302.256C1182.13 302.256 1185.61 298.672 1185.61 293.04C1185.61 287.408 1182.13 283.888 1177.74 283.888C1175.12 283.888 1173.23 285.104 1172.24 286.672ZM1180.05 293.04C1180.05 295.888 1178.19 297.488 1176.11 297.488C1174.06 297.488 1172.21 295.92 1172.21 293.072C1172.21 290.224 1174.06 288.656 1176.11 288.656C1178.19 288.656 1180.05 290.192 1180.05 293.04ZM1213.09 302H1218.53V291.568C1218.53 286.768 1215.68 283.952 1211.27 283.952C1208.68 283.952 1206.44 285.392 1205.25 287.28C1204.04 285.136 1201.86 283.952 1199.17 283.952C1196.84 283.952 1195.01 284.944 1193.96 286.384V284.144H1188.48V302H1193.96V292.304C1193.96 289.968 1195.3 288.688 1197.38 288.688C1199.46 288.688 1200.8 289.968 1200.8 292.304V302H1206.24V292.304C1206.24 289.968 1207.59 288.688 1209.67 288.688C1211.75 288.688 1213.09 289.968 1213.09 292.304V302ZM1234.61 289.584V283.952H1237.59C1239.76 283.952 1240.69 285.04 1240.69 286.768C1240.69 288.496 1239.76 289.584 1237.59 289.584H1234.61ZM1246.26 286.768C1246.26 282.64 1243.51 279.536 1238 279.536H1229.14V302H1234.61V293.936H1238C1243.73 293.936 1246.26 290.48 1246.26 286.768ZM1265.43 295.312C1265.43 287.792 1254.33 289.552 1254.33 285.648C1254.33 284.24 1255.32 283.568 1256.63 283.6C1258.1 283.632 1259.13 284.496 1259.22 285.936H1265.14C1264.92 281.648 1261.62 279.216 1256.73 279.216C1252.02 279.216 1248.53 281.584 1248.53 285.84C1248.47 293.808 1259.7 291.568 1259.7 295.728C1259.7 297.04 1258.68 297.84 1257.08 297.84C1255.54 297.84 1254.45 297.008 1254.29 295.28H1248.47C1248.63 299.824 1252.41 302.224 1257.24 302.224C1262.49 302.224 1265.43 299.088 1265.43 295.312ZM1267.58 283.92H1273.53V302H1279V283.92H1284.96V279.536H1267.58V283.92Z" fill="white" />
  <path fill-rule="evenodd" clip-rule="evenodd" d="M443.704 419.981C446.532 419.686 449.123 418.266 450.892 416.04C454.581 411.401 461.36 410.694 465.926 414.472C468.117 416.285 470.945 417.14 473.773 416.845L474.061 416.815C480.255 416.169 485.801 420.667 486.447 426.861L486.489 427.269C486.798 430.228 488.254 432.947 490.546 434.843C495.314 438.788 495.99 445.896 492.139 450.74C490.34 453.002 489.476 455.91 489.776 458.785L489.807 459.084C490.423 464.983 486.139 470.264 480.24 470.88C477.371 471.179 474.743 472.62 472.947 474.878L472.79 475.076C468.838 480.047 461.574 480.804 456.681 476.756L456.486 476.594C454.264 474.755 451.395 473.888 448.527 474.187C442.628 474.802 437.348 470.519 436.733 464.621L436.702 464.322C436.402 461.448 434.957 458.781 432.731 456.939C427.962 452.993 427.155 445.896 431.007 441.051C432.859 438.722 433.723 435.76 433.414 432.8L433.372 432.395C432.726 426.201 437.223 420.657 443.416 420.011L443.704 419.981Z" fill="#018A77" />
  <path fill-rule="evenodd" clip-rule="evenodd" d="M448.201 418.368C450.965 418.121 453.519 416.785 455.298 414.655C459.005 410.22 465.605 409.629 470.041 413.336C472.17 415.116 474.92 415.976 477.685 415.729L477.947 415.706C484.054 415.159 489.455 419.743 490.002 425.85C490.258 428.714 491.644 431.39 493.851 433.233C498.445 437.073 499.006 443.971 495.167 448.566C493.369 450.718 492.478 453.52 492.728 456.313C493.249 462.13 488.956 467.267 483.139 467.788C480.346 468.038 477.767 469.387 475.969 471.539L475.799 471.742C471.828 476.494 464.756 477.127 460.004 473.156L459.802 472.987C457.65 471.188 454.871 470.318 452.077 470.568C446.258 471.089 441.12 466.794 440.599 460.976C440.349 458.182 438.975 455.582 436.823 453.783C432.23 449.945 431.559 443.061 435.397 438.469C437.241 436.263 438.129 433.384 437.873 430.522C437.326 424.413 441.828 418.938 447.937 418.392L448.201 418.368Z" fill="#42FCCC" />
  <path d="M471.503 446.858L463.59 446.56C462.627 446.524 462.261 447.592 462.943 448.434C465.065 451.057 468.901 455.386 471.072 455.345C473.395 455.3 473.204 450.622 472.958 448.251C472.883 447.529 472.215 446.885 471.503 446.858L471.503 446.858Z" fill="#0D003D" />
  <path d="M454.042 439.036L456.948 436.202C455.89 434.26 454.626 433.369 452.942 433.812C451.926 434.464 451.142 435.422 450.703 436.547C450.264 437.673 450.194 438.909 450.501 440.078C450.809 441.247 451.479 442.288 452.415 443.053C453.351 443.817 454.505 444.266 455.712 444.334C456.656 443.941 457.436 443.234 457.919 442.333C458.402 441.431 458.559 440.39 458.363 439.386L454.042 439.036Z" fill="#0D003D" />
  <path d="M471.564 432.203L474.67 429.052C474.355 428.243 473.748 427.582 472.969 427.198C472.191 426.814 471.297 426.736 470.464 426.979C469.447 427.631 468.663 428.589 468.224 429.714C467.786 430.84 467.715 432.076 468.023 433.245C468.331 434.414 469 435.455 469.936 436.22C470.873 436.984 472.027 437.433 473.233 437.501C474.178 437.108 474.957 436.401 475.441 435.5C475.924 434.598 476.08 433.557 475.884 432.553L471.564 432.203Z" fill="#0D003D" />
  <g clip-path="url(#clip0_564_3138)">
    <path d="M609.592 420.148L614.554 413.55C615.761 411.945 618.342 412.325 619.037 414.21L620.936 419.357C621.419 420.668 622.914 421.35 624.252 420.871L630.629 418.589C632.497 417.921 634.419 419.498 634.053 421.398L632.541 429.228C632.303 430.461 633.054 431.68 634.29 432.068L641.485 434.328C643.411 434.933 643.911 437.354 642.367 438.601L640.097 440.436C638.375 441.826 639.231 444.555 641.469 444.813L644.083 445.114C646.655 445.411 647.234 448.794 644.892 449.836L639.081 452.421C637.469 453.139 637.101 455.201 638.368 456.427L640.062 458.065C641.509 459.465 640.791 461.849 638.801 462.245L634.475 463.107C632.868 463.427 631.999 465.115 632.694 466.566L635.542 472.504C636.622 474.757 634.021 476.958 631.86 475.62L627.958 473.206C626.195 472.114 623.916 473.401 624.041 475.419L624.229 478.458C624.362 480.619 621.78 481.875 620.052 480.488L619.586 480.114C617.906 478.766 615.386 479.914 615.405 482.018L615.423 483.933C615.448 486.57 611.775 487.385 610.569 485.01L607.364 478.702C606.667 477.329 604.873 476.873 603.59 477.743L598.747 481.025C597.325 481.989 595.332 481.313 594.82 479.691L593.655 476.001C593.196 474.549 591.519 473.818 590.108 474.455L582.638 477.827C580.411 478.833 578.122 476.492 579.278 474.391L582.771 468.046C583.688 466.379 582.407 464.354 580.451 464.379L575.355 464.444C573.22 464.471 571.967 462.1 573.248 460.455L576.177 456.693C577.243 455.325 576.572 453.333 574.871 452.817L569.345 451.142C566.962 450.419 566.908 447.167 569.266 446.415L575.744 444.349C577.336 443.841 577.985 442.004 577.056 440.638L572.274 433.611C571.074 431.849 572.523 429.549 574.679 429.794L584.029 430.854C585.638 431.037 587.001 429.746 586.851 428.183L586.239 421.806C586.045 419.782 588.301 418.424 590.1 419.481L593.889 421.708C595.419 422.607 597.39 421.763 597.717 420.069L598.412 416.468C598.862 414.135 602.116 413.721 603.216 415.855L605.231 419.765C606.092 421.437 608.466 421.645 609.592 420.148L609.592 420.148Z" fill="#B80AE2" />
    <path d="M612.377 414.449L617.339 407.851C618.546 406.246 621.127 406.626 621.822 408.511L623.721 413.658C624.204 414.969 625.699 415.651 627.037 415.172L633.414 412.89C635.282 412.222 637.204 413.799 636.838 415.699L635.326 423.529C635.088 424.761 635.839 425.981 637.075 426.369L644.27 428.629C646.196 429.234 646.696 431.655 645.152 432.902L642.882 434.736C641.161 436.127 642.016 438.856 644.254 439.114L646.868 439.415C649.44 439.712 650.02 443.094 647.677 444.137L641.866 446.722C640.254 447.44 639.887 449.502 641.154 450.728L642.847 452.366C644.294 453.766 643.576 456.149 641.587 456.546L637.26 457.408C635.653 457.728 634.784 459.416 635.48 460.867L638.327 466.805C639.407 469.058 636.807 471.259 634.645 469.921L630.743 467.507C628.98 466.415 626.701 467.702 626.826 469.719L627.014 472.759C627.148 474.92 624.565 476.176 622.838 474.789L622.371 474.415C620.691 473.067 618.171 474.214 618.19 476.319L618.208 478.234C618.233 480.87 614.56 481.685 613.354 479.311L610.15 473.003C609.452 471.629 607.659 471.174 606.375 472.044L601.533 475.326C600.11 476.29 598.117 475.613 597.605 473.992L596.44 470.302C595.981 468.85 594.304 468.118 592.893 468.755L585.423 472.128C583.196 473.134 580.907 470.792 582.063 468.692L585.556 462.346C586.473 460.68 585.192 458.655 583.236 458.68L578.14 458.745C576.005 458.772 574.752 456.4 576.033 454.755L578.963 450.994C580.028 449.625 579.357 447.634 577.656 447.118L572.13 445.442C569.748 444.72 569.693 441.468 572.051 440.716L578.529 438.65C580.121 438.142 580.771 436.305 579.841 434.939L575.059 427.912C573.859 426.15 575.309 423.85 577.464 424.095L586.814 425.155C588.423 425.338 589.786 424.047 589.636 422.484L589.025 416.107C588.831 414.083 591.086 412.724 592.885 413.782L596.674 416.009C598.204 416.908 600.175 416.064 600.502 414.369L601.197 410.769C601.647 408.436 604.901 408.021 606.001 410.156L608.016 414.066C608.877 415.738 611.251 415.946 612.377 414.449L612.377 414.449Z" fill="#E476FF" />
    <path d="M610.94 447.393L617.776 449.009C618.607 449.206 618.909 450.229 618.309 450.806C616.44 452.603 613.069 455.488 611.196 454.937C609.191 454.346 609.42 450.289 609.665 448.269C609.74 447.654 610.325 447.248 610.94 447.393L610.94 447.393Z" fill="#0D003D" />
    <path d="M624.211 436.282L627.801 435.683C627.857 433.774 627.029 432.182 625.625 431.847C623.863 431.425 621.887 433.134 621.212 435.662C620.536 438.19 621.416 440.581 623.178 441.003C624.852 441.23 626.148 440.499 627.028 438.598L624.211 436.282Z" fill="#0D003D" />
    <path d="M610.502 433.471L614.092 432.872C614.148 430.962 613.32 429.371 611.916 429.035C610.154 428.614 608.178 430.322 607.503 432.85C606.827 435.379 607.707 437.77 609.469 438.191C611.143 438.418 612.439 437.688 613.319 435.787L610.502 433.471Z" fill="#0D003D" />
  </g>
  <path d="M785.736 403.718H729.224C721.786 403.718 715.76 409.744 715.76 417.176V473.688C715.76 481.127 721.786 487.152 729.224 487.152H785.736C793.169 487.152 799.194 481.127 799.194 473.688V417.176C799.194 409.744 793.169 403.718 785.736 403.718Z" fill="#5B3ADF" />
  <path d="M741.807 427.068V463.801C741.807 465.752 744.064 466.944 745.812 465.914L777.07 447.547C778.725 446.575 778.725 444.294 777.07 443.322L745.812 424.955C744.064 423.925 741.807 425.117 741.807 427.068Z" fill="white" />
  <path d="M897.172 475.077C909.779 487.063 923.073 471.907 922.848 457.124C931.686 445.137 932.299 425.319 917.653 418.594C901.566 408.392 894.869 415.797 880.898 414.785C866.014 413.719 871.735 425.692 865.075 436.76C849.652 462.371 884.329 476.701 897.172 475.077Z" fill="#7E99FC" />
  <path d="M903.833 472.048C916.426 483.736 929.657 469.016 929.395 454.602C938.14 442.928 938.74 423.501 924.11 416.892C908.043 406.826 901.384 414.033 887.441 413.023C872.586 411.932 878.321 423.66 871.712 434.471C856.382 459.482 891.014 473.604 903.833 472.048Z" fill="#AFC0FF" />
  <path d="M903.833 472.048C916.426 483.736 929.657 469.016 929.395 454.602C938.14 442.928 938.74 423.501 924.11 416.892C908.043 406.826 901.384 414.033 887.441 413.023C872.586 411.932 878.321 423.66 871.712 434.471C856.382 459.482 891.014 473.604 903.833 472.048Z" fill="#AFC0FF" />
  <path d="M921.847 443.216C918.874 445.396 915.318 446.368 911.777 445.97C908.344 445.552 905.173 443.726 902.881 440.847C909.019 442.926 915.448 443.729 921.847 443.216Z" fill="#0D003D" />
  <path d="M922.136 429.318L925.169 427.841C924.993 427.109 924.584 426.463 924.01 426.009C923.414 425.529 922.691 425.252 921.94 425.216C921.012 425.445 920.202 426.036 919.675 426.87C919.424 427.269 919.256 427.718 919.182 428.189C919.108 428.661 919.129 429.143 919.245 429.605C919.466 431.902 921.055 433.706 922.773 433.542C923.478 433.493 924.138 433.166 924.622 432.626C924.873 432.378 925.072 432.076 925.204 431.742C925.336 431.407 925.4 431.047 925.39 430.685L922.136 429.318Z" fill="#0D003D" />
  <path d="M909.472 430.148L912.294 428.831C912.129 428.17 911.747 427.584 911.211 427.17C910.657 426.742 909.986 426.497 909.289 426.469C908.408 426.663 907.635 427.197 907.137 427.958C906.903 428.317 906.745 428.721 906.674 429.144C906.603 429.568 906.62 430.002 906.723 430.419C906.942 432.486 908.414 434.11 910.019 433.963C910.69 433.938 911.327 433.662 911.807 433.187C912.03 432.96 912.203 432.689 912.316 432.39C912.429 432.091 912.48 431.772 912.464 431.452L909.472 430.148Z" fill="#0D003D" />
  <g clip-path="url(#clip1_564_3138)">
    <path d="M1071.06 469.777C1068.24 474.03 1060.97 471.314 1059.17 471.759C1048.73 484.814 1044.77 479.985 1031.89 476.785C1017.6 486.445 1005.92 470.422 1007.98 456.443C1000.45 443.97 1002.27 425.067 1018.01 420.596C1035.65 413.009 1041.53 422.338 1055.9 421.744C1067.35 421.436 1077.01 434.691 1069.3 444.615C1070.19 452.683 1077.3 462.632 1071.06 469.777L1071.06 469.777Z" fill="#0053B5" />
    <path d="M1065.69 464.042C1062.86 468.295 1055.6 465.579 1053.8 466.024C1043.36 479.078 1039.4 474.249 1026.52 471.049C1012.22 480.709 1000.54 464.686 1002.6 450.707C995.072 438.234 1000.16 415.848 1013.05 411.906C1031.41 406.294 1036.16 416.602 1050.52 416.009C1061.98 415.701 1071.64 428.955 1063.92 438.879C1064.82 446.948 1071.92 456.896 1065.69 464.042L1065.69 464.042Z" fill="#3693FF" />
    <path d="M1022.74 441.045L1017.26 438.816C1016.6 438.545 1016.1 439.317 1016.39 440.17C1017.29 442.827 1019 447.295 1020.53 447.807C1022.16 448.354 1023.08 444.519 1023.44 442.538C1023.55 441.935 1023.23 441.246 1022.74 441.045L1022.74 441.045Z" fill="#0D003D" />
  </g>
  <path d="M1017.98 427.51L1015.44 425.402C1016.2 423.786 1017.5 422.831 1018.73 423.18C1020.28 423.619 1021.1 425.928 1020.57 428.337C1020.04 430.747 1018.35 432.345 1016.81 431.906C1015.42 431.345 1014.72 430.156 1014.83 428.177L1017.98 427.51Z" fill="#0D003D" />
  <path d="M1029.81 430.47L1027.27 428.362C1028.02 426.746 1029.33 425.791 1030.56 426.14C1032.11 426.579 1032.93 428.887 1032.39 431.297C1031.86 433.707 1030.18 435.305 1028.64 434.866C1027.24 434.305 1026.54 433.116 1026.65 431.137L1029.81 430.47Z" fill="#0D003D" />
  <defs>
    <linearGradient id="paint0_linear_564_3138" x1="310.5" y1="143" x2="1188.5" y2="143" gradientUnits="userSpaceOnUse">
      <stop offset="0.00054077" stop-color="#C084FC" />
      <stop offset="1" stop-color="#DB2777" />
    </linearGradient>
    <clipPath id="clip0_564_3138">
      <rect width="79.7044" height="79.7044" fill="white" transform="translate(574.977 400) rotate(8.72219)" />
    </clipPath>
    <clipPath id="clip1_564_3138">
      <rect width="75.398" height="69.4845" fill="white" transform="matrix(-0.999396 -0.0347523 -0.0347523 0.999396 1075.37 412.023)" />
    </clipPath>
  </defs>
</svg>
