<svg width="44" height="45" viewBox="0 0 44 45" fill="none" xmlns="http://www.w3.org/2000/svg">
<path d="M20.284 8.24881L22.4089 4.1578C22.5259 3.9318 22.7021 3.74281 22.9186 3.61081C23.135 3.47781 23.3835 3.4078 23.6372 3.4058C23.891 3.4038 24.1403 3.4718 24.3585 3.6018C24.5766 3.7308 24.7552 3.9178 24.8751 4.1418L26.3213 6.84179C26.4087 7.00479 26.5278 7.14881 26.6716 7.26581C26.8154 7.38281 26.981 7.4698 27.1587 7.5218C27.3364 7.5738 27.5227 7.5898 27.7067 7.5688C27.8907 7.5478 28.0687 7.4908 28.2304 7.4008L31.4727 5.5878C31.6887 5.4668 31.933 5.40579 32.1805 5.41079C32.4279 5.41579 32.6696 5.4868 32.8807 5.6158C33.0918 5.7448 33.2646 5.9288 33.3816 6.1468C33.4985 6.3648 33.5553 6.6098 33.5461 6.8578L33.3793 11.3398C33.3666 11.6808 33.4792 12.0148 33.6957 12.2778C33.9123 12.5408 34.2178 12.7158 34.5545 12.7698L38.6115 13.4128C38.8581 13.4518 39.0898 13.5558 39.2822 13.7158C39.4746 13.8748 39.6207 14.0828 39.7053 14.3178C39.7898 14.5528 39.8097 14.8068 39.7629 15.0518C39.716 15.2968 39.6041 15.5258 39.4389 15.7128L38.3689 16.9268C38.1884 17.1308 38.0718 17.3848 38.0338 17.6548C37.9958 17.9248 38.0379 18.2008 38.155 18.4478C38.2721 18.6938 38.4589 18.9008 38.6924 19.0428C38.9259 19.1838 39.1957 19.2538 39.4684 19.2428L40.8996 19.1878C41.2035 19.1758 41.5029 19.2638 41.7522 19.4378C42.0015 19.6128 42.187 19.8638 42.2804 20.1528C42.3738 20.4428 42.37 20.7548 42.2696 21.0418C42.1692 21.3288 41.9777 21.5758 41.7243 21.7438L38.8119 23.6768C38.6247 23.8008 38.4703 23.9688 38.3618 24.1658C38.2533 24.3618 38.194 24.5818 38.1888 24.8068C38.1836 25.0318 38.2327 25.2538 38.332 25.4558C38.4313 25.6578 38.5778 25.8318 38.759 25.9648L39.8053 26.7308C40.0081 26.8798 40.167 27.0798 40.2652 27.3118C40.3634 27.5428 40.3972 27.7968 40.363 28.0458C40.3289 28.2948 40.2281 28.5308 40.0713 28.7268C39.9144 28.9238 39.7074 29.0738 39.4722 29.1618L37.2159 30.0108C37.0197 30.0838 36.8427 30.2008 36.698 30.3528C36.5533 30.5048 36.4446 30.6868 36.38 30.8858C36.3154 31.0858 36.2965 31.2968 36.3248 31.5048C36.3531 31.7128 36.4278 31.9108 36.5434 32.0858L38.5653 35.1438C38.7314 35.3948 38.8117 35.6938 38.7943 35.9938C38.7769 36.2948 38.6627 36.5818 38.4687 36.8128C38.2747 37.0428 38.0114 37.2038 37.7181 37.2718C37.4249 37.3408 37.1174 37.3118 36.8417 37.1908L34.5435 36.1808C34.3088 36.0778 34.0503 36.0418 33.7963 36.0758C33.5423 36.1108 33.3027 36.2138 33.1038 36.3758C32.9049 36.5378 32.7543 36.7508 32.6687 36.9928C32.5831 37.2338 32.5657 37.4948 32.6185 37.7458L32.9706 39.4198C33.0264 39.6848 33.0037 39.9608 32.9052 40.2138C32.8068 40.4658 32.6369 40.6848 32.4163 40.8418C32.1957 40.9998 31.9339 41.0898 31.6631 41.1008C31.3923 41.1118 31.1241 41.0438 30.8914 40.9048L30.6097 40.7358C30.3821 40.5998 30.1206 40.5318 29.8557 40.5398C29.5908 40.5468 29.3335 40.6298 29.114 40.7778C28.8944 40.9268 28.7217 41.1348 28.6161 41.3778C28.5105 41.6208 28.4764 41.8888 28.5177 42.1508L28.6853 43.2148C28.7345 43.5268 28.6764 43.8458 28.5206 44.1208C28.3648 44.3948 28.1204 44.6088 27.8275 44.7258C27.5345 44.8438 27.2103 44.8588 26.908 44.7678C26.6056 44.6778 26.3429 44.4868 26.1628 44.2278L23.9184 40.9938C23.8034 40.8278 23.6539 40.6898 23.4802 40.5868C23.3065 40.4848 23.1127 40.4218 22.9121 40.4018C22.7116 40.3808 22.5091 40.4048 22.3185 40.4708C22.128 40.5368 21.954 40.6428 21.8084 40.7818L19.4744 43.0198C19.3151 43.1728 19.1219 43.2848 18.9107 43.3488C18.6994 43.4118 18.4761 43.4248 18.2591 43.3848C18.0421 43.3458 17.8377 43.2548 17.6625 43.1208C17.4873 42.9868 17.3464 42.8128 17.2514 42.6138L16.3199 40.6608C16.2337 40.4808 16.1095 40.3198 15.9559 40.1918C15.8022 40.0638 15.6228 39.9698 15.4296 39.9168C15.2365 39.8638 15.0342 39.8528 14.8366 39.8858C14.639 39.9178 14.4506 39.9918 14.2844 40.1038L10.5442 42.6168C10.3008 42.7798 10.0121 42.8628 9.71908 42.8518C9.42607 42.8418 9.1437 42.7398 8.9121 42.5598C8.6805 42.3798 8.51145 42.1318 8.429 41.8508C8.34655 41.5688 8.35489 41.2688 8.45283 40.9918L9.80814 37.1668C9.8894 36.9368 9.90926 36.6908 9.86576 36.4508C9.82226 36.2118 9.7169 35.9878 9.56016 35.8018C9.40341 35.6158 9.20073 35.4738 8.97225 35.3908C8.74377 35.3068 8.49743 35.2848 8.2577 35.3258L5.52152 35.7968C5.2637 35.8408 4.99862 35.8118 4.75656 35.7128C4.5145 35.6138 4.30523 35.4478 4.15266 35.2358C4.00009 35.0228 3.91038 34.7718 3.89378 34.5108C3.87718 34.2488 3.93436 33.9888 4.05879 33.7588L5.32419 31.4168C5.43079 31.2198 5.4883 30.9998 5.49184 30.7758C5.49537 30.5518 5.44483 30.3298 5.3445 30.1288C5.24416 29.9288 5.097 29.7558 4.91547 29.6238C4.73394 29.4928 4.52339 29.4068 4.30168 29.3738L1.19038 28.9138C0.898222 28.8698 0.62732 28.7358 0.416729 28.5278C0.206139 28.3208 0.0667396 28.0528 0.0186269 27.7608C-0.0294859 27.4688 0.0161744 27.1698 0.149023 26.9058C0.281872 26.6418 0.495046 26.4278 0.757818 26.2928L4.07241 24.5908C4.26245 24.4938 4.42756 24.3538 4.55498 24.1818C4.6824 24.0108 4.76873 23.8118 4.8073 23.6018C4.84587 23.3918 4.83566 23.1758 4.77745 22.9698C4.71924 22.7648 4.61459 22.5748 4.47158 22.4158L1.3191 18.9178C1.14181 18.7208 1.02418 18.4778 0.979998 18.2158C0.935814 17.9548 0.966894 17.6868 1.0696 17.4428C1.17231 17.1978 1.3424 16.9888 1.55997 16.8378C1.77754 16.6868 2.03359 16.6008 2.29817 16.5898L7.41571 16.3818C7.6221 16.3738 7.82404 16.3198 8.00695 16.2228C8.18986 16.1268 8.34917 15.9918 8.47335 15.8268C8.59753 15.6618 8.68348 15.4708 8.725 15.2688C8.76652 15.0658 8.76256 14.8568 8.71341 14.6558L7.85793 11.1628C7.79666 10.9128 7.80581 10.6498 7.88437 10.4048C7.96292 10.1598 8.10781 9.94081 8.30298 9.77281C8.49815 9.60481 8.73598 9.49481 8.99012 9.45381C9.24426 9.41281 9.50479 9.4428 9.74284 9.5408L11.9651 10.4558C12.1728 10.5408 12.3981 10.5758 12.6218 10.5548C12.8455 10.5348 13.061 10.4608 13.25 10.3388C13.4389 10.2178 13.5957 10.0518 13.7069 9.85681C13.8182 9.66181 13.8807 9.4428 13.889 9.2178L13.9658 7.1568C13.9766 6.8648 14.0787 6.5838 14.2577 6.3528C14.4367 6.1218 14.6836 5.9538 14.9634 5.8708C15.2433 5.7878 15.5421 5.79481 15.8177 5.89081C16.0934 5.98681 16.3319 6.1668 16.4998 6.4058L17.9062 8.4078C18.0439 8.6038 18.2297 8.7608 18.4458 8.8648C18.6618 8.9678 18.9008 9.0138 19.1398 8.9978C19.3787 8.9818 19.6095 8.90481 19.8099 8.77281C20.0103 8.64181 20.1736 8.46181 20.284 8.24881Z" fill="#A82011"/>
<path d="M21.3129 4.84301L23.4378 0.75201C23.5548 0.52701 23.731 0.338013 23.9474 0.205013C24.1639 0.0730129 24.4124 0.00201103 24.6661 1.10315e-05C24.9199 -0.000988969 25.1692 0.0660102 25.3874 0.19601C25.6055 0.32601 25.7841 0.513019 25.9039 0.736019L27.3501 3.43602C27.4376 3.60002 27.5567 3.74401 27.7005 3.86001C27.8442 3.97701 28.0098 4.06401 28.1875 4.11601C28.3653 4.16801 28.5516 4.18402 28.7355 4.16302C28.9195 4.14302 29.0976 4.08501 29.2592 3.99501L32.5016 2.18202C32.7176 2.06202 32.9619 2.00101 33.2093 2.00601C33.4568 2.01001 33.6984 2.08102 33.9095 2.21002C34.1206 2.34002 34.2935 2.52301 34.4105 2.74101C34.5274 2.95901 34.5842 3.20501 34.575 3.45201L34.4082 7.93402C34.3955 8.27502 34.508 8.60902 34.7246 8.87202C34.9411 9.13602 35.2466 9.31101 35.5833 9.36401L39.6403 10.007C39.887 10.046 40.1186 10.151 40.311 10.31C40.5034 10.469 40.6496 10.677 40.7341 10.912C40.8187 11.147 40.8386 11.401 40.7917 11.646C40.7449 11.892 40.633 12.12 40.4678 12.307L39.3978 13.521C39.2172 13.726 39.1007 13.979 39.0627 14.249C39.0246 14.52 39.0668 14.795 39.1838 15.042C39.3009 15.289 39.4878 15.496 39.7213 15.637C39.9547 15.778 40.2246 15.848 40.4973 15.838L41.9284 15.782C42.2323 15.77 42.5318 15.858 42.781 16.033C43.0303 16.207 43.2158 16.458 43.3093 16.747C43.4027 17.037 43.3989 17.349 43.2985 17.636C43.1981 17.924 43.0066 18.17 42.7532 18.338L39.8407 20.271C39.6536 20.396 39.4992 20.563 39.3907 20.76C39.2822 20.957 39.2228 21.177 39.2176 21.401C39.2124 21.626 39.2616 21.849 39.3609 22.05C39.4601 22.252 39.6066 22.426 39.7879 22.559L40.8342 23.326C41.037 23.474 41.1959 23.675 41.294 23.906C41.3922 24.138 41.426 24.391 41.3919 24.641C41.3577 24.89 41.2569 25.125 41.1001 25.321C40.9433 25.518 40.7363 25.668 40.501 25.757L38.2447 26.605C38.0486 26.679 37.8716 26.796 37.7269 26.947C37.5822 27.099 37.4735 27.281 37.4088 27.481C37.3442 27.68 37.3254 27.891 37.3537 28.099C37.3819 28.307 37.4566 28.505 37.5722 28.68L39.5941 31.739C39.7602 31.99 39.8405 32.288 39.8231 32.589C39.8057 32.889 39.6915 33.176 39.4975 33.407C39.3035 33.637 39.0402 33.799 38.747 33.867C38.4537 33.935 38.1462 33.906 37.8706 33.785L35.5723 32.776C35.3377 32.673 35.0791 32.636 34.8252 32.67C34.5712 32.705 34.3316 32.808 34.1326 32.97C33.9337 33.132 33.7832 33.345 33.6976 33.587C33.6119 33.829 33.5946 34.089 33.6473 34.34L33.9994 36.014C34.0552 36.279 34.0325 36.555 33.9341 36.808C33.8356 37.061 33.6657 37.279 33.4451 37.437C33.2245 37.594 32.9628 37.684 32.6919 37.695C32.4211 37.706 32.153 37.638 31.9202 37.499L31.6385 37.331C31.411 37.195 31.1494 37.126 30.8845 37.134C30.6196 37.141 30.3623 37.224 30.1428 37.373C29.9233 37.521 29.7506 37.729 29.645 37.972C29.5393 38.215 29.5052 38.484 29.5465 38.746L29.7141 39.809C29.7633 40.121 29.7053 40.44 29.5494 40.715C29.3936 40.99 29.1492 41.203 28.8563 41.321C28.5634 41.438 28.2392 41.453 27.9368 41.362C27.6344 41.272 27.3717 41.081 27.1917 40.822L24.9472 37.588C24.8322 37.423 24.6827 37.284 24.509 37.182C24.3353 37.079 24.1415 37.016 23.9409 36.996C23.7404 36.976 23.5379 36.999 23.3473 37.065C23.1568 37.131 22.9828 37.237 22.8373 37.377L20.5031 39.614C20.3439 39.767 20.1507 39.88 19.9394 39.943C19.7282 40.007 19.5049 40.019 19.2879 39.979C19.0709 39.94 18.8664 39.849 18.6912 39.715C18.516 39.581 18.3752 39.407 18.2802 39.208L17.3487 37.256C17.2624 37.075 17.1383 36.915 16.9846 36.786C16.831 36.658 16.6515 36.564 16.4584 36.511C16.2652 36.458 16.063 36.448 15.8654 36.48C15.6677 36.512 15.4794 36.587 15.3132 36.698L11.573 39.211C11.3296 39.374 11.0409 39.457 10.7479 39.447C10.4548 39.437 10.1725 39.334 9.94086 39.155C9.70925 38.975 9.54021 38.726 9.45776 38.445C9.37532 38.163 9.38366 37.863 9.4816 37.587L10.8369 33.761C10.9182 33.532 10.9381 33.285 10.8946 33.046C10.8511 32.806 10.7457 32.582 10.589 32.396C10.4322 32.21 10.2295 32.068 10.001 31.985C9.77256 31.901 9.52622 31.879 9.2865 31.92L6.55033 32.391C6.29251 32.435 6.02743 32.406 5.78537 32.307C5.54331 32.208 5.33403 32.042 5.18146 31.83C5.0289 31.617 4.93919 31.366 4.92259 31.105C4.90599 30.844 4.96317 30.583 5.08759 30.353L6.353 28.012C6.4596 27.814 6.5171 27.594 6.52064 27.37C6.52417 27.146 6.47363 26.924 6.3733 26.724C6.27297 26.523 6.1258 26.35 5.94427 26.218C5.76274 26.087 5.5522 26.001 5.33049 25.968L2.21919 25.508C1.92703 25.465 1.65613 25.33 1.44554 25.123C1.23495 24.916 1.09555 24.647 1.04744 24.355C0.999321 24.064 1.04498 23.764 1.17783 23.501C1.31068 23.237 1.52385 23.022 1.78663 22.887L5.10122 21.186C5.29126 21.088 5.45637 20.948 5.58379 20.777C5.71121 20.605 5.79754 20.407 5.83611 20.196C5.87468 19.986 5.86447 19.77 5.80626 19.564C5.74805 19.359 5.6434 19.169 5.50038 19.011L2.3479 15.512C2.1706 15.315 2.05298 15.072 2.00879 14.811C1.96461 14.549 1.99569 14.281 2.0984 14.037C2.2011 13.793 2.37119 13.583 2.58876 13.432C2.80633 13.281 3.06239 13.195 3.32697 13.184L8.44452 12.976C8.6509 12.968 8.85285 12.914 9.03576 12.818C9.21867 12.722 9.37798 12.586 9.50216 12.421C9.62634 12.256 9.71229 12.065 9.75381 11.863C9.79533 11.661 9.79137 11.451 9.74222 11.251L8.88672 7.75701C8.82546 7.50701 8.83462 7.24502 8.91317 6.99902C8.99173 6.75402 9.13662 6.53502 9.33179 6.36702C9.52696 6.20002 9.76479 6.08902 10.0189 6.04802C10.2731 6.00702 10.5336 6.03702 10.7716 6.13502L12.9938 7.05001C13.2016 7.13601 13.4269 7.17001 13.6506 7.14901C13.8743 7.12901 14.0898 7.05502 14.2788 6.93402C14.4677 6.81202 14.6245 6.64602 14.7357 6.45101C14.847 6.25601 14.9095 6.03701 14.9179 5.81201L14.9946 3.75102C15.0054 3.45902 15.1075 3.17802 15.2865 2.94702C15.4655 2.71702 15.7123 2.54801 15.9922 2.46501C16.2721 2.38201 16.5709 2.38902 16.8465 2.48602C17.1222 2.58202 17.3607 2.76202 17.5286 3.00102L18.935 5.00201C19.0727 5.19801 19.2585 5.35601 19.4746 5.45901C19.6907 5.56201 19.9297 5.60801 20.1686 5.59201C20.4076 5.57601 20.6384 5.49901 20.8388 5.36801C21.0392 5.23701 21.2025 5.05601 21.3129 4.84301Z" fill="#FF7761"/>
<path d="M20.6008 18.3158L22.3204 18.3078C22.5784 19.2088 22.4614 19.8528 21.8218 20.2198C21.3209 20.3248 20.7995 20.2688 20.3324 20.0598C19.8654 19.8498 19.4767 19.4978 19.2221 19.0538C18.9676 18.6098 18.8602 18.0958 18.9155 17.5868C18.9708 17.0778 19.1859 16.5998 19.53 16.2198C19.9318 16.0578 20.3773 16.0398 20.7912 16.1678C21.205 16.2968 21.5618 16.5648 21.8011 16.9258L20.6008 18.3158Z" fill="#0D003D"/>
<path d="M27.9211 15.1717L29.7955 15.1987C29.9407 15.5367 29.9541 15.9167 29.8332 16.2637C29.7122 16.6117 29.4657 16.9007 29.1421 17.0757C28.6412 17.1807 28.1198 17.1247 27.6528 16.9147C27.1857 16.7057 26.797 16.3537 26.5424 15.9087C26.2879 15.4647 26.1806 14.9517 26.2359 14.4427C26.2912 13.9337 26.5063 13.4547 26.8503 13.0757C27.2521 12.9137 27.6977 12.8947 28.1115 13.0237C28.5253 13.1517 28.8821 13.4197 29.1214 13.7807L27.9211 15.1717Z" fill="#0D003D"/>
<path d="M24.7129 24.8209L28.2349 23.2849C28.332 23.2429 28.4387 23.2279 28.5437 23.2409C28.6487 23.2549 28.748 23.2969 28.8313 23.3619C28.9145 23.4279 28.9784 23.5139 29.0163 23.6129C29.0542 23.7119 29.0646 23.8189 29.0465 23.9239C28.8029 25.3599 28.249 27.7899 27.2487 28.1609C26.1782 28.5589 24.9754 26.6409 24.4341 25.6429C24.3947 25.5709 24.3707 25.4919 24.3636 25.4109C24.3564 25.3299 24.3663 25.2479 24.3925 25.1699C24.4188 25.0929 24.4608 25.0219 24.516 24.9619C24.5711 24.9019 24.6382 24.8539 24.7129 24.8209Z" fill="#0D003D"/>
</svg>
