<svg width="22" height="18" viewBox="0 0 22 18" fill="none" xmlns="http://www.w3.org/2000/svg">
<g clip-path="url(#clip0_669_2376)">
<path d="M18.7261 2.38863C17.3662 1.76217 15.908 1.30062 14.3834 1.03627C14.3556 1.03116 14.3279 1.04391 14.3136 1.06941C14.126 1.40431 13.9183 1.84122 13.7728 2.18462C12.133 1.93812 10.5016 1.93812 8.89532 2.18462C8.74982 1.83358 8.53455 1.40431 8.34617 1.06941C8.33187 1.04476 8.30413 1.03201 8.27636 1.03627C6.75256 1.29977 5.29435 1.76132 3.93369 2.38863C3.92191 2.39373 3.91181 2.40224 3.90511 2.41328C1.1392 6.56219 0.381505 10.6091 0.753206 14.6059C0.754888 14.6254 0.76582 14.6441 0.780958 14.656C2.60583 16.0016 4.37352 16.8184 6.10839 17.3599C6.13616 17.3684 6.16558 17.3582 6.18325 17.3352C6.59363 16.7726 6.95945 16.1792 7.27311 15.5553C7.29162 15.5188 7.27395 15.4754 7.23612 15.461C6.65586 15.24 6.10334 14.9705 5.57186 14.6645C5.52982 14.6399 5.52646 14.5795 5.56513 14.5506C5.67697 14.4665 5.78885 14.3789 5.89564 14.2905C5.91496 14.2744 5.94189 14.2709 5.96461 14.2811C9.45622 15.8817 13.2363 15.8817 16.6867 14.2811C16.7095 14.2701 16.7364 14.2735 16.7565 14.2897C16.8634 14.3781 16.9752 14.4665 17.0879 14.5506C17.1266 14.5795 17.124 14.6399 17.082 14.6645C16.5505 14.9765 15.998 15.24 15.4169 15.4601C15.3791 15.4746 15.3622 15.5188 15.3808 15.5553C15.7011 16.1784 16.067 16.7717 16.4698 17.3344C16.4866 17.3582 16.5169 17.3684 16.5446 17.3599C18.2879 16.8184 20.0556 16.0016 21.8805 14.656C21.8965 14.6441 21.9065 14.6263 21.9082 14.6067C22.3531 9.98603 21.1631 5.97229 18.7538 2.41413C18.7479 2.40224 18.7378 2.39373 18.7261 2.38863ZM7.79452 12.1723C6.74331 12.1723 5.87713 11.2033 5.87713 10.0132C5.87713 8.82322 6.72651 7.85422 7.79452 7.85422C8.87092 7.85422 9.72871 8.83173 9.71188 10.0132C9.71188 11.2033 8.86251 12.1723 7.79452 12.1723ZM14.8837 12.1723C13.8326 12.1723 12.9664 11.2033 12.9664 10.0132C12.9664 8.82322 13.8157 7.85422 14.8837 7.85422C15.9602 7.85422 16.8179 8.83173 16.8011 10.0132C16.8011 11.2033 15.9602 12.1723 14.8837 12.1723Z" fill="white"/>
</g>
<defs>
<clipPath id="clip0_669_2376">
<rect width="21.3351" height="16.5939" fill="white" transform="translate(0.665039 0.910156)"/>
</clipPath>
</defs>
</svg>
