<svg xmlns="http://www.w3.org/2000/svg" width="165" height="31" viewBox="0 0 165 31" fill="none">
<path d="M13.4541 17.6336L10.0466 21.0212C9.83776 21.2266 9.5853 21.3831 9.30768 21.4793C9.03006 21.5756 8.73427 21.6092 8.44189 21.5777C6.03854 21.3226 3.82517 20.1637 2.25726 18.3393C0.689355 16.5149 -0.113816 14.1639 0.013028 11.77C0.139872 9.37616 1.18708 7.12158 2.93916 5.47023C4.69124 3.81888 7.01489 2.89638 9.43196 2.89258H28.3259C28.3248 4.72675 27.5893 6.48543 26.2812 7.782C24.9731 9.07857 23.1994 9.80691 21.35 9.80691H9.31233C9.11881 9.80705 8.92969 9.86414 8.7689 9.97095C8.60812 10.0778 8.48292 10.2295 8.40915 10.4069C8.33538 10.5844 8.31636 10.7795 8.3545 10.9677C8.39264 11.1558 8.48623 11.3285 8.6234 11.4639L13.4541 16.2589C13.5454 16.349 13.6179 16.4561 13.6673 16.5741C13.7168 16.6921 13.7422 16.8185 13.7422 16.9463C13.7422 17.074 13.7168 17.2005 13.6673 17.3185C13.6179 17.4364 13.5454 17.5435 13.4541 17.6336Z" fill="#F62459"/>
<path d="M25.8754 15.0061C27.1961 16.3164 28.0955 17.9856 28.4598 19.8027C28.8241 21.6199 28.637 23.5034 27.9222 25.2151C27.2074 26.9268 25.9969 28.3899 24.4438 29.4194C22.8906 30.4489 21.0646 30.9986 19.1965 30.9991H0.302612C0.303705 29.1645 1.03901 27.4054 2.34701 26.1082C3.65501 24.811 5.42872 24.0817 7.2785 24.0807H19.3079C19.4972 24.0767 19.6814 24.0183 19.8379 23.9125C19.9944 23.8067 20.1165 23.6581 20.1895 23.4848C20.2625 23.3115 20.2831 23.1208 20.2489 22.9361C20.2147 22.7514 20.1271 22.5804 19.9968 22.4441L15.1661 17.6327C14.9827 17.4502 14.8797 17.2031 14.8797 16.9454C14.8797 16.6877 14.9827 16.4406 15.1661 16.258L18.5818 12.8704C18.7903 12.6644 19.0426 12.5071 19.3203 12.4101C19.5979 12.3131 19.8939 12.2789 20.1866 12.3099C22.3391 12.5328 24.3484 13.485 25.8754 15.0061Z" fill="#F62459"/>
<path d="M48.1356 16.8726C45.9038 16.1525 43.9773 15.5307 43.9773 13.6527C43.9773 12.2494 45.3221 11.2348 47.1785 11.2348C48.8025 11.2066 50.38 11.7732 51.6091 12.8263C51.6595 12.8726 51.7198 12.907 51.7856 12.9269C51.8513 12.9467 51.9208 12.9515 51.9886 12.9409C52.0557 12.9307 52.1195 12.9056 52.1753 12.8673C52.2311 12.829 52.2773 12.7786 52.3104 12.7199L53.1974 11.1652C53.2441 11.0807 53.2625 10.9835 53.2499 10.8879C53.2373 10.7923 53.1943 10.7031 53.1272 10.6333C52.1289 9.60234 50.0291 8.50586 47.1373 8.50586C43.3833 8.50586 40.8627 10.5883 40.8627 13.6937C40.8627 17.6131 44.2001 18.6851 46.8815 19.5443C49.0184 20.2316 50.8624 20.8248 50.8624 22.535C50.8624 24.5807 48.9194 25.313 47.261 25.313C45.6027 25.313 43.2966 24.5684 42.3561 23.3737C42.3153 23.3208 42.2629 23.2779 42.2028 23.2481C42.1428 23.2183 42.0767 23.2025 42.0095 23.2019C41.9426 23.2008 41.8762 23.2141 41.8149 23.2409C41.7536 23.2678 41.699 23.3075 41.6547 23.3574L40.4873 24.7116C40.4241 24.7862 40.3868 24.879 40.3808 24.9762C40.3749 25.0735 40.4007 25.17 40.4543 25.2516C41.4402 26.7368 44.5053 28.0419 47.0176 28.0419C51.2461 28.0419 53.977 25.849 53.977 22.4532C53.977 18.7587 50.8872 17.7563 48.1356 16.8726Z" fill="#ffffff"/>
<path d="M66.5633 24.3921C66.5371 24.3289 66.4967 24.2725 66.4453 24.2272C66.3938 24.1818 66.3326 24.1487 66.2663 24.1302C66.1996 24.1124 66.1297 24.1097 66.0618 24.1225C65.994 24.1353 65.9299 24.1631 65.8744 24.2039C65.1133 24.7559 64.1977 25.059 63.2548 25.0712C60.7796 25.0712 59.6534 23.5411 59.6534 20.1044V11.709H66.4684C66.5888 11.709 66.7042 11.6615 66.7893 11.5771C66.8744 11.4927 66.9222 11.3783 66.9222 11.2589V9.31144C66.9222 9.19208 66.8744 9.07761 66.7893 8.99321C66.7042 8.90881 66.5888 8.8614 66.4684 8.8614H59.6452V4.34458C59.6452 4.22522 59.5974 4.11075 59.5123 4.02635C59.4272 3.94195 59.3118 3.89453 59.1914 3.89453H57.104C56.9858 3.89773 56.8735 3.94655 56.7911 4.03061C56.7087 4.11466 56.6626 4.22731 56.6626 4.34458V20.4235C56.6626 25.4681 58.6634 27.9229 62.7763 27.9229C64.3354 27.9469 65.8597 27.4641 67.1161 26.5482C67.1919 26.4865 67.2459 26.4025 67.2704 26.3084C67.2949 26.2142 67.2885 26.1148 67.2523 26.0245L66.5633 24.3921Z" fill="#ffffff"/>
<path d="M85.9522 10.5272C83.7113 9.18965 81.1421 8.49035 78.5266 8.50612C72.5697 8.50612 68.0731 12.7038 68.0731 18.2721C68.0731 24.1145 71.8725 28.0422 77.5242 28.0422C79.5894 27.9994 81.5801 27.2687 83.1759 25.9679V27.2567C83.1759 27.3749 83.2232 27.4884 83.3076 27.572C83.3919 27.6556 83.5063 27.7026 83.6255 27.7026H85.7129C85.7723 27.7032 85.8312 27.692 85.8863 27.6698C85.9413 27.6477 85.9914 27.6149 86.0335 27.5735C86.0757 27.532 86.1092 27.4826 86.1321 27.4283C86.1549 27.3739 86.1667 27.3156 86.1667 27.2567V10.8914C86.1637 10.8179 86.1425 10.7463 86.1051 10.6828C86.0677 10.6194 86.0152 10.5659 85.9522 10.5272ZM78.4771 11.3455C80.1109 11.3302 81.7228 11.7182 83.1676 12.4747V22.703C82.4854 23.4394 81.6635 24.0353 80.749 24.4565C79.8345 24.8777 78.8452 25.116 77.8377 25.1578C73.7124 25.1578 71.1795 22.5394 71.1795 18.3212C71.196 14.3608 74.3353 11.3537 78.4936 11.3537L78.4771 11.3455Z" fill="#ffffff"/>
<path d="M100.312 24.3921C100.286 24.3289 100.246 24.2725 100.194 24.2272C100.143 24.1818 100.082 24.1487 100.015 24.1302C99.9487 24.1124 99.8788 24.1097 99.811 24.1225C99.7431 24.1353 99.679 24.1631 99.6235 24.2039C98.8624 24.7559 97.9468 25.059 97.004 25.0712C94.5288 25.0712 93.4026 23.5411 93.4026 20.1044V11.709H100.218C100.338 11.709 100.453 11.6615 100.538 11.5771C100.624 11.4927 100.671 11.3783 100.671 11.2589V9.31144C100.671 9.19208 100.624 9.07761 100.538 8.99321C100.453 8.90881 100.338 8.8614 100.218 8.8614H93.4026V4.34458C93.4026 4.28548 93.3908 4.22695 93.368 4.17235C93.3452 4.11775 93.3118 4.06814 93.2697 4.02635C93.2275 3.98456 93.1775 3.95141 93.1224 3.92879C93.0674 3.90617 93.0084 3.89453 92.9488 3.89453H90.8614C90.741 3.89453 90.6256 3.94195 90.5405 4.02635C90.4554 4.11075 90.4076 4.22522 90.4076 4.34458V20.4235C90.4076 25.4681 92.4084 27.9229 96.5213 27.9229C98.0804 27.9469 99.6047 27.4641 100.861 26.5482C100.937 26.4865 100.991 26.4025 101.015 26.3084C101.04 26.2142 101.034 26.1148 100.997 26.0245L100.312 24.3921Z" fill="#ffffff"/>
<path d="M111.265 8.50586C105.428 8.50586 101.657 12.3394 101.657 18.2719C101.657 24.1143 105.696 28.0419 111.706 28.0419C114.466 28.0419 117.069 27.0355 118.699 25.3539C118.761 25.2908 118.802 25.2108 118.819 25.1241C118.835 25.0375 118.825 24.948 118.79 24.8671L118.105 23.2755C118.077 23.2065 118.031 23.1458 117.973 23.0992C117.914 23.0526 117.845 23.0218 117.771 23.0096C117.697 22.9943 117.62 22.9979 117.548 23.0201C117.476 23.0423 117.41 23.0823 117.358 23.1364C116.121 24.4047 113.996 25.1821 111.818 25.1821C107.849 25.1821 105.242 22.8869 104.912 19.1515H119.326C119.433 19.1511 119.538 19.1132 119.62 19.0444C119.702 18.9756 119.757 18.8802 119.776 18.7751C119.866 18.1972 119.907 17.6128 119.899 17.0281C119.908 12.0121 116.356 8.50586 111.265 8.50586ZM116.855 16.5494H104.834C105.362 13.3295 107.721 11.3534 111.063 11.3534C114.404 11.3534 116.607 13.2845 116.855 16.5494Z" fill="#ffffff"/>
<path d="M130.01 0C126.966 0 123.332 1.3665 123.332 7.85943V27.2564C123.332 27.3153 123.343 27.3736 123.366 27.428C123.389 27.4824 123.423 27.5317 123.465 27.5732C123.507 27.6147 123.557 27.6474 123.612 27.6696C123.667 27.6918 123.726 27.7029 123.785 27.7024H125.873C125.932 27.7029 125.991 27.6918 126.046 27.6696C126.101 27.6474 126.151 27.6147 126.193 27.5732C126.236 27.5317 126.269 27.4824 126.292 27.428C126.315 27.3736 126.327 27.3153 126.327 27.2564V11.7094H132.783C132.842 11.7094 132.901 11.6977 132.956 11.675C133.01 11.6524 133.06 11.6192 133.102 11.5773C133.144 11.5355 133.177 11.4858 133.199 11.4312C133.222 11.3767 133.233 11.3182 133.232 11.2593V9.31185C133.233 9.25295 133.222 9.19452 133.199 9.13994C133.177 9.08536 133.144 9.03571 133.102 8.99387C133.06 8.95202 133.01 8.91881 132.956 8.89614C132.901 8.87347 132.842 8.8618 132.783 8.86181H126.327V8.21538C126.327 5.91605 126.739 2.85165 130.332 2.85165C131.524 2.80179 132.695 3.17618 133.632 3.90721C133.685 3.94927 133.746 3.97917 133.812 3.99475C133.878 4.01032 133.946 4.01116 134.012 3.99722C134.078 3.98278 134.14 3.95401 134.193 3.91298C134.247 3.87195 134.291 3.81968 134.321 3.75993L135.126 2.16431C135.171 2.07521 135.185 1.97386 135.165 1.87612C135.146 1.77839 135.094 1.68981 135.019 1.62425C133.806 0.593241 131.991 0 130.01 0Z" fill="#ffffff"/>
<path d="M152.089 8.8457H150.002C149.881 8.8457 149.766 8.89312 149.681 8.97752C149.596 9.06192 149.548 9.17639 149.548 9.29575V22.3798C148.43 23.7545 146.227 25.1905 143.896 25.1905C140.349 25.1905 138.764 23.3658 138.764 19.2704V9.31211C138.765 9.25321 138.754 9.19478 138.731 9.1402C138.709 9.08562 138.676 9.03597 138.634 8.99413C138.592 8.95228 138.543 8.91907 138.488 8.8964C138.433 8.87373 138.374 8.86207 138.315 8.86207H136.227C136.107 8.86207 135.992 8.90948 135.906 8.99388C135.821 9.07828 135.774 9.19275 135.774 9.31211V19.7082C135.774 26.5939 139.775 28.0422 143.133 28.0422C145.51 28.016 147.794 27.1217 149.548 25.5301V27.2567C149.548 27.3156 149.56 27.3739 149.583 27.4283C149.605 27.4826 149.639 27.532 149.681 27.5735C149.723 27.6149 149.773 27.6477 149.828 27.6699C149.883 27.692 149.942 27.7032 150.002 27.7026H152.089C152.209 27.7026 152.324 27.6558 152.409 27.5723C152.494 27.4887 152.542 27.3753 152.543 27.2567V9.31211C152.545 9.25165 152.535 9.19136 152.513 9.13486C152.491 9.07835 152.458 9.02679 152.416 8.98325C152.374 8.93971 152.323 8.90509 152.267 8.88146C152.211 8.85782 152.15 8.84566 152.089 8.8457Z" fill="#ffffff"/>
<path d="M164.977 26.1436L164.457 24.507C164.435 24.4387 164.398 24.3764 164.347 24.3253C164.296 24.2743 164.234 24.236 164.166 24.2136C164.097 24.1912 164.024 24.1853 163.953 24.1965C163.881 24.2077 163.814 24.2356 163.755 24.2779C163.099 24.7603 162.311 25.0355 161.495 25.0675C160.199 25.0675 159.337 24.462 159.337 21.4958V0.450045C159.337 0.330685 159.289 0.216215 159.204 0.131815C159.119 0.047415 159.004 0 158.883 0H156.796C156.676 0 156.56 0.047415 156.475 0.131815C156.39 0.216215 156.342 0.330685 156.342 0.450045V22.6127C156.342 26.1354 157.819 27.9315 160.732 27.9315C162.198 27.9475 163.632 27.4957 164.82 26.6427C164.896 26.5865 164.952 26.5079 164.98 26.4183C165.008 26.3287 165.007 26.2325 164.977 26.1436Z" fill="#ffffff"/>
</svg>